<svg xmlns="http://www.w3.org/2000/svg" xmlns:xlink="http://www.w3.org/1999/xlink" width="118" height="118" viewBox="0 0 118 118">
  <defs>
    <filter id="Rectangle_411831" x="0" y="0" width="118" height="118" filterUnits="userSpaceOnUse">
      <feOffset dy="3" input="SourceAlpha"/>
      <feGaussianBlur stdDeviation="3" result="blur"/>
      <feFlood flood-opacity="0.161"/>
      <feComposite operator="in" in2="blur"/>
      <feComposite in="SourceGraphic"/>
    </filter>
  </defs>
  <g id="Group_1204452" data-name="Group 1204452" transform="translate(-256.051 -738)">
    <g id="Group_1204310" data-name="Group 1204310" transform="translate(-70.73 -3114)">
      <g transform="matrix(1, 0, 0, 1, 326.78, 3852)" filter="url(#Rectangle_411831)">
        <g id="Rectangle_411831-2" data-name="Rectangle 411831" transform="translate(9 6)" fill="#ffc94a" stroke="#fff" stroke-width="2">
          <path d="M5,0H68a32,32,0,0,1,32,32V95a5,5,0,0,1-5,5H32A32,32,0,0,1,0,68V5A5,5,0,0,1,5,0Z" stroke="none"/>
          <path d="M5,1H68A31,31,0,0,1,99,32V95a4,4,0,0,1-4,4H32A31,31,0,0,1,1,68V5A4,4,0,0,1,5,1Z" fill="none"/>
        </g>
      </g>
    </g>
    <g id="informe-medico" transform="translate(285.86 760)">
      <path id="Path_1469676" data-name="Path 1469676" d="M25.74,3.27a3.18,3.18,0,1,0,3.18,3.18,3.18,3.18,0,0,0-3.18-3.18Zm0,4.42a1.24,1.24,0,1,1,1.24-1.24,1.24,1.24,0,0,1-1.24,1.24Z"/>
      <path id="Path_1469677" data-name="Path 1469677" d="M18.19,17.66H9.67a1.953,1.953,0,0,0-1.95,1.95v8.53a1.953,1.953,0,0,0,1.95,1.95h8.52a1.961,1.961,0,0,0,1.96-1.95V19.61a1.961,1.961,0,0,0-1.96-1.95Zm.02,10.48a.035.035,0,0,1-.02.01l-8.53-.01.01-8.54,8.54.01Z"/>
      <path id="Path_1469678" data-name="Path 1469678" d="M17.2,22.48l-3.59,3.59a.955.955,0,0,1-.68.29.978.978,0,0,1-.69-.29l-1.58-1.58a.969.969,0,0,1,1.37-1.37l.9.9,2.9-2.91a.969.969,0,1,1,1.37,1.37Z"/>
      <path id="Path_1469679" data-name="Path 1469679" d="M43.78,21.07a.971.971,0,0,1-.97.97H23.83a.97.97,0,0,1,0-1.94H42.81A.977.977,0,0,1,43.78,21.07Z"/>
      <path id="Path_1469680" data-name="Path 1469680" d="M43.78,26.68a.977.977,0,0,1-.97.97H23.83a.97.97,0,0,1,0-1.94H42.81A.971.971,0,0,1,43.78,26.68Z"/>
      <path id="Path_1469681" data-name="Path 1469681" d="M18.19,32.24H9.67A1.955,1.955,0,0,0,7.72,34.2v8.52a1.946,1.946,0,0,0,1.95,1.95h8.52a1.955,1.955,0,0,0,1.96-1.95V34.2a1.963,1.963,0,0,0-1.96-1.96Zm.02,10.48c0,.01-.01.01-.02.01l-8.53-.01.01-8.54,8.54.02Z"/>
      <path id="Path_1469682" data-name="Path 1469682" d="M17.2,37.07l-3.59,3.59a.945.945,0,0,1-.68.28.968.968,0,0,1-.69-.28l-1.58-1.58a.972.972,0,0,1,1.37-1.38l.9.9,2.9-2.9a.969.969,0,1,1,1.37,1.37Z"/>
      <path id="Path_1469683" data-name="Path 1469683" d="M43.78,35.66a.977.977,0,0,1-.97.97H23.83a.97.97,0,0,1,0-1.94H42.81A.971.971,0,0,1,43.78,35.66Z"/>
      <path id="Path_1469684" data-name="Path 1469684" d="M38.82,41.26a.971.971,0,0,1-.97.97H23.83a.97.97,0,0,1,0-1.94H37.85A.977.977,0,0,1,38.82,41.26Z"/>
      <path id="Path_1469685" data-name="Path 1469685" d="M18.19,46.83H9.67a1.946,1.946,0,0,0-1.95,1.95V57.3a1.955,1.955,0,0,0,1.95,1.96h8.52a1.963,1.963,0,0,0,1.96-1.96V48.78a1.955,1.955,0,0,0-1.96-1.95Zm.02,10.47a.022.022,0,0,1-.02.02L9.66,57.3l.01-8.53,8.54.01Z"/>
      <path id="Path_1469686" data-name="Path 1469686" d="M17.2,51.65l-3.59,3.59a.955.955,0,0,1-.68.29.978.978,0,0,1-.69-.29l-1.58-1.58a.969.969,0,0,1,1.37-1.37l.9.9,2.9-2.91a.969.969,0,1,1,1.37,1.37Z"/>
      <path id="Path_1469687" data-name="Path 1469687" d="M35.23,50.24a.965.965,0,0,1-.97.97H23.83a.97.97,0,0,1,0-1.94H34.26A.971.971,0,0,1,35.23,50.24Z"/>
      <path id="Path_1469688" data-name="Path 1469688" d="M43.78,55.85a.969.969,0,0,1-.97.96H23.83a.965.965,0,1,1,0-1.93H42.81A.971.971,0,0,1,43.78,55.85Z"/>
      <path id="Path_1469689" data-name="Path 1469689" d="M60.87,28.87l1.54-1.55a1.528,1.528,0,0,0,.45-1.09,1.586,1.586,0,0,0-.45-1.1L60.47,23.2a1.536,1.536,0,0,0-1.09-.45,1.739,1.739,0,0,0-1.09.45l-2.22,2.22a.01.01,0,0,1-.01.01c-.01.01-.01.01-.01.02l-5.69,5.7V12.47a2.813,2.813,0,0,0-2.82-2.8H40.99a6.385,6.385,0,0,0-6.11-4.52h-3.1a6.117,6.117,0,0,0-12.08,0H16.6a6.382,6.382,0,0,0-6.1,4.52H3.94a2.8,2.8,0,0,0-2.8,2.8V61.19A2.8,2.8,0,0,0,3.94,64h43.6a2.815,2.815,0,0,0,2.82-2.81V39.4l9.14-9.16.97.97-6.28,6.28a.975.975,0,0,0,.68,1.66.978.978,0,0,0,.69-.29l6.96-6.96a.966.966,0,0,0,0-1.37ZM12.16,11.53A4.443,4.443,0,0,1,16.6,7.09h4a.969.969,0,0,0,.96-.97,4.18,4.18,0,0,1,8.36,0,.977.977,0,0,0,.97.97h3.99a4.451,4.451,0,0,1,4.45,4.44v1.41H12.16ZM48.42,61.19a.873.873,0,0,1-.88.87H3.94a.871.871,0,0,1-.87-.87V12.47a.862.862,0,0,1,.87-.86h6.28v2.3a.971.971,0,0,0,.97.97H40.3a.971.971,0,0,0,.97-.97v-2.3h6.27a.864.864,0,0,1,.88.86V33.09l-2.29,2.29a.954.954,0,0,0-.27.64l-7.73,7.75a1.583,1.583,0,0,0-.47,1.12,1.737,1.737,0,0,0,.05.39l-1.68,2.99a.972.972,0,0,0,1.32,1.32l2.99-1.67a1.844,1.844,0,0,0,.4.06,1.61,1.61,0,0,0,1.12-.47l6.56-6.57ZM48,38.62l-7.26,7.27-.99-1L47,37.62Zm1.57-1.17-1.38-1.38,1.88-1.89,6.68-6.69,1.38,1.38ZM59.5,27.5l-1.38-1.38,1.26-1.27,1.38,1.38Z"/>
      <g id="Group_1204447" data-name="Group 1204447">
        <path id="Path_1469690" data-name="Path 1469690" d="M60.76,26.23,59.5,27.5l-1.38-1.38,1.26-1.27Z" fill="#fe9d30"/>
        <path id="Path_1469691" data-name="Path 1469691" d="M38.74,41.05H49.01v1.41H38.74Z" transform="translate(-16.674 43.294) rotate(-45.04)" fill="#fe9d30"/>
        <path id="Path_1469692" data-name="Path 1469692" d="M58.13,28.87l-8.56,8.58-1.38-1.38,1.88-1.89,6.68-6.69Z" fill="#fe9d30"/>
        <path id="Path_1469693" data-name="Path 1469693" d="M34.88,7.09H30.89a.977.977,0,0,1-.97-.97,4.18,4.18,0,0,0-8.36,0,.969.969,0,0,1-.96.97h-4a4.443,4.443,0,0,0-4.44,4.44v1.41H39.33V11.53a4.451,4.451,0,0,0-4.45-4.44ZM25.74,9.63a3.18,3.18,0,1,1,3.18-3.18A3.18,3.18,0,0,1,25.74,9.63Z" fill="#fe9d30"/>
      </g>
      <path id="Path_1469694" data-name="Path 1469694" d="M45.86,36.02a.954.954,0,0,1,.27-.64l2.29-2.29V12.47a.864.864,0,0,0-.88-.86H41.27v2.3a.971.971,0,0,1-.97.97H11.19a.971.971,0,0,1-.97-.97v-2.3H3.94a.862.862,0,0,0-.87.86V61.19a.871.871,0,0,0,.87.87h43.6a.873.873,0,0,0,.88-.87V40.94l-6.56,6.57a1.61,1.61,0,0,1-1.12.47,1.843,1.843,0,0,1-.4-.06l-2.99,1.67a.967.967,0,0,1-.47.12.973.973,0,0,1-.85-1.44l1.68-2.99a1.737,1.737,0,0,1-.05-.39,1.583,1.583,0,0,1,.47-1.12ZM23.83,20.1H42.81a.97.97,0,1,1,0,1.94H23.83a.97.97,0,0,1,0-1.94Zm0,5.61H42.81a.97.97,0,1,1,0,1.94H23.83a.97.97,0,0,1,0-1.94Zm0,8.98H42.81a.97.97,0,1,1,0,1.94H23.83a.97.97,0,0,1,0-1.94ZM20.15,57.3a1.963,1.963,0,0,1-1.96,1.96H9.67A1.955,1.955,0,0,1,7.72,57.3V48.78a1.946,1.946,0,0,1,1.95-1.95h8.52a1.955,1.955,0,0,1,1.96,1.95Zm0-14.58a1.955,1.955,0,0,1-1.96,1.95H9.67a1.946,1.946,0,0,1-1.95-1.95V34.2a1.955,1.955,0,0,1,1.95-1.96h8.52a1.963,1.963,0,0,1,1.96,1.96Zm0-14.58a1.961,1.961,0,0,1-1.96,1.95H9.67a1.953,1.953,0,0,1-1.95-1.95V19.61a1.953,1.953,0,0,1,1.95-1.95h8.52a1.961,1.961,0,0,1,1.96,1.95ZM42.81,54.88a.965.965,0,1,1,0,1.93H23.83a.965.965,0,1,1,0-1.93ZM22.86,50.24a.977.977,0,0,1,.97-.97H34.26a.97.97,0,0,1,0,1.94H23.83a.971.971,0,0,1-.97-.97Zm.97-8.01a.97.97,0,0,1,0-1.94H37.85a.97.97,0,1,1,0,1.94Z" fill="#e4e4e6"/>
      <path id="Path_1469695" data-name="Path 1469695" d="M9.67,48.77,9.66,57.3l8.53.02a.022.022,0,0,0,.02-.02V48.78Zm7.53,2.88-3.59,3.59a.955.955,0,0,1-.68.29.978.978,0,0,1-.69-.29l-1.58-1.58a.969.969,0,0,1,1.37-1.37l.9.9,2.9-2.91a.969.969,0,1,1,1.37,1.37Z" fill="#5bba82"/>
      <path id="Path_1469696" data-name="Path 1469696" d="M9.67,34.18l-.01,8.54,8.53.01c.01,0,.02,0,.02-.01V34.2Zm7.53,2.89-3.59,3.59a.945.945,0,0,1-.68.28.968.968,0,0,1-.69-.28l-1.58-1.58a.972.972,0,0,1,1.37-1.38l.9.9,2.9-2.9a.969.969,0,1,1,1.37,1.37Z" fill="#5bba82"/>
      <path id="Path_1469697" data-name="Path 1469697" d="M9.67,19.6l-.01,8.54,8.53.01a.035.035,0,0,0,.02-.01V19.61Zm7.53,2.88-3.59,3.59a.955.955,0,0,1-.68.29.978.978,0,0,1-.69-.29l-1.58-1.58a.969.969,0,0,1,1.37-1.37l.9.9,2.9-2.91a.969.969,0,1,1,1.37,1.37Z" fill="#5bba82"/>
    </g>
  </g>
</svg>
