<svg xmlns="http://www.w3.org/2000/svg" xmlns:xlink="http://www.w3.org/1999/xlink" width="118" height="118" viewBox="0 0 118 118">
  <defs>
    <filter id="Rectangle_411831" x="0" y="0" width="118" height="118" filterUnits="userSpaceOnUse">
      <feOffset dy="3" input="SourceAlpha"/>
      <feGaussianBlur stdDeviation="3" result="blur"/>
      <feFlood flood-opacity="0.161"/>
      <feComposite operator="in" in2="blur"/>
      <feComposite in="SourceGraphic"/>
    </filter>
  </defs>
  <g id="Group_1204445" data-name="Group 1204445" transform="translate(-256.051 -4216.9)">
    <g id="Group_1204316" data-name="Group 1204316" transform="translate(-70.73 364.9)">
      <g transform="matrix(1, 0, 0, 1, 326.78, 3852)" filter="url(#Rectangle_411831)">
        <g id="Rectangle_411831-2" data-name="Rectangle 411831" transform="translate(9 6)" fill="#ffc94a" stroke="#fff" stroke-width="2">
          <path d="M5,0H68a32,32,0,0,1,32,32V95a5,5,0,0,1-5,5H32A32,32,0,0,1,0,68V5A5,5,0,0,1,5,0Z" stroke="none"/>
          <path d="M5,1H68A31,31,0,0,1,99,32V95a4,4,0,0,1-4,4H32A31,31,0,0,1,1,68V5A4,4,0,0,1,5,1Z" fill="none"/>
        </g>
      </g>
    </g>
    <g id="maicena" transform="translate(271.5 4239.404)">
      <path id="Path_1469637" data-name="Path 1469637" d="M217.4,7.5H189.925A3.925,3.925,0,0,0,186,11.425v6.542h35.328V11.425A3.925,3.925,0,0,0,217.4,7.5Z" transform="translate(-154.275 -6.519)" fill="#ffee6e"/>
      <path id="Path_1469638" data-name="Path 1469638" d="M205.627,7.5h-15.7A3.925,3.925,0,0,0,186,11.425v6.542h15.7V11.425A3.925,3.925,0,0,1,205.627,7.5Z" transform="translate(-154.275 -6.519)" fill="#ffdf61"/>
      <path id="Path_1469639" data-name="Path 1469639" d="M146,131.731v39.006a5.234,5.234,0,0,0,5.234,5.234h35.328a5.234,5.234,0,0,0,5.234-5.234V131.731l-22.9-5.217Z" transform="translate(-119.509 -109.96)" fill="#ff9b87"/>
      <path id="Path_1469640" data-name="Path 1469640" d="M161.7,180.584V141.578a10.468,10.468,0,0,1,.69-3.735L146,141.578v39.006a5.234,5.234,0,0,0,5.234,5.234h15.7A5.234,5.234,0,0,1,161.7,180.584Z" transform="translate(-119.509 -119.807)" fill="#ff8870"/>
      <path id="Path_1469641" data-name="Path 1469641" d="M273.068,75.757,268.939,67.5H249.313l-8.534,6.469,3.3,6.469h30.094A10.468,10.468,0,0,0,273.068,75.757Z" transform="translate(-201.887 -58.668)" fill="#ff8870"/>
      <path id="Path_1469642" data-name="Path 1469642" d="M147.105,75.757A10.468,10.468,0,0,0,146,80.438h15.7a10.468,10.468,0,0,1,1.105-4.681l4.129-8.257h-15.7Z" transform="translate(-119.509 -58.668)" fill="#ff6c52"/>
      <path id="Path_1469643" data-name="Path 1469643" d="M301.074,224.987c0-6.172-2.367-11.421-5.671-13.366-9.945,4.032-9.014,23.528,0,26.733C298.707,236.408,301.074,231.16,301.074,224.987Z" transform="translate(-243.181 -183.932)" fill="#ffee6e"/>
      <path id="Path_1469644" data-name="Path 1469644" d="M261.669,219.618c0-6.172,2.367-11.421,5.67-13.367a5.545,5.545,0,0,0-2.835-.808c-4.7,0-8.5,6.346-8.5,14.175s3.808,14.175,8.5,14.175a5.545,5.545,0,0,0,2.835-.808C264.036,231.039,261.669,225.789,261.669,219.618Z" transform="translate(-215.115 -178.562)" fill="#ffdf61"/>
      <path id="Path_1469645" data-name="Path 1469645" d="M340.43,370.308h0c-4.546-1.226-11.5.719-11.734,9.5l2.239,2.239a12.8,12.8,0,0,0,9.491-11.61c0-.041,0-.083.006-.124Z" transform="translate(-278.298 -321.566)" fill="#c3dc4b"/>
      <path id="Path_1469646" data-name="Path 1469646" d="M307.927,339.988l-.124.006a12.8,12.8,0,0,0-11.61,9.491l4.252,4.252a12.8,12.8,0,0,1,11.61-9.491l.124-.006h0A4.076,4.076,0,0,0,307.927,339.988Z" transform="translate(-250.05 -295.499)" fill="#b4d241"/>
      <g id="Group_1204441" data-name="Group 1204441" transform="translate(40.764 44.489)">
        <path id="Path_1469647" data-name="Path 1469647" d="M255.221,340.02c-.816,4.269,1.978,12.941,12.143,12.14,0-.042,0-.083,0-.125a12.791,12.791,0,0,0-12.011-12.011l-.124-.006h0A.027.027,0,0,1,255.221,340.02Z" transform="translate(-255.087 -340.017)" fill="#e1f573"/>
      </g>
      <path id="Path_1469648" data-name="Path 1469648" d="M239.846,352.128a12.791,12.791,0,0,1-12.011-12.011c0-.041,0-.083-.006-.124v0a4.076,4.076,0,0,0-4.252,4.255q0,.062.006.124a12.762,12.762,0,0,0,15.986,11.613,12.8,12.8,0,0,0,.4-3.849Z" transform="translate(-186.931 -295.5)" fill="#d2eb5a"/>
      <g id="Group_1204442" data-name="Group 1204442" transform="translate(23.393 44.569)">
        <path id="Path_1469649" data-name="Path 1469649" d="M130.046,340.628h-7.72v7.72h15.439Z" transform="translate(-122.326 -340.628)" fill="#fff2de"/>
      </g>
      <path id="Path_1469650" data-name="Path 1469650" d="M58.826,317.968a5.014,5.014,0,0,0-7.091,0l-9.408,9.408H52.794l7.72-7.72Z" transform="translate(-29.401 -275.087)" fill="#ffe4c2"/>
      <path id="Path_1469651" data-name="Path 1469651" d="M105.712,394.5H92.542c-4.58,0-6.542,1.757-6.542,3.925h0c0,5.781,3.971,10.467,13.084,10.467h.085a10.467,10.467,0,0,0,10.467-10.467h0A3.925,3.925,0,0,0,105.712,394.5Z" transform="translate(-67.36 -342.882)" fill="#707789"/>
      <path id="Path_1469652" data-name="Path 1469652" d="M27.776,398.425h0A3.925,3.925,0,0,1,31.7,394.5H19.925A3.925,3.925,0,0,0,16,398.425h0a10.467,10.467,0,0,0,10.467,10.467H38.243A10.467,10.467,0,0,1,27.776,398.425Z" transform="translate(-6.519 -342.882)" fill="#636978"/>
      <g id="Group_1204444" data-name="Group 1204444" transform="translate(8.5)">
        <path id="Trazado_1469653" data-name="Trazado 1469653" d="M214.809,9.552a.981.981,0,0,1-.981-.981V4.907a2.947,2.947,0,0,0-2.944-2.944H183.407a2.947,2.947,0,0,0-2.944,2.944V8.57a.981.981,0,1,1-1.963,0V4.907A4.912,4.912,0,0,1,183.407,0h27.477a4.912,4.912,0,0,1,4.907,4.907V8.57A.981.981,0,0,1,214.809,9.552Z" transform="translate(-156.257)"/>
        <path id="Trazado_1469654" data-name="Trazado 1469654" d="M180.043,119.141H144.715a.981.981,0,0,1,0-1.963h35.328a4.257,4.257,0,0,0,4.252-4.252V73.92a9.534,9.534,0,0,0-1-4.242l-3.857-7.715H145.322l-3.857,7.715a9.535,9.535,0,0,0-1,4.242V93.431a.981.981,0,1,1-1.963,0V73.92a11.507,11.507,0,0,1,1.209-5.12l4.129-8.257a.981.981,0,0,1,.878-.542h35.328a.981.981,0,0,1,.878.542l4.129,8.257a11.507,11.507,0,0,1,1.209,5.12v39.006A6.222,6.222,0,0,1,180.043,119.141Z" transform="translate(-121.49 -52.149)"/>
        <path id="Trazado_1469656" data-name="Trazado 1469656" d="M249.715,217.4a.982.982,0,0,1-.97-.841,24.351,24.351,0,0,1-.245-3.461c0-8.5,4.167-15.156,9.486-15.156a7.753,7.753,0,0,1,6.068,3.458.981.981,0,1,1-1.566,1.183,5.921,5.921,0,0,0-4.5-2.679c-4.078,0-7.523,6.042-7.523,13.193a22.383,22.383,0,0,0,.225,3.181.982.982,0,0,1-.973,1.121Z" transform="translate(-217.098 -172.043)"/>
        <path id="Trazado_1469657" data-name="Trazado 1469657" d="M371.834,264.878a.992.992,0,0,1-.14-.01.981.981,0,0,1-.832-1.111,22.4,22.4,0,0,0,.222-3.166,20.928,20.928,0,0,0-1.063-6.706.981.981,0,1,1,1.856-.637,22.91,22.91,0,0,1,1.169,7.343,24.368,24.368,0,0,1-.242,3.444A.982.982,0,0,1,371.834,264.878Z" transform="translate(-322.671 -219.536)"/>
        <path id="Trazado_1469658" data-name="Trazado 1469658" d="M318.529,350.443a.981.981,0,0,1-.25-1.93,11.9,11.9,0,0,0,8.762-10.716,3.122,3.122,0,0,0-.9-2.441,3.054,3.054,0,0,0-2.326-.9,11.808,11.808,0,0,0-7.722,3.405.981.981,0,1,1-1.382-1.394,13.7,13.7,0,0,1,8.879-3.965l.132-.007a5.057,5.057,0,0,1,5.282,5.281l-.007.134a13.7,13.7,0,0,1-10.22,12.5A.984.984,0,0,1,318.529,350.443Z" transform="translate(-274.395 -288.983)"/>
        <path id="Trazado_1469659" data-name="Trazado 1469659" d="M229.8,350.862q-.389,0-.78-.022a13.648,13.648,0,0,1-7.206-2.549.981.981,0,0,1,1.145-1.594,11.688,11.688,0,0,0,6.172,2.184,11.847,11.847,0,0,0,3.1-.234,11.78,11.78,0,0,0-10.852-14.191,3.122,3.122,0,0,0-2.441.9,3.054,3.054,0,0,0-.9,2.326c.026.48.064.842.117,1.2a.981.981,0,1,1-1.941.291q-.094-.624-.13-1.265l-.007-.133a5.057,5.057,0,0,1,5.281-5.282l.134.007A13.743,13.743,0,0,1,234,349.711a.981.981,0,0,1-.7.7A13.763,13.763,0,0,1,229.8,350.862Z" transform="translate(-188.915 -288.981)"/>
        <path id="Línea_674" data-name="Línea 674" d="M-6.519-.294a.978.978,0,0,1-.694-.287.981.981,0,0,1,0-1.388l5.243-5.243a.981.981,0,0,1,1.388,0,.981.981,0,0,1,0,1.388L-5.825-.582A.978.978,0,0,1-6.519-.294Z" transform="translate(11.871 52.637)"/>
        <path id="Trazado_1469660" data-name="Trazado 1469660" d="M123.283,320.913a.978.978,0,0,1-.694-.287l-8.481-8.481a4.032,4.032,0,0,0-5.7,0,.981.981,0,0,1-1.388-1.388,5.995,5.995,0,0,1,8.478,0l8.481,8.481a.981.981,0,0,1-.694,1.675Z" transform="translate(-93.877 -268.57)"/>
        <path id="Trazado_1469661" data-name="Trazado 1469661" d="M13.407,387H38.352a4.912,4.912,0,0,1,4.907,4.907A11.462,11.462,0,0,1,31.81,403.355H19.949A11.462,11.462,0,0,1,8.5,391.907,4.912,4.912,0,0,1,13.407,387Zm18.318,14.393a9.515,9.515,0,0,0,9.571-9.486,2.947,2.947,0,0,0-2.944-2.944H13.407a2.947,2.947,0,0,0-2.944,2.944,9.5,9.5,0,0,0,9.486,9.486Z" transform="translate(-8.5 -336.364)"/>
        <path id="Línea_675" data-name="Línea 675" d="M39.015-5.537H-6.519A.981.981,0,0,1-7.5-6.519.981.981,0,0,1-6.519-7.5H39.015A.981.981,0,0,1,40-6.519.981.981,0,0,1,39.015-5.537Z" transform="translate(24.641 28.289)"/>
        <path id="Trazado_1469662" data-name="Trazado 1469662" d="M299.977,244.4a.978.978,0,0,1-.694-.287.87.87,0,0,0-1.229,0,.981.981,0,1,1-1.388-1.388,2.835,2.835,0,0,1,4,0,.981.981,0,0,1-.694,1.675Z" transform="translate(-258.712 -210.248)"/>
        <path id="Trazado_1469663" data-name="Trazado 1469663" d="M327.452,278.013a.978.978,0,0,1-.694-.287.869.869,0,0,0-1.229,0,.981.981,0,0,1-1.388-1.388,2.835,2.835,0,0,1,4,0,.981.981,0,0,1-.694,1.675Z" transform="translate(-282.592 -239.461)"/>
        <path id="Trazado_1469664" data-name="Trazado 1469664" d="M286.744,306.718a.978.978,0,0,1-.694-.287.869.869,0,0,0-1.229,0,.981.981,0,0,1-1.388-1.388,2.835,2.835,0,0,1,4,0,.981.981,0,0,1-.694,1.675Z" transform="translate(-247.21 -264.41)"/>
      </g>
    </g>
  </g>
</svg>
