<svg xmlns="http://www.w3.org/2000/svg" xmlns:xlink="http://www.w3.org/1999/xlink" width="118" height="118" viewBox="0 0 118 118">
  <defs>
    <filter id="Rectangle_411831" x="0" y="0" width="118" height="118" filterUnits="userSpaceOnUse">
      <feOffset dy="3" input="SourceAlpha"/>
      <feGaussianBlur stdDeviation="3" result="blur"/>
      <feFlood flood-opacity="0.161"/>
      <feComposite operator="in" in2="blur"/>
      <feComposite in="SourceGraphic"/>
    </filter>
  </defs>
  <g id="Group_1204451" data-name="Group 1204451" transform="translate(-886 -738)">
    <g id="Group_1204311" data-name="Group 1204311" transform="translate(559.219 -3114)">
      <g transform="matrix(1, 0, 0, 1, 326.78, 3852)" filter="url(#Rectangle_411831)">
        <g id="Rectangle_411831-2" data-name="Rectangle 411831" transform="translate(9 6)" fill="#ffc94a" stroke="#fff" stroke-width="2">
          <path d="M5,0H68a32,32,0,0,1,32,32V95a5,5,0,0,1-5,5H32A32,32,0,0,1,0,68V5A5,5,0,0,1,5,0Z" stroke="none"/>
          <path d="M5,1H68A31,31,0,0,1,99,32V95a4,4,0,0,1-4,4H32A31,31,0,0,1,1,68V5A4,4,0,0,1,5,1Z" fill="none"/>
        </g>
      </g>
    </g>
    <g id="auditoria" transform="translate(905.959 752)">
      <g id="Group_1204450" data-name="Group 1204450" transform="translate(9.045 9.006)">
        <g id="Group_1204448" data-name="Group 1204448" transform="translate(0 0)">
          <path id="Path_1469698" data-name="Path 1469698" d="M60.424,56.984a2.712,2.712,0,0,1,2.707,2.707V109.5a2.712,2.712,0,0,1-2.707,2.707H18.738a2.712,2.712,0,0,1-2.707-2.707V59.691a2.712,2.712,0,0,1,2.707-2.707Z" transform="translate(-16.031 -51.829)" fill="#a79ba7" fill-rule="evenodd"/>
          <path id="Path_1469699" data-name="Path 1469699" d="M334,56.984a2.712,2.712,0,0,1,2.707,2.707V109.5A2.712,2.712,0,0,1,334,112.2h-5.031V56.984Z" transform="translate(-289.603 -51.829)" fill="#837683" fill-rule="evenodd"/>
          <path id="Path_1469700" data-name="Path 1469700" d="M84.279,86.922H47.226a1.26,1.26,0,0,0-1.258,1.258v45.174a1.26,1.26,0,0,0,1.258,1.258H84.279a1.26,1.26,0,0,0,1.258-1.258V88.18A1.26,1.26,0,0,0,84.279,86.922Z" transform="translate(-42.202 -78.001)" fill="#eceff1" fill-rule="evenodd"/>
          <path id="Path_1469701" data-name="Path 1469701" d="M331.678,86.922h-2.715v47.689h2.715a1.26,1.26,0,0,0,1.258-1.258V88.18A1.26,1.26,0,0,0,331.678,86.922Z" transform="translate(-289.602 -78.001)" fill="#d1d1d6" fill-rule="evenodd"/>
          <path id="Path_1469702" data-name="Path 1469702" d="M121.662,19.519h4.69a4.6,4.6,0,0,1,8.947,0h4.69a1.26,1.26,0,0,1,1.258,1.258V25.3a1.26,1.26,0,0,1-1.258,1.258H121.662A1.26,1.26,0,0,1,120.4,25.3V20.777A1.26,1.26,0,0,1,121.662,19.519Z" transform="translate(-107.276 -16)" fill="#ecba78" fill-rule="evenodd"/>
          <path id="Path_1469703" data-name="Path 1469703" d="M139.989,43.976a1.26,1.26,0,0,1,1.258,1.258v4.522a1.26,1.26,0,0,1-1.258,1.258H121.662a1.26,1.26,0,0,1-1.258-1.258h18.327a1.26,1.26,0,0,0,1.258-1.258V43.976Z" transform="translate(-107.276 -40.457)" fill="#e3a76f" fill-rule="evenodd"/>
        </g>
        <g id="Group_1204449" data-name="Group 1204449" transform="translate(17.822 18.077)">
          <path id="Path_1469704" data-name="Path 1469704" d="M370.237,366.585l2.29-2.36-6.453-6.332-2.212,2.435Z" transform="translate(-337.933 -332.966)" fill="#a79ba7" fill-rule="evenodd"/>
          <path id="Path_1469705" data-name="Path 1469705" d="M371.9,364.869l.625-.644-6.453-6.332-2.212,2.435.6.593,1.608-1.77Z" transform="translate(-337.933 -332.966)" fill="#837683" fill-rule="evenodd"/>
          <path id="Path_1469706" data-name="Path 1469706" d="M408.884,404.761l2.584-2.663a1.188,1.188,0,0,0-.025-1.676l-7.158-6.946a1.188,1.188,0,0,0-1.676.025l-2.584,2.663a1.188,1.188,0,0,0,.025,1.676l7.158,6.946A1.188,1.188,0,0,0,408.884,404.761Z" transform="translate(-369.256 -363.782)" fill="#ecba78" fill-rule="evenodd"/>
          <path id="Path_1469707" data-name="Path 1469707" d="M430.7,404.761l2.584-2.663a1.188,1.188,0,0,0-.025-1.676l-7.158-6.946a1.19,1.19,0,0,0-1.454-.154,1.174,1.174,0,0,1,.2.154L432,400.422a1.189,1.189,0,0,1,.025,1.676l-2.584,2.663a1.177,1.177,0,0,1-.221.179A1.19,1.19,0,0,0,430.7,404.761Z" transform="translate(-391.073 -363.782)" fill="#e3a76f" fill-rule="evenodd"/>
          <circle id="Ellipse_12509" data-name="Ellipse 12509" cx="13.035" cy="13.035" r="13.035" transform="translate(0 18.432) rotate(-45)" fill="#8ac9fe"/>
          <path id="Path_1469708" data-name="Path 1469708" d="M299.95,202.621a13.035,13.035,0,0,1,0,26.07q-.316,0-.629-.015a13.035,13.035,0,0,0,0-26.039q.313-.015.629-.015Z" transform="translate(-281.51 -197.224)" fill="#60b7ff" fill-rule="evenodd"/>
          <circle id="Ellipse_12510" data-name="Ellipse 12510" cx="9.36" cy="9.36" r="9.36" transform="matrix(0.316, -0.949, 0.949, 0.316, 6.603, 24.336)" fill="#eceff1"/>
          <path id="Path_1469709" data-name="Path 1469709" d="M239.267,231.839c.211,0,.421.008.629.021a9.36,9.36,0,0,0,0,18.677c-.208.014-.417.022-.629.022a9.36,9.36,0,0,1,0-18.72Z" transform="translate(-220.827 -222.767)" fill="#d1d1d6" fill-rule="evenodd"/>
          <path id="Path_1469710" data-name="Path 1469710" d="M255.414,281.159a1.5,1.5,0,0,1,2.118-2.118l2.151,2.151,5.154-5.229a1.494,1.494,0,0,1,2.118,2.106c-2.86,2.888-3.337,3.428-6.21,6.3a1.5,1.5,0,0,1-2.118,0Z" transform="translate(-242.743 -260.957)" fill="#a79ba7" fill-rule="evenodd"/>
        </g>
      </g>
      <path id="Path_1469711" data-name="Path 1469711" d="M50.364,42.8a.469.469,0,0,0-.345-.142.481.481,0,0,0-.343.143l-5.151,5.226a1,1,0,0,1-.713.3h0a1.01,1.01,0,0,1-.712-.294l-2.151-2.151a.491.491,0,1,0-.694.7l3.212,3.211a.49.49,0,0,0,.694,0c1.63-1.63,4.972-5.051,6.207-6.3a.488.488,0,0,0,0-.691Zm-.343-2.154a2.5,2.5,0,0,1,1.772,4.263c-1.229,1.241-4.573,4.665-6.211,6.3a2.507,2.507,0,0,1-3.542,0L38.829,48a2.5,2.5,0,1,1,3.541-3.541L43.8,45.89l4.443-4.507a2.48,2.48,0,0,1,1.768-.74Zm3.64,4.871a8.353,8.353,0,1,1-8.353-8.354A8.363,8.363,0,0,1,53.661,45.514Zm2.013,0A10.366,10.366,0,1,1,45.308,35.148,10.378,10.378,0,0,1,55.674,45.514ZM68.411,64.571a.211.211,0,0,0-.053-.126L61.2,57.5a.175.175,0,0,0-.124-.049h0a.173.173,0,0,0-.126.053l-2.584,2.664a.177.177,0,0,0-.05.127.183.183,0,0,0,.053.125l7.159,6.946a.186.186,0,0,0,.255,0L68.357,64.7a.183.183,0,0,0,.053-.127Zm-13.272,2.1a1.7,1.7,0,0,1-1.7,1.7H11.753a1.7,1.7,0,0,1-1.7-1.7V16.868a1.7,1.7,0,0,1,1.7-1.7h9.415v1.753H12.812a1.006,1.006,0,0,0-1.006,1.006V65.616a1.006,1.006,0,0,0,1.006,1.006H52.38a1.007,1.007,0,0,0,1.006-1.006V56.993c.111-.078.22-.157.329-.238l1.424,1.393v8.526ZM23.18,18.557H42.011V13.531H37.069a1.008,1.008,0,0,1-.978-.77,3.6,3.6,0,0,0-6.99,0,1.007,1.007,0,0,1-.978.77H23.18v5.026Zm20.843-3.39v1.753H52.38a1.007,1.007,0,0,1,1.006,1.006v16.11A14.064,14.064,0,0,1,55.139,35.5V16.868a1.7,1.7,0,0,0-1.7-1.7ZM57.336,45.514A12.029,12.029,0,1,1,45.308,33.486,12.043,12.043,0,0,1,57.336,45.514ZM21.168,19.563a1.006,1.006,0,0,0,1.006,1.006H43.017a1.006,1.006,0,0,0,1.006-1.006v-.63h7.351v13.92a14.041,14.041,0,1,0,0,25.324v6.432H13.818V18.933h7.35v.63ZM56.1,54.488q-.409.49-.86.943L57.759,57.9l.888-.916ZM69.8,66.1l-2.587,2.663h.006a2.2,2.2,0,0,1-3.1.046l-6.968-6.761v4.626a3.717,3.717,0,0,1-3.713,3.713H11.753A3.717,3.717,0,0,1,8.04,66.675V16.868a3.717,3.717,0,0,1,3.713-3.713h9.415v-.63a1.007,1.007,0,0,1,1.006-1.006h5.215a5.612,5.612,0,0,1,10.414,0h5.215a1.006,1.006,0,0,1,1.006,1.006v.63h9.415a3.717,3.717,0,0,1,3.713,3.713V37.981a14.014,14.014,0,0,1,.135,14.853l2.868,2.8a2.193,2.193,0,0,1,2.444.416L69.755,63a2.2,2.2,0,0,1,.047,3.1ZM17.48,24.783a1.006,1.006,0,0,0,1.006,1.006h28.22a1.006,1.006,0,1,0,0-2.013H18.486A1.006,1.006,0,0,0,17.48,24.783Zm17.337,5.789H18.486a1.006,1.006,0,0,0,0,2.013H34.817a1.006,1.006,0,1,0,0-2.013Zm-16.331,22.4H28.633a1.006,1.006,0,0,0,0-2.013H18.486a1.006,1.006,0,0,0,0,2.013Zm0-6.8H28.633a1.006,1.006,0,0,0,0-2.012H18.486a1.006,1.006,0,0,0,0,2.012Zm0-6.795H28.633a1.006,1.006,0,0,0,0-2.013H18.486a1.006,1.006,0,0,0,0,2.013ZM17.48,58.76a1,1,0,0,0,1.006,1.006H33.3a1.006,1.006,0,1,0,0-2.012H18.486A1,1,0,0,0,17.48,58.76Zm13.9-45.981A1.218,1.218,0,1,1,32.6,14,1.22,1.22,0,0,1,31.378,12.779Z" fill-rule="evenodd"/>
    </g>
  </g>
</svg>
