<svg xmlns="http://www.w3.org/2000/svg" xmlns:xlink="http://www.w3.org/1999/xlink" width="118" height="118" viewBox="0 0 118 118">
  <defs>
    <filter id="Rectangle_411831" x="0" y="0" width="118" height="118" filterUnits="userSpaceOnUse">
      <feOffset dy="3" input="SourceAlpha"/>
      <feGaussianBlur stdDeviation="3" result="blur"/>
      <feFlood flood-opacity="0.161"/>
      <feComposite operator="in" in2="blur"/>
      <feComposite in="SourceGraphic"/>
    </filter>
    <clipPath id="clip-path">
      <path id="path3732" d="M0-682.665H68.328v68.328H0Z" transform="translate(0 682.665)"/>
    </clipPath>
  </defs>
  <g id="Group_1204337" data-name="Group 1204337" transform="translate(-234.051 -5668)">
    <g id="Group_1203976" data-name="Group 1203976" transform="translate(-92.73 1816)">
      <g transform="matrix(1, 0, 0, 1, 326.78, 3852)" filter="url(#Rectangle_411831)">
        <g id="Rectangle_411831-2" data-name="Rectangle 411831" transform="translate(9 6)" fill="#ffc94a" stroke="#fff" stroke-width="2">
          <path d="M5,0H68a32,32,0,0,1,32,32V95a5,5,0,0,1-5,5H32A32,32,0,0,1,0,68V5A5,5,0,0,1,5,0Z" stroke="none"/>
          <path d="M5,1H68A31,31,0,0,1,99,32V95a4,4,0,0,1-4,4H32A31,31,0,0,1,1,68V5A4,4,0,0,1,5,1Z" fill="none"/>
        </g>
      </g>
    </g>
    <g id="g3726" transform="translate(256.418 6372.501)">
      <g id="g3728" transform="translate(0 -682.665)">
        <g id="g3730" clip-path="url(#clip-path)">
          <g id="g3736" transform="translate(14.069 1.001)">
            <path id="path3738" d="M-381.828-554.692h-40.114a2.354,2.354,0,0,1-2.354-2.354v-56.987a2.354,2.354,0,0,1,2.354-2.354h40.114a2.354,2.354,0,0,1,2.354,2.354v56.987a2.354,2.354,0,0,1-2.354,2.354" transform="translate(424.296 616.386)" fill="#3c87d0"/>
          </g>
          <g id="g3740" transform="translate(9.437 5.633)">
            <path id="path3742" d="M-381.828-554.692h-40.114a2.354,2.354,0,0,1-2.354-2.354v-56.987a2.354,2.354,0,0,1,2.354-2.354h40.114a2.354,2.354,0,0,1,2.354,2.354v56.987a2.354,2.354,0,0,1-2.354,2.354" transform="translate(424.296 616.386)" fill="#c8effe"/>
          </g>
          <g id="g3744" transform="translate(46.986 5.633)">
            <path id="path3746" d="M-44.231,0h-4.919A2.354,2.354,0,0,1-46.8,2.354V59.34a2.354,2.354,0,0,1-2.354,2.354h4.919a2.354,2.354,0,0,0,2.354-2.354V2.354A2.354,2.354,0,0,0-44.231,0" transform="translate(49.151)" fill="#a8d3d8"/>
          </g>
          <g id="g3748" transform="translate(34.537 14.46)">
            <path id="path3750" d="M-124.718-16.742h-12.94a.931.931,0,0,1-.931-.931.931.931,0,0,1,.931-.931h12.94a.931.931,0,0,1,.931.931.931.931,0,0,1-.931.931" transform="translate(138.589 18.604)" fill="#3e5959"/>
          </g>
          <g id="g3752" transform="translate(34.537 18.815)">
            <path id="path3754" d="M-124.718-16.741h-12.94a.931.931,0,0,1-.931-.931.931.931,0,0,1,.931-.931h12.94a.931.931,0,0,1,.931.931.931.931,0,0,1-.931.931" transform="translate(138.589 18.603)" fill="#3e5959"/>
          </g>
          <g id="g3756" transform="translate(34.537 23.17)">
            <path id="path3758" d="M-124.718-16.742h-12.94a.931.931,0,0,1-.931-.931.931.931,0,0,1,.931-.931h12.94a.931.931,0,0,1,.931.931.931.931,0,0,1-.931.931" transform="translate(138.589 18.604)" fill="#3e5959"/>
          </g>
          <g id="g3760" transform="translate(35.448 47.476)">
            <path id="path3762" d="M-116.528-16.741h-12.03a.931.931,0,0,1-.931-.931.931.931,0,0,1,.931-.931h12.03a.931.931,0,0,1,.931.931.931.931,0,0,1-.931.931" transform="translate(129.489 18.603)" fill="#3e5959"/>
          </g>
          <g id="g3764" transform="translate(14.357 38.392)">
            <path id="path3766" d="M-124.718-16.742h-12.94a.931.931,0,0,1-.931-.931.931.931,0,0,1,.931-.931h12.94a.931.931,0,0,1,.931.931.931.931,0,0,1-.931.931" transform="translate(138.589 18.604)" fill="#3e5959"/>
          </g>
          <g id="g3768" transform="translate(14.357 34.037)">
            <path id="path3770" d="M-124.718-16.741h-12.94a.931.931,0,0,1-.931-.931.931.931,0,0,1,.931-.931h12.94a.931.931,0,0,1,.931.931.931.931,0,0,1-.931.931" transform="translate(138.589 18.603)" fill="#3e5959"/>
          </g>
          <g id="g3772" transform="translate(23.005 10.702)">
            <path id="path3774" d="M0,0V8.648H8.648A8.648,8.648,0,0,0,0,0" fill="#ee6161"/>
          </g>
          <g id="g3776" transform="translate(14.357 10.702)">
            <path id="path3778" d="M-77.753,0A8.648,8.648,0,0,0-86.4,8.648,8.648,8.648,0,0,0-77.753,17.3a8.648,8.648,0,0,0,8.648-8.648h-8.648Z" transform="translate(86.401)" fill="#fea95c"/>
          </g>
          <g id="g3780" transform="translate(32.551 32.056)">
            <path id="path3782" d="M-145.36-91.518h-15.547a.621.621,0,0,1-.621-.621v-8.938a.621.621,0,0,1,.621-.621h15.547a.621.621,0,0,1,.621.621v8.938a.621.621,0,0,1-.621.621" transform="translate(161.528 101.697)" fill="#ee6161"/>
          </g>
          <g id="g3784" transform="translate(14.357 45.852)">
            <path id="path3786" d="M-30.032-133.23h-2.72a.621.621,0,0,1-.621-.621v-13.577a.621.621,0,0,1,.621-.621h2.72a.621.621,0,0,1,.621.621v13.577a.621.621,0,0,1-.621.621" transform="translate(33.372 148.048)" fill="#fe7701"/>
          </g>
          <g id="g3788" transform="translate(21.746 49.414)">
            <path id="path3790" d="M-30.032-101.2h-2.72a.621.621,0,0,1-.621-.621v-10.014a.621.621,0,0,1,.621-.621h2.72a.621.621,0,0,1,.621.621v10.014a.621.621,0,0,1-.621.621" transform="translate(33.372 112.457)" fill="#fe9738"/>
          </g>
          <g id="g3792" transform="translate(29.135 53.853)">
            <path id="path3794" d="M-30.033-61.3h-2.72a.621.621,0,0,1-.621-.621v-5.576a.621.621,0,0,1,.621-.621h2.72a.621.621,0,0,1,.621.621v5.576a.621.621,0,0,1-.621.621" transform="translate(33.373 68.115)" fill="#fea95c"/>
          </g>
          <g id="g3796" transform="translate(35.448 52.051)">
            <path id="path3798" d="M-116.528-16.741h-12.03a.931.931,0,0,1-.931-.931.931.931,0,0,1,.931-.931h12.03a.931.931,0,0,1,.931.931.931.931,0,0,1-.931.931" transform="translate(129.489 18.603)" fill="#3e5959"/>
          </g>
          <g id="g3800" transform="translate(35.448 56.625)">
            <path id="path3802" d="M-116.528-16.741h-12.03a.931.931,0,0,1-.931-.931.931.931,0,0,1,.931-.931h12.03a.931.931,0,0,1,.931.931.931.931,0,0,1-.931.931" transform="translate(129.489 18.603)" fill="#3e5959"/>
          </g>
          <g id="g3804" transform="translate(34.537 14.46)">
            <path id="path3806" d="M-8.372-16.742H4.569a.931.931,0,0,0,.931-.931.931.931,0,0,0-.931-.931H-8.372a.931.931,0,0,0-.931.931.931.931,0,0,0,.931.931" transform="translate(9.303 18.604)"/>
          </g>
          <g id="g3808" transform="translate(34.537 18.815)">
            <path id="path3810" d="M0-8.372a.931.931,0,0,0,.931.931h12.94a.931.931,0,0,0,.931-.931.931.931,0,0,0-.931-.931H.931A.931.931,0,0,0,0-8.372" transform="translate(0 9.303)"/>
          </g>
          <g id="g3812" transform="translate(34.537 23.17)">
            <path id="path3814" d="M-8.372-16.742H4.569a.931.931,0,0,0,.931-.931.931.931,0,0,0-.931-.931H-8.372a.931.931,0,0,0-.931.931.931.931,0,0,0,.931.931" transform="translate(9.303 18.604)"/>
          </g>
          <g id="g3816" transform="translate(35.448 47.476)">
            <path id="path3818" d="M-124.9-8.37a.931.931,0,0,0-.931-.931h-12.03a.931.931,0,0,0-.931.931.931.931,0,0,0,.931.931h12.03a.931.931,0,0,0,.931-.931" transform="translate(138.79 9.301)"/>
          </g>
          <g id="g3820" transform="translate(14.357 38.392)">
            <path id="path3822" d="M-133.088-8.37a.931.931,0,0,0-.931-.931h-12.94a.931.931,0,0,0-.931.931.931.931,0,0,0,.931.931h12.94a.931.931,0,0,0,.931-.931" transform="translate(147.89 9.301)"/>
          </g>
          <g id="g3824" transform="translate(14.356 34.037)">
            <path id="path3826" d="M-8.372-16.741H4.569a.931.931,0,0,0,.931-.931.931.931,0,0,0-.931-.931H-8.372a.931.931,0,0,0-.931.931.931.931,0,0,0,.931.931" transform="translate(9.303 18.603)"/>
          </g>
          <g id="g3828" transform="translate(13.356 9.701)">
            <path id="path3830" d="M-95.751-77.753v-6.581a7.664,7.664,0,0,1,6.581,6.581Zm-1,8.648a7.656,7.656,0,0,1-7.647-7.647,7.659,7.659,0,0,1,6.646-7.582v7.582a1,1,0,0,0,1,1h7.582a7.659,7.659,0,0,1-7.582,6.646m0-17.3a9.66,9.66,0,0,0-9.649,9.649A9.66,9.66,0,0,0-96.752-67.1,9.66,9.66,0,0,0-87.1-76.752,9.66,9.66,0,0,0-96.752-86.4" transform="translate(106.401 86.401)"/>
          </g>
          <path id="path3832" d="M317.224-370.395H332.01v8.177H317.224Zm-2-.38v8.938a1.623,1.623,0,0,0,1.621,1.622H332.39a1.623,1.623,0,0,0,1.622-1.622v-8.938a1.623,1.623,0,0,0-1.622-1.622H316.843a1.623,1.623,0,0,0-1.621,1.622" transform="translate(-283.671 403.451)"/>
          <path id="path3834" d="M135.439-232.555H137.4v12.816h-1.959Zm-2,13.2a1.623,1.623,0,0,0,1.621,1.622h2.72a1.623,1.623,0,0,0,1.622-1.622v-13.577a1.623,1.623,0,0,0-1.622-1.621h-2.72a1.623,1.623,0,0,0-1.621,1.621Z" transform="translate(-120.081 279.408)"/>
          <path id="path3836" d="M211.224-187.71h-1.959v-9.254h1.959Zm-2.339-11.256a1.623,1.623,0,0,0-1.622,1.621v10.015a1.623,1.623,0,0,0,1.622,1.622h2.72a1.623,1.623,0,0,0,1.622-1.622v-10.015a1.623,1.623,0,0,0-1.622-1.621Z" transform="translate(-186.518 247.38)"/>
          <path id="path3838" d="M283.092-152.623h1.959v4.816h-1.959Zm-.38,6.818h2.72a1.623,1.623,0,0,0,1.622-1.622V-153a1.623,1.623,0,0,0-1.622-1.622h-2.72A1.623,1.623,0,0,0,281.09-153v5.576a1.623,1.623,0,0,0,1.622,1.622" transform="translate(-252.956 207.477)"/>
          <g id="g3840" transform="translate(35.448 52.051)">
            <path id="path3842" d="M-116.528,0h-12.03a.931.931,0,0,0-.931.931.931.931,0,0,0,.931.931h12.03A.931.931,0,0,0-115.6.931.931.931,0,0,0-116.528,0" transform="translate(129.489)"/>
          </g>
          <g id="g3844" transform="translate(35.448 56.625)">
            <path id="path3846" d="M-116.528,0h-12.03a.931.931,0,0,0-.931.931.931.931,0,0,0,.931.931h12.03A.931.931,0,0,0-115.6.931.931.931,0,0,0-116.528,0" transform="translate(129.489)"/>
          </g>
          <g id="g3848" transform="translate(8.436 0)">
            <path id="path3850" d="M-453.637-111.575a1,1,0,0,0,1-1v-8.054a3.359,3.359,0,0,0-3.355-3.355h-40.114a3.359,3.359,0,0,0-3.355,3.355v1.277h-1.277A3.359,3.359,0,0,0-504.092-116v42.881a1,1,0,0,0,1,1,1,1,0,0,0,1-1V-116a1.354,1.354,0,0,1,1.353-1.353h40.114A1.354,1.354,0,0,1-459.27-116v56.987a1.354,1.354,0,0,1-1.353,1.353h-40.114a1.354,1.354,0,0,1-1.353-1.353v-9.435a1,1,0,0,0-1-1,1,1,0,0,0-1,1v9.435a3.359,3.359,0,0,0,3.355,3.355h40.114a3.359,3.359,0,0,0,3.355-3.355v-1.277h1.277a3.359,3.359,0,0,0,3.355-3.355v-44.262a1,1,0,0,0-1-1,1,1,0,0,0-1,1v44.262a1.354,1.354,0,0,1-1.353,1.353h-1.277V-116a3.359,3.359,0,0,0-3.355-3.355h-36.835v-1.277a1.355,1.355,0,0,1,1.353-1.353h40.114a1.354,1.354,0,0,1,1.353,1.353v8.054a1,1,0,0,0,1,1" transform="translate(504.092 123.985)"/>
          </g>
        </g>
      </g>
    </g>
  </g>
</svg>
