<svg xmlns="http://www.w3.org/2000/svg" xmlns:xlink="http://www.w3.org/1999/xlink" width="118" height="118" viewBox="0 0 118 118">
  <defs>
    <filter id="Rectangle_411831" x="0" y="0" width="118" height="118" filterUnits="userSpaceOnUse">
      <feOffset dy="3" input="SourceAlpha"/>
      <feGaussianBlur stdDeviation="3" result="blur"/>
      <feFlood flood-opacity="0.161"/>
      <feComposite operator="in" in2="blur"/>
      <feComposite in="SourceGraphic"/>
    </filter>
  </defs>
  <g id="Group_1204466" data-name="Group 1204466" transform="translate(-795.051 -2307)">
    <g id="Group_1203738" data-name="Group 1203738" transform="translate(468.27 -1545)">
      <g transform="matrix(1, 0, 0, 1, 326.78, 3852)" filter="url(#Rectangle_411831)">
        <g id="Rectangle_411831-2" data-name="Rectangle 411831" transform="translate(9 6)" fill="#ffc94a" stroke="#fff" stroke-width="2">
          <path d="M5,0H68a32,32,0,0,1,32,32V95a5,5,0,0,1-5,5H32A32,32,0,0,1,0,68V5A5,5,0,0,1,5,0Z" stroke="none"/>
          <path d="M5,1H68A31,31,0,0,1,99,32V95a4,4,0,0,1-4,4H32A31,31,0,0,1,1,68V5A4,4,0,0,1,5,1Z" fill="none"/>
        </g>
      </g>
    </g>
    <g id="buscar" transform="translate(824.052 2334)">
      <g id="Group_1204324" data-name="Group 1204324" transform="translate(0.92 0.921)">
        <path id="Path_1469297" data-name="Path 1469297" d="M0,0H4.616V6.55H0Z" transform="translate(42.154 41.284) rotate(-45)" fill="#e6e2e6"/>
        <path id="Path_1469298" data-name="Path 1469298" d="M0,0H4.616V6.55H0Z" transform="translate(42.154 41.284) rotate(-45)" fill="#ecdaec"/>
        <path id="Path_1469299" data-name="Path 1469299" d="M0,0H2.2V6.55H0Z" transform="translate(42.154 41.284) rotate(-45)" fill="#e2cbe2"/>
        <path id="Path_1469300" data-name="Path 1469300" d="M8,9.727A1.727,1.727,0,0,1,9.727,8H38.784l10.7,10.7V63.365a1.727,1.727,0,0,1-1.727,1.727H9.727A1.727,1.727,0,0,1,8,63.365Z" transform="translate(-8 -8)" fill="#f9f6f6"/>
        <path id="Path_1469301" data-name="Path 1469301" d="M47.755,472.727H9.727A1.727,1.727,0,0,1,8,471v2.072A1.727,1.727,0,0,0,9.727,474.8H47.755a1.727,1.727,0,0,0,1.727-1.727V471A1.727,1.727,0,0,1,47.755,472.727Z" transform="translate(-8 -417.707)" fill="#ecdaec"/>
        <g id="Group_1204322" data-name="Group 1204322" transform="translate(20.886)">
          <path id="Path_1469302" data-name="Path 1469302" d="M277.172,18.7h8.971L275.445,8v8.971A1.727,1.727,0,0,0,277.172,18.7Z" transform="translate(-265.547 -8)" fill="#e2cbe2"/>
          <path id="Path_1469303" data-name="Path 1469303" d="M277.172,18.7h8.971L275.445,8v8.971A1.727,1.727,0,0,0,277.172,18.7Z" transform="translate(-265.547 -8)" fill="#e2cbe2"/>
          <circle id="Ellipse_12479" data-name="Ellipse 12479" cx="14.329" cy="14.329" r="14.329" transform="translate(0 16.742)" fill="#e2cbe2"/>
        </g>
        <path id="Path_1469304" data-name="Path 1469304" d="M213.915,278.034a14.329,14.329,0,0,1-24.423-9.1,14.329,14.329,0,1,0,28.583,0A14.273,14.273,0,0,1,213.915,278.034Z" transform="translate(-168.568 -238.903)" fill="#dab9d8"/>
        <circle id="Ellipse_12480" data-name="Ellipse 12480" cx="10.375" cy="10.375" r="10.375" transform="translate(24.84 20.696)" fill="#ffe27a"/>
        <path id="Path_1469305" data-name="Path 1469305" d="M241.523,275.237a10.374,10.374,0,0,1-17.658-6.3,10.374,10.374,0,1,0,20.644,0A10.33,10.33,0,0,1,241.523,275.237Z" transform="translate(-198.973 -238.902)" fill="#f9cf58"/>
        <path id="Path_1469306" data-name="Path 1469306" d="M273.624,251.531a1.808,1.808,0,0,1-1.264-.513l-2.381-2.315a1.814,1.814,0,0,1,2.529-2.6l1.082,1.052,3.251-3.333a1.814,1.814,0,0,1,2.6,2.533l-4.515,4.63a1.808,1.808,0,0,1-1.3.548Z" transform="translate(-239.338 -216.192)" fill="#98db7c"/>
        <path id="Path_1469307" data-name="Path 1469307" d="M279.449,250.256l-4.515,4.63a1.814,1.814,0,0,1-2.563.034l-2.381-2.315a1.826,1.826,0,0,1-.223-.263,1.813,1.813,0,0,0,.223,2.335l2.381,2.315a1.814,1.814,0,0,0,2.563-.034l4.515-4.63a1.814,1.814,0,0,0,.189-2.3A1.822,1.822,0,0,1,279.449,250.256Z" transform="translate(-239.348 -222.166)" fill="#82d361"/>
        <path id="Path_1469308" data-name="Path 1469308" d="M413.5,372.946l-4.552,4.552,5.446,5.446a3.219,3.219,0,0,0,4.552-4.552Z" transform="translate(-362.795 -330.939)" fill="#ff4755"/>
        <path id="Path_1469309" data-name="Path 1469309" d="M415.945,404.438l-5.445-5.445-1.554,1.554,5.446,5.446a3.221,3.221,0,0,0,5.194-.917A3.22,3.22,0,0,1,415.945,404.438Z" transform="translate(-362.795 -353.988)" fill="#fc2b3a"/>
        <g id="Group_1204323" data-name="Group 1204323" transform="translate(5.903 15.889)">
          <path id="Path_1469310" data-name="Path 1469310" d="M64.13,151.951H60.354a1.068,1.068,0,0,1-1.068-1.068v-3.777a1.068,1.068,0,0,1,1.068-1.068h3.777a1.068,1.068,0,0,1,1.068,1.068v3.777A1.068,1.068,0,0,1,64.13,151.951Z" transform="translate(-59.286 -146.039)" fill="#98db7c"/>
          <path id="Path_1469311" data-name="Path 1469311" d="M64.13,257.113H60.354a1.068,1.068,0,0,1-1.068-1.068v-3.777a1.068,1.068,0,0,1,1.068-1.068h3.777a1.068,1.068,0,0,1,1.068,1.068v3.777A1.068,1.068,0,0,1,64.13,257.113Z" transform="translate(-59.286 -239.096)" fill="#98db7c"/>
          <path id="Path_1469312" data-name="Path 1469312" d="M64.13,364.41H60.354a1.068,1.068,0,0,1-1.068-1.068v-3.777a1.068,1.068,0,0,1,1.068-1.068h3.777a1.068,1.068,0,0,1,1.068,1.068v3.777A1.068,1.068,0,0,1,64.13,364.41Z" transform="translate(-59.286 -334.043)" fill="#98db7c"/>
        </g>
        <path id="Path_1469313" data-name="Path 1469313" d="M64.13,171.2H60.354a1.068,1.068,0,0,1-1.068-1.068V172.2a1.068,1.068,0,0,0,1.068,1.068h3.777A1.068,1.068,0,0,0,65.2,172.2v-2.072A1.068,1.068,0,0,1,64.13,171.2Z" transform="translate(-53.383 -151.466)" fill="#82d361"/>
        <path id="Path_1469314" data-name="Path 1469314" d="M64.13,276.357H60.354a1.068,1.068,0,0,1-1.068-1.068v2.072a1.068,1.068,0,0,0,1.068,1.068h3.777a1.068,1.068,0,0,0,1.068-1.068v-2.072A1.068,1.068,0,0,1,64.13,276.357Z" transform="translate(-53.383 -244.523)" fill="#82d361"/>
        <path id="Path_1469315" data-name="Path 1469315" d="M64.13,383.654H60.354a1.068,1.068,0,0,1-1.068-1.068v2.072a1.068,1.068,0,0,0,1.068,1.068h3.777a1.068,1.068,0,0,0,1.068-1.068v-2.072A1.068,1.068,0,0,1,64.13,383.654Z" transform="translate(-53.383 -339.469)" fill="#82d361"/>
        <path id="Path_1469316" data-name="Path 1469316" d="M275.445,85.937v2.072a1.727,1.727,0,0,0,1.727,1.727h8.971V87.664h-8.971A1.727,1.727,0,0,1,275.445,85.937Z" transform="translate(-244.661 -76.966)" fill="#ecdaec"/>
      </g>
      <g id="Group_1204325" data-name="Group 1204325" transform="translate(-0.001 0)">
        <path id="Path_1469317" data-name="Path 1469317" d="M267.055,245.747a2.663,2.663,0,0,0,1.921-.81L273.5,240.3a2.683,2.683,0,0,0-3.842-3.746L267,239.274l-.465-.452a2.683,2.683,0,1,0-3.741,3.847l2.386,2.32A2.669,2.669,0,0,0,267.055,245.747Zm-3.069-5.666a.954.954,0,0,1,1.347-.019l1.084,1.054a.865.865,0,0,0,1.222-.016l3.257-3.34a.953.953,0,0,1,1.364,1.33l-4.525,4.639a.957.957,0,0,1-1.346.018l-2.386-2.32A.954.954,0,0,1,263.986,240.081Z" transform="translate(-231.832 -208.609)"/>
        <path id="Path_1469318" data-name="Path 1469318" d="M219.86,197.189a.865.865,0,0,0-1.381,1.042,11.4,11.4,0,0,0,1.036,1.19,11.253,11.253,0,1,0-2.764-4.529.865.865,0,0,0,1.648-.526,9.538,9.538,0,1,1,2.34,3.832,9.689,9.689,0,0,1-.878-1.009Z" transform="translate(-191.324 -159.462)"/>
        <path id="Path_1469319" data-name="Path 1469319" d="M57.742,47.8l-5.458-5.457a.865.865,0,0,0-1.224,0l-.033.033-2.1-2.1a15.2,15.2,0,0,0,2.419-7.316.865.865,0,0,0-1.727-.109A13.482,13.482,0,0,1,36.166,45.482h-.082A13.486,13.486,0,1,1,49.434,29.6a.865.865,0,0,0,1.7-.305A15.233,15.233,0,0,0,43.3,18.555V11.583a.876.876,0,0,0-.253-.612L32.324.253A.877.877,0,0,0,31.713,0H2.594A2.6,2.6,0,0,0,0,2.595v7.27a.865.865,0,0,0,1.73,0V2.595a.866.866,0,0,1,.865-.865H30.848V9.853a2.6,2.6,0,0,0,2.6,2.595h8.125v5.323a15.286,15.286,0,0,0-5.25-.987l-.026,0H16.978a.865.865,0,1,0,0,1.73H29.09a15.163,15.163,0,0,0-3.451,2.478H16.978a.865.865,0,1,0,0,1.73h7.1A15.057,15.057,0,0,0,21.243,28.9H16.978a.865.865,0,1,0,0,1.73H20.99q-.06.676-.061,1.364,0,.564.041,1.12H16.978a.865.865,0,1,0,0,1.73H21.2a15.056,15.056,0,0,0,2.889,6.431H16.978a.865.865,0,1,0,0,1.73h8.664a15.161,15.161,0,0,0,3.445,2.474H16.977a.865.865,0,1,0,0,1.73H36.153a15.3,15.3,0,0,0,5.415-.989V56.339a.866.866,0,0,1-.865.865H2.594a.866.866,0,0,1-.865-.865V13.326a.865.865,0,0,0-1.73,0V56.339a2.6,2.6,0,0,0,2.6,2.594H40.7a2.6,2.6,0,0,0,2.6-2.595v-10.9q.579-.307,1.136-.668l2.1,2.1a.873.873,0,0,0-.033,1.257l5.458,5.457A4.09,4.09,0,0,0,57.742,47.8Zm-24.3-37.081a.866.866,0,0,1-.865-.865v-6.9l7.766,7.765Zm12.4,33.016q.554-.458,1.073-.975t.975-1.073L49.8,43.6l-2.048,2.047ZM56.519,52.36a2.372,2.372,0,0,1-3.338,0l-4.846-4.845,3.338-3.338,4.846,4.845A2.371,2.371,0,0,1,56.519,52.36Z" transform="translate(0.001 0)"/>
        <path id="Path_1469320" data-name="Path 1469320" d="M53.328,145.964h3.785a1.937,1.937,0,0,0,1.935-1.935v-3.784a1.937,1.937,0,0,0-1.935-1.935H53.328a1.937,1.937,0,0,0-1.935,1.935v3.784a1.937,1.937,0,0,0,1.935,1.935Zm-.2-5.719a.205.205,0,0,1,.2-.2h3.785a.205.205,0,0,1,.2.2v3.784a.205.205,0,0,1-.2.2H53.328a.205.205,0,0,1-.2-.2Z" transform="translate(-45.477 -122.39)"/>
        <path id="Path_1469321" data-name="Path 1469321" d="M51.393,249.4a1.937,1.937,0,0,0,1.935,1.935h3.785a1.937,1.937,0,0,0,1.935-1.935v-3.784a1.937,1.937,0,0,0-1.935-1.935H53.328a1.937,1.937,0,0,0-1.935,1.935Zm1.73-3.784a.205.205,0,0,1,.2-.2h3.785a.205.205,0,0,1,.2.2V249.4a.205.205,0,0,1-.2.2H53.328a.2.2,0,0,1-.2-.2Z" transform="translate(-45.477 -215.63)"/>
        <path id="Path_1469322" data-name="Path 1469322" d="M51.393,356.9a1.937,1.937,0,0,0,1.935,1.935h3.785a1.937,1.937,0,0,0,1.935-1.935V353.12a1.937,1.937,0,0,0-1.935-1.935H53.328a1.937,1.937,0,0,0-1.935,1.935Zm1.73-3.784a.205.205,0,0,1,.2-.2h3.785a.205.205,0,0,1,.2.2V356.9a.205.205,0,0,1-.2.2H53.328a.205.205,0,0,1-.2-.2Z" transform="translate(-45.477 -310.762)"/>
      </g>
    </g>
  </g>
</svg>
