<svg xmlns="http://www.w3.org/2000/svg" xmlns:xlink="http://www.w3.org/1999/xlink" width="118" height="118" viewBox="0 0 118 118">
  <defs>
    <filter id="Rectangle_411831" x="0" y="0" width="118" height="118" filterUnits="userSpaceOnUse">
      <feOffset dy="3" input="SourceAlpha"/>
      <feGaussianBlur stdDeviation="3" result="blur"/>
      <feFlood flood-opacity="0.161"/>
      <feComposite operator="in" in2="blur"/>
      <feComposite in="SourceGraphic"/>
    </filter>
  </defs>
  <g id="Group_1204338" data-name="Group 1204338" transform="translate(-844.051 -5668)">
    <g id="Group_1203977" data-name="Group 1203977" transform="translate(517.27 1816)">
      <g transform="matrix(1, 0, 0, 1, 326.78, 3852)" filter="url(#Rectangle_411831)">
        <g id="Rectangle_411831-2" data-name="Rectangle 411831" transform="translate(9 6)" fill="#ffc94a" stroke="#fff" stroke-width="2">
          <path d="M5,0H68a32,32,0,0,1,32,32V95a5,5,0,0,1-5,5H32A32,32,0,0,1,0,68V5A5,5,0,0,1,5,0Z" stroke="none"/>
          <path d="M5,1H68A31,31,0,0,1,99,32V95a4,4,0,0,1-4,4H32A31,31,0,0,1,1,68V5A4,4,0,0,1,5,1Z" fill="none"/>
        </g>
      </g>
    </g>
    <g id="documento" transform="translate(816.471 5674)">
      <path id="Path_1469376" data-name="Path 1469376" d="M109.059,21.04h3.052a2.741,2.741,0,0,1,1.94.808l0,0a2.741,2.741,0,0,1,.807,1.942v57.88a2.754,2.754,0,0,1-2.748,2.748H67.128a2.754,2.754,0,0,1-2.748-2.748V79.377H61.328a2.754,2.754,0,0,1-2.748-2.748V25.741a.914.914,0,0,1,.26-.638l7.237-8.769a.905.905,0,0,1,.7-.331v0h39.533a2.742,2.742,0,0,1,1.94.808l0,0a2.741,2.741,0,0,1,.807,1.942Z" fill="#121209" fill-rule="evenodd"/>
      <path id="Path_1469377" data-name="Path 1469377" d="M79.1,61.726a.911.911,0,1,1,0-1.821H92.538a.9.9,0,0,1,.125-.318l1.6-2.538a3.915,3.915,0,0,1,5.387-1.226l3.788,2.383c.568-.277,1.2-.428,1.519-.935l1.757-2.774H79.1a.911.911,0,1,1,0-1.821h28.763l3.425-5.408H88.235a.91.91,0,1,1,0-1.821h24.2a1.561,1.561,0,0,0,.329-1.349c-.548-3.069,2.191-5.4,5.422-4.63V29.709a.924.924,0,0,0-.273-.654l0,0a.921.921,0,0,0-.656-.271h-38.4v6.081a2.754,2.754,0,0,1-2.748,2.748h-4.76V87.589a.932.932,0,0,0,.926.926h44.984a.932.932,0,0,0,.926-.926V49.495l-7.3,11.526a3.2,3.2,0,0,0-.2,1.752l3.9,2.453a3.916,3.916,0,0,1,1.226,5.387l-1.6,2.538a.908.908,0,0,1-1.252.285l-1.187-.747-.859,1.362a2.6,2.6,0,0,1-3.545.487l-13-8.182a2.586,2.586,0,0,1-1.049-3.485l.72-1.145Zm7.649-21.687a.911.911,0,1,1,0-1.821h24.616a.911.911,0,1,1,0,1.821ZM76.91,76.413a9.279,9.279,0,1,1,9.279,9.279,9.279,9.279,0,0,1-9.279-9.279ZM79.1,47.268a.91.91,0,1,1,0-1.821h5.044a.91.91,0,1,1,0,1.821Z" transform="translate(-10.954 -10.96)" fill="#e6e4e5" fill-rule="evenodd"/>
      <path id="Path_1469378" data-name="Path 1469378" d="M178.213,59.9h5.3a.9.9,0,0,1,.125-.318l1.6-2.538a3.915,3.915,0,0,1,5.387-1.226l3.788,2.383c.568-.277,1.2-.428,1.519-.935l1.757-2.774H179.588a44.414,44.414,0,0,0-1.376,5.408Zm2.006-7.229h18.615l3.425-5.408h-19.61a44.492,44.492,0,0,0-2.43,5.408Zm3.454-7.229h19.739a1.561,1.561,0,0,0,.329-1.349c-.548-3.069,2.191-5.4,5.422-4.63V29.709a.924.924,0,0,0-.273-.654l0,0a.921.921,0,0,0-.656-.271h-7.157a44.923,44.923,0,0,0-12.073,9.436h13.329a.911.911,0,1,1,0,1.821H187.444a44.907,44.907,0,0,0-3.772,5.408Zm-1.388,43.069q-.874-1.717-1.6-3.517a9.28,9.28,0,0,0-3.235-17.861,44.947,44.947,0,0,1,.46-5.413h7.109l-.72,1.145a2.586,2.586,0,0,0,1.049,3.485l13,8.182a2.6,2.6,0,0,0,3.545-.487l.859-1.361,1.187.747a.908.908,0,0,0,1.252-.285l1.6-2.538a3.916,3.916,0,0,0-1.226-5.387l-3.9-2.453a3.2,3.2,0,0,1,.2-1.752l7.3-11.526V87.589a.932.932,0,0,1-.926.926Z" transform="translate(-101.925 -10.96)" fill="#f6f8fc" fill-rule="evenodd"/>
      <path id="Path_1469379" data-name="Path 1469379" d="M235.214,229.912a.91.91,0,0,1,.659.415l17.626,11.09,1.113-1.77a2.1,2.1,0,0,0-.657-2.883l-14.946-9.4a2.1,2.1,0,0,0-2.883.657l-1.113,1.769Z" transform="translate(-151.286 -180.961)" fill="#c08f3d" fill-rule="evenodd"/>
      <path id="Path_1469380" data-name="Path 1469380" d="M317.922,120.9a.912.912,0,0,1-.293.462l-7.084,11.185a3.024,3.024,0,0,1-1.214,1.126l3.585,2.256a3,3,0,0,1,.5-1.566l7.622-12.033a3.288,3.288,0,0,1,2-1.451,2.173,2.173,0,0,0,1.52-2.9A3.614,3.614,0,0,0,323,116.048v0c-2.187-1.381-4.8-.244-4.387,2.043a3.323,3.323,0,0,1-.452,2.426Z" transform="translate(-215.01 -85.271)" fill="#c08f3d" fill-rule="evenodd"/>
      <path id="Path_1469381" data-name="Path 1469381" d="M112.045,120.655v2.292a.932.932,0,0,0,.926.926h44.984a.932.932,0,0,0,.926-.926V65.067a.925.925,0,0,0-.273-.654l0,0a.92.92,0,0,0-.656-.271H154.9v6.44a5.451,5.451,0,0,1,2.216,2.858,3.98,3.98,0,0,1-2.216,5.016v39.452a2.754,2.754,0,0,1-2.748,2.748Z" transform="translate(-45.844 -41.278)" fill="#e6e4e5" fill-rule="evenodd"/>
      <path id="Path_1469382" data-name="Path 1469382" d="M78.491,43.911h3.743a.932.932,0,0,0,.927-.926V38.252Z" transform="translate(-17.073 -19.08)" fill="#e6e4e5" fill-rule="evenodd"/>
      <path id="Path_1469383" data-name="Path 1469383" d="M251.345,274.876l-14.575-9.17-.809,1.286c-.174.277.121.755.48.982l13,8.182c.355.223.918.284,1.092.007Z" transform="translate(-152.054 -214.114)" fill="#c08f3d" fill-rule="evenodd"/>
      <path id="Path_1469384" data-name="Path 1469384" d="M125.288,312.809a7.458,7.458,0,1,0,10.548,0A7.458,7.458,0,0,0,125.288,312.809Zm.294,6.173a.909.909,0,1,1,1.124-1.43l2.925,2.3,4.661-5.384a.908.908,0,1,1,1.373,1.188l-5.195,6a.912.912,0,0,1-1.283.161Z" transform="translate(-55.327 -252.63)" fill="#178b4b" fill-rule="evenodd"/>
      <path id="Path_1469385" data-name="Path 1469385" d="M180.005,325a7.459,7.459,0,0,0-2.591-14.336,45.016,45.016,0,0,0,.665,7.052l2.783-3.214a.908.908,0,0,1,1.373,1.188l-3.7,4.276A44.426,44.426,0,0,0,180.005,325Z" transform="translate(-101.896 -252.666)" fill="#3cad66" fill-rule="evenodd"/>
    </g>
  </g>
</svg>
