<svg xmlns="http://www.w3.org/2000/svg" xmlns:xlink="http://www.w3.org/1999/xlink" width="118" height="118" viewBox="0 0 118 118">
  <defs>
    <filter id="Rectangle_411831" x="0" y="0" width="118" height="118" filterUnits="userSpaceOnUse">
      <feOffset dy="3" input="SourceAlpha"/>
      <feGaussianBlur stdDeviation="3" result="blur"/>
      <feFlood flood-opacity="0.161"/>
      <feComposite operator="in" in2="blur"/>
      <feComposite in="SourceGraphic"/>
    </filter>
  </defs>
  <g id="Group_1204336" data-name="Group 1204336" transform="translate(5817 9301)">
    <g id="Group_1203743" data-name="Group 1203743" transform="translate(-6143.781 -13153)">
      <g transform="matrix(1, 0, 0, 1, 326.78, 3852)" filter="url(#Rectangle_411831)">
        <g id="Rectangle_411831-2" data-name="Rectangle 411831" transform="translate(9 6)" fill="#ffc94a" stroke="#fff" stroke-width="2">
          <path d="M5,0H68a32,32,0,0,1,32,32V95a5,5,0,0,1-5,5H32A32,32,0,0,1,0,68V5A5,5,0,0,1,5,0Z" stroke="none"/>
          <path d="M5,1H68A31,31,0,0,1,99,32V95a4,4,0,0,1-4,4H32A31,31,0,0,1,1,68V5A4,4,0,0,1,5,1Z" fill="none"/>
        </g>
      </g>
    </g>
    <g id="_11-rain" data-name="11-rain" transform="translate(-5788 -9274.999)">
      <path id="Path_1469365" data-name="Path 1469365" d="M58.47,23.489A12.41,12.41,0,0,0,44.329,11.116a17.481,17.481,0,0,0-33.334,7.375c0,.034,0,.066,0,.1A8.741,8.741,0,1,0,9.745,35.982h37.48v-.063A12.494,12.494,0,0,0,58.47,23.489Z" transform="translate(0.249 0.249)" fill="#6ee1ef"/>
      <g id="Group_1204335" data-name="Group 1204335" transform="translate(1.249 1.25)">
        <path id="Path_1469366" data-name="Path 1469366" d="M17.242,20.99A21.228,21.228,0,0,1,30.894,1.171a17.465,17.465,0,0,0-19.9,17.32c0,.034,0,.066,0,.1A8.741,8.741,0,1,0,9.745,35.982H23.439a21.17,21.17,0,0,1-6.2-14.992Z" transform="translate(-1 -1)" fill="#5fb1d7"/>
        <path id="Path_1469367" data-name="Path 1469367" d="M39.5,32.5c0,2.76-.988,5-3.748,5S32,35.256,32,32.5,35.748,25,35.748,25,39.5,29.736,39.5,32.5Z" transform="translate(6.73 4.984)" fill="#5fb1d7"/>
        <path id="Path_1469368" data-name="Path 1469368" d="M15,43a2.5,2.5,0,1,1-5,0c0-1.38,2.5-5,2.5-5S15,41.617,15,43Z" transform="translate(1.244 8.226)" fill="#5fb1d7"/>
        <path id="Path_1469369" data-name="Path 1469369" d="M30,46a2.5,2.5,0,0,1-5,0c0-1.38,2.5-5,2.5-5S30,44.617,30,46Z" transform="translate(4.984 8.974)" fill="#5fb1d7"/>
        <path id="Path_1469370" data-name="Path 1469370" d="M23,37a2.5,2.5,0,0,1-5,0c0-1.38,2.5-5,2.5-5S23,35.617,23,37Z" transform="translate(3.239 6.73)" fill="#5fb1d7"/>
      </g>
      <path id="Path_1469371" data-name="Path 1469371" d="M45.311,10.031a18.723,18.723,0,0,0-35.265,7.46C10.029,17.491,0,17.929,0,27.486a10.006,10.006,0,0,0,9.995,9.995H36.231a1.249,1.249,0,0,0,0-2.5H9.995a7.5,7.5,0,1,1,0-14.992A9.107,9.107,0,0,1,16.466,23.2a1.4,1.4,0,0,0,1.74.31,1.246,1.246,0,0,0,.31-1.74,10.371,10.371,0,0,0-5.975-3.963,16.208,16.208,0,0,1,30.14-7.342,13.629,13.629,0,0,0-7.45,5.023,1.215,1.215,0,0,0,.249,1.75,1.35,1.35,0,0,0,1.75-.249,10.954,10.954,0,0,1,9-4.5,11.244,11.244,0,0,1,6.746,20.24,1.25,1.25,0,1,0,1.5,2,13.638,13.638,0,0,0,5.5-10.994C59.969,10.454,45.63,10.007,45.311,10.031Z" transform="translate(0 0)"/>
      <path id="Path_1469372" data-name="Path 1469372" d="M35.018,24.469C34.607,24.989,31,29.635,31,32.74c0,3.912,1.868,6.247,5,6.247s5-2.335,5-6.247c0-3.105-3.607-7.752-4.018-8.271a1.293,1.293,0,0,0-1.959,0ZM36,36.489c-.618,0-2.5,0-2.5-3.748,0-1.315,1.292-3.622,2.5-5.384,1.207,1.759,2.5,4.066,2.5,5.384C38.5,36.489,36.615,36.489,36,36.489Z" transform="translate(7.73 5.99)"/>
      <path id="Path_1469373" data-name="Path 1469373" d="M11.72,37.533C10.9,38.717,9,41.643,9,43.24a3.748,3.748,0,1,0,7.5,0c0-1.6-1.9-4.523-2.72-5.707a1.3,1.3,0,0,0-2.056,0Zm1.028,6.957A1.25,1.25,0,0,1,11.5,43.242a9.355,9.355,0,0,1,1.249-2.683A9.343,9.343,0,0,1,14,43.242,1.251,1.251,0,0,1,12.748,44.49Z" transform="translate(2.244 9.233)"/>
      <path id="Path_1469374" data-name="Path 1469374" d="M26.72,40.533C25.9,41.717,24,44.643,24,46.24a3.748,3.748,0,0,0,7.5,0c0-1.6-1.9-4.523-2.72-5.707a1.3,1.3,0,0,0-2.056,0Zm1.028,6.957A1.25,1.25,0,0,1,26.5,46.242a9.355,9.355,0,0,1,1.249-2.683A9.343,9.343,0,0,1,29,46.242,1.251,1.251,0,0,1,27.748,47.49Z" transform="translate(5.984 9.981)"/>
      <path id="Path_1469375" data-name="Path 1469375" d="M19.72,31.533C18.9,32.717,17,35.643,17,37.24a3.748,3.748,0,0,0,7.5,0c0-1.6-1.9-4.523-2.72-5.707a1.3,1.3,0,0,0-2.056,0Zm1.028,6.957A1.25,1.25,0,0,1,19.5,37.242a9.355,9.355,0,0,1,1.249-2.683A9.344,9.344,0,0,1,22,37.242,1.251,1.251,0,0,1,20.748,38.49Z" transform="translate(4.239 7.737)"/>
    </g>
  </g>
</svg>
