<svg xmlns="http://www.w3.org/2000/svg" xmlns:xlink="http://www.w3.org/1999/xlink" width="118" height="118" viewBox="0 0 118 118">
  <defs>
    <filter id="Rectangle_411831" x="0" y="0" width="118" height="118" filterUnits="userSpaceOnUse">
      <feOffset dy="3" input="SourceAlpha"/>
      <feGaussianBlur stdDeviation="3" result="blur"/>
      <feFlood flood-opacity="0.161"/>
      <feComposite operator="in" in2="blur"/>
      <feComposite in="SourceGraphic"/>
    </filter>
  </defs>
  <g id="Group_1204334" data-name="Group 1204334" transform="translate(6141 9301)">
    <g id="Group_1203742" data-name="Group 1203742" transform="translate(-6467.781 -13153)">
      <g transform="matrix(1, 0, 0, 1, 326.78, 3852)" filter="url(#Rectangle_411831)">
        <g id="Rectangle_411831-2" data-name="Rectangle 411831" transform="translate(9 6)" fill="#ffc94a" stroke="#fff" stroke-width="2">
          <path d="M5,0H68a32,32,0,0,1,32,32V95a5,5,0,0,1-5,5H32A32,32,0,0,1,0,68V5A5,5,0,0,1,5,0Z" stroke="none"/>
          <path d="M5,1H68A31,31,0,0,1,99,32V95a4,4,0,0,1-4,4H32A31,31,0,0,1,1,68V5A4,4,0,0,1,5,1Z" fill="none"/>
        </g>
      </g>
    </g>
    <g id="gallina_3_" data-name="gallina (3)" transform="translate(-6116.606 -9280.269)">
      <g id="Group_1204332" data-name="Group 1204332" transform="translate(4.41 2.06)">
        <path id="Path_1469353" data-name="Path 1469353" d="M8.339,10.092S3.547,10.83,4.478,14.5A6.545,6.545,0,0,1,11.4,12.659a2.667,2.667,0,0,0-3.059-2.567Z" transform="translate(-4.358 -1.449)" fill="#ffc040"/>
        <path id="Path_1469354" data-name="Path 1469354" d="M8.195,10.651A7.536,7.536,0,0,0,10.5,8.545c.813-1.262,4.556-1.765,7.08-.652,2.278.995.61-3.936.193-4.909a.117.117,0,0,0-.193-.032c-.449.471-1.978,1.946-2.62.663-.759-1.508-1.069-2.31-2.428-.791S10.312,6.128,9.714,4.9,8.195,6.791,8.195,6.791A2.626,2.626,0,0,0,8.195,10.651Z" transform="translate(-4.15 -2.008)" fill="#ff7146"/>
        <path id="Path_1469355" data-name="Path 1469355" d="M8.08,10.1h.075A.588.588,0,0,1,8.08,10Z" transform="translate(-4.099 -1.453)" fill="#0d4353"/>
        <path id="Path_1469356" data-name="Path 1469356" d="M63.442,32.971c4.438-5.123-.193-7.9-.193-7.9,2.224-6.374-2.171-5.3-2.171-5.3-3.048-6.46-6.77.171-6.951.492h-.021s-7.208,12.8-19.453,6.791c0,0-6.085-2.374-10.352-11.55-2.085-4.47-4.684-6.77-6.8-7.967-2.524-1.091-6.224-.578-7.048.674a7.705,7.705,0,0,1-2.31,2.107,2.668,2.668,0,0,1,2.973,2.567H11.1a11.122,11.122,0,0,1,.823,1.134,1.31,1.31,0,0,1-.267,1.818,2.74,2.74,0,0,1-.545.374c.995,2.321,1.679,5.839.941,10.973-1.679,11.689.492,17.978,7.347,22.32a33.446,33.446,0,0,0,3.433,1.893,21.25,21.25,0,0,1,7.775,6.6c2.15,2.92,4.385,2.535,5.711,1.882a7.306,7.306,0,0,1,5.315-.6c.021.011.043.011.064.021s.011,0,.021.011a4.012,4.012,0,0,0,4.78-1.893,13,13,0,0,1,4.93-4.524,25.5,25.5,0,0,0,5.208-3.39,17,17,0,0,0,1.989-2.47,20.54,20.54,0,0,0,2.93-6.588,1.869,1.869,0,0,0,2.043-.973c3.1-4.577-.16-6.492-.16-6.492Z" transform="translate(-4.095 -1.666)" fill="#e1d9e1"/>
        <path id="Path_1469357" data-name="Path 1469357" d="M11.959,13.643a9.675,9.675,0,0,0-.823-1.134,7.2,7.2,0,0,0-3.176-.2c-.214,1.059-.428,3.347,1.487,3.764a2.542,2.542,0,0,0,2.235-.61A1.292,1.292,0,0,0,11.959,13.643Z" transform="translate(-4.117 -1.299)" fill="#ff7146"/>
        <path id="Path_1469358" data-name="Path 1469358" d="M31.295,56.07c-1.69,2.15-3.968,4.706-6.107,5.9-.3.171-7.133,1.765-5.807,2.577h9.144a2.421,2.421,0,0,0,2.342-2,52.072,52.072,0,0,1,3.23-5.657A3.823,3.823,0,0,1,31.295,56.07Z" transform="translate(-3.326 1.747)" fill="#ffc040"/>
        <path id="Path_1469359" data-name="Path 1469359" d="M40.209,55.917c-.011,0-.011,0-.021-.011s-.043-.011-.064-.021a5.729,5.729,0,0,0-1.251-.235A22.36,22.36,0,0,1,33.3,60.88c-.128.075-1.412.4-2.759.813a5.445,5.445,0,0,0-.406.877,2.581,2.581,0,0,1-.374.9h6.877a2.421,2.421,0,0,0,2.342-2,47.406,47.406,0,0,1,3.069-5.39,3.986,3.986,0,0,1-1.839-.16Z" transform="translate(-2.594 1.718)" fill="#ffc040"/>
        <path id="Path_1469360" data-name="Path 1469360" d="M48.583,46.338c-1.23-3.6-5.9-15.753-13.571-17.368a8.025,8.025,0,0,0-5.187.759,12.432,12.432,0,0,1-7.893,1.219,4.4,4.4,0,0,0-4.043,1.059,6.763,6.763,0,0,0-1.668,7.529,8.556,8.556,0,0,0,6.812,5.754,8.122,8.122,0,0,1,4.278,2.171,2.283,2.283,0,0,0,1.807.813c1.658-.257-.449-4.3-.449-4.3s2.738,4.652,6.962,5.048a.793.793,0,0,0,.813-.6c.16-.674.107-1.936-1.208-3.893C36.669,46.455,40.573,51.2,44,50.979a.782.782,0,0,0,.684-.963c-.289-1.23-1.326-3.829-5.112-7.85.524.567,4.62,4.866,8.2,5.219a.791.791,0,0,0,.813-1.048Z" transform="translate(-3.567 -0.146)" fill="#c3b8c3"/>
      </g>
      <g id="Group_1204333" data-name="Group 1204333" transform="translate(3.607 1.268)">
        <path id="Path_1469361" data-name="Path 1469361" d="M12.821,9.16a.941.941,0,1,0,.941.941A.943.943,0,0,0,12.821,9.16Z" transform="translate(-3.032 -0.72)" fill="#0d4353"/>
        <path id="Path_1469362" data-name="Path 1469362" d="M49.394,46.133c-1.283-3.764-6.107-16.2-14.17-17.892a8.778,8.778,0,0,0-5.7.823,11.6,11.6,0,0,1-7.358,1.155,5.229,5.229,0,0,0-4.748,1.241,7.576,7.576,0,0,0-1.893,8.417,9.375,9.375,0,0,0,7.422,6.256,7.378,7.378,0,0,1,3.861,1.957A2.985,2.985,0,0,0,29.3,49.117a1.438,1.438,0,0,0,1.112-.8,2.028,2.028,0,0,0,.193-.823,8.92,8.92,0,0,0,5.005,2.385,1.566,1.566,0,0,0,1.668-1.219,4.13,4.13,0,0,0,.075-.438c1.882,1.9,4.2,3.615,6.47,3.615a2.607,2.607,0,0,0,.289-.011,1.543,1.543,0,0,0,1.134-.62,1.626,1.626,0,0,0,.278-1.326,10.759,10.759,0,0,0-1.187-2.845,9.055,9.055,0,0,0,3.422,1.2,1.552,1.552,0,0,0,1.39-.588A1.593,1.593,0,0,0,49.394,46.133Zm-9.069-4.342c-.043-.043-.075-.086-.118-.128a.8.8,0,0,0-1.134-.032.808.808,0,0,0-.043,1.134c.032.032.064.075.107.118,3.583,3.829,4.545,6.256,4.855,7.347-.064,0-.128.011-.193.011-3.059,0-6.791-4.674-7.871-6.128a.79.79,0,0,0-.642-.321.74.74,0,0,0-.46.15.8.8,0,0,0-.2,1.1c1.2,1.786,1.2,2.813,1.134,3.251-3.754-.353-6.32-4.62-6.342-4.663a.8.8,0,0,0-1.4.781,7.948,7.948,0,0,1,1.037,3.134c-.278.043-.684-.171-1.134-.6a9.094,9.094,0,0,0-4.706-2.385,7.71,7.71,0,0,1-6.192-5.24,5.967,5.967,0,0,1,1.444-6.641,3.556,3.556,0,0,1,3.337-.888,13.163,13.163,0,0,0,8.417-1.283,7.255,7.255,0,0,1,4.674-.7C42.1,31.332,46.635,43.042,47.865,46.636,45.256,46.347,41.951,43.513,40.325,41.791Z" transform="translate(-2.816 0.594)" fill="#0d4353"/>
        <path id="Path_1469363" data-name="Path 1469363" d="M33.275,32.07a5.211,5.211,0,0,0-2.224.556,17.1,17.1,0,0,1-7.326,1.8h-.011a12.114,12.114,0,0,1-2.92-.342.8.8,0,0,0-.973.588.792.792,0,0,0,.588.963,14.087,14.087,0,0,0,3.294.385h.011a18.83,18.83,0,0,0,8.021-1.957,3.605,3.605,0,0,1,1.519-.4.808.808,0,0,0,.8-.8A.774.774,0,0,0,33.275,32.07Z" transform="translate(-2.482 0.871)" fill="#0d4353"/>
        <path id="Path_1469364" data-name="Path 1469364" d="M64.869,33.258a6.409,6.409,0,0,0,1.551-4.877,5.388,5.388,0,0,0-1.914-3.219c.738-2.353.642-3.989-.267-4.994a2.91,2.91,0,0,0-2.385-.866c-.952-1.786-2.107-2.716-3.422-2.749h-.086c-2.278,0-4.032,2.716-4.524,3.572a1.564,1.564,0,0,0-.1.139c-.278.492-6.984,12.063-18.459,6.438-.053-.021-5.861-2.417-9.925-11.133a18.813,18.813,0,0,0-5.754-7.422c.8-1.626-.791-5.369-.8-5.411A.915.915,0,0,0,18.1,2.19a.931.931,0,0,0-.834.278c-.684.717-1.187.941-1.326.856l-.075-.16c-.492-.984-.877-1.765-1.722-1.882A2.346,2.346,0,0,0,12.209,2.35c-.353.4-.674.8-.963,1.176-.214.267-.481.61-.684.834a1.055,1.055,0,0,0-.984-.513c-.3.021-1.069.086-1.829,2.567a3.375,3.375,0,0,0-.588,3.775A5.586,5.586,0,0,0,4.2,12.221a3.748,3.748,0,0,0-.449,3.091.8.8,0,0,0,.61.588.936.936,0,0,0,.171.021.812.812,0,0,0,.631-.3,5.406,5.406,0,0,1,2.182-1.476c-.064,1.882.727,3.155,2.235,3.486a2.919,2.919,0,0,0,.684.075,3.017,3.017,0,0,0,.7-.086,20.568,20.568,0,0,1,.62,9.85c-1.711,11.871.524,18.566,7.711,23.111A33.543,33.543,0,0,0,22.8,52.519a20.464,20.464,0,0,1,7.476,6.353,8.685,8.685,0,0,0,.984,1.123,21.615,21.615,0,0,1-5.315,5.069c-.107.043-.406.128-.813.235-4.289,1.2-5.5,1.786-5.625,2.706a1.078,1.078,0,0,0,.545,1.059.819.819,0,0,0,.417.118h9.144a3.1,3.1,0,0,0,2.385-1.1h6.46a3.208,3.208,0,0,0,3.123-2.62A40.8,40.8,0,0,1,44.357,60.6a5.268,5.268,0,0,0,3.1-2.321,12.251,12.251,0,0,1,4.62-4.256,26.888,26.888,0,0,0,5.411-3.54,17.458,17.458,0,0,0,2.1-2.6A21.256,21.256,0,0,0,62.463,41.7a2.788,2.788,0,0,0,2.107-1.369,6.5,6.5,0,0,0,1.369-5.059,4.1,4.1,0,0,0-1.069-2.011ZM8.99,7.441a.772.772,0,0,0,.235-.374,10.327,10.327,0,0,1,.449-1.208,1.2,1.2,0,0,0,.642.289c.856.086,1.422-.674,2.182-1.647.267-.353.567-.727.9-1.091a3.766,3.766,0,0,1,.524-.5,8.839,8.839,0,0,1,.524.952l.075.16a1.638,1.638,0,0,0,1.219.941,2.629,2.629,0,0,0,1.925-.7,9.178,9.178,0,0,1,.567,2.952c-.011-.011-.032-.011-.043-.021-2.759-1.208-6.994-.717-8.074.952A6.036,6.036,0,0,1,8.658,9.6a1.728,1.728,0,0,1,.332-2.16ZM5.535,13.109A4.917,4.917,0,0,1,8.5,11.494a1.83,1.83,0,0,1,1.422.31,1.584,1.584,0,0,1,.353.406,7.273,7.273,0,0,0-4.855,1.08C5.46,13.237,5.492,13.173,5.535,13.109Zm4.374,2.93c-.973-.214-1.059-1.337-.952-2.257a6.483,6.483,0,0,1,2.011.193c.182.235.385.513.61.856.182.278.2.471-.139.791a1.722,1.722,0,0,1-.321.225c-.011,0-.011.011-.021.011a1.7,1.7,0,0,1-1.187.182Zm19.7,51.516H23.117c.663-.214,1.476-.46,2.438-.727a4.674,4.674,0,0,0,1.1-.353,22.616,22.616,0,0,0,5.882-5.529,4.988,4.988,0,0,0,1.262.481c-2.492,4.1-2.588,4.535-2.631,4.77a1.616,1.616,0,0,1-1.561,1.358Zm6.075-6.128a5.814,5.814,0,0,0,1.3-.438,8.088,8.088,0,0,1,1.872-.642A17.429,17.429,0,0,1,34.8,63.94c-.107.043-.385.118-.759.225.406-.7.941-1.593,1.647-2.738ZM40.015,65.1a1.616,1.616,0,0,1-1.561,1.358h-5.69c.021-.064.075-.16.139-.3.545-.16,1.08-.31,1.5-.428a6.7,6.7,0,0,0,1.112-.353,21.548,21.548,0,0,0,5.508-5.08,6.339,6.339,0,0,1,.781.171,3.81,3.81,0,0,0,.674.15c-2.321,3.818-2.406,4.246-2.46,4.481ZM63.339,34.049a2.547,2.547,0,0,1,1.048,1.583,5.118,5.118,0,0,1-1.134,3.775c-.471.7-.877.717-1.208.642a.812.812,0,0,0-.952.588,19.768,19.768,0,0,1-2.823,6.331,16.562,16.562,0,0,1-1.839,2.31,24.6,24.6,0,0,1-5.048,3.283,13.815,13.815,0,0,0-5.24,4.791A3.217,3.217,0,0,1,42.175,58.9a8.105,8.105,0,0,0-5.893.642c-1.711.834-3.294.289-4.706-1.636a22.284,22.284,0,0,0-8.064-6.845,34.6,34.6,0,0,1-3.347-1.85c-6.652-4.2-8.609-10.245-6.984-21.528a21.886,21.886,0,0,0-.759-10.78,1.12,1.12,0,0,0,.118-.086,2.11,2.11,0,0,0,.406-2.845,10.455,10.455,0,0,0-.717-1.005,3.825,3.825,0,0,0-1.262-2.385,2.977,2.977,0,0,0-.631-.4A4.457,4.457,0,0,0,11.46,9.034c.492-.749,3.625-1.4,6.021-.385a16.176,16.176,0,0,1,6.427,7.582c4.353,9.347,10.534,11.85,10.727,11.924,12.031,5.9,19.507-5.486,20.416-6.962a.623.623,0,0,0,.118-.16c.449-.813,1.882-2.888,3.2-2.888h.043c.984.032,1.775,1.294,2.278,2.353a.806.806,0,0,0,.909.438c.011,0,1.016-.214,1.476.31.513.578.428,2.011-.257,3.946a.8.8,0,0,0,.342.952,4,4,0,0,1,1.69,2.492c.2,1.262-.364,2.674-1.69,4.2a.842.842,0,0,0-.182.652A.767.767,0,0,0,63.339,34.049Z" transform="translate(-3.607 -1.268)" fill="#0d4353"/>
      </g>
    </g>
  </g>
</svg>
