<svg xmlns="http://www.w3.org/2000/svg" xmlns:xlink="http://www.w3.org/1999/xlink" width="118" height="118" viewBox="0 0 118 118">
  <defs>
    <filter id="Rectangle_411831" x="0" y="0" width="118" height="118" filterUnits="userSpaceOnUse">
      <feOffset dy="3" input="SourceAlpha"/>
      <feGaussianBlur stdDeviation="3" result="blur"/>
      <feFlood flood-opacity="0.161"/>
      <feComposite operator="in" in2="blur"/>
      <feComposite in="SourceGraphic"/>
    </filter>
  </defs>
  <g id="Group_1204410" data-name="Group 1204410" transform="translate(516.653 7876)">
    <g id="Group_1204136" data-name="Group 1204136" transform="translate(-843.435 -11728)">
      <g transform="matrix(1, 0, 0, 1, 326.78, 3852)" filter="url(#Rectangle_411831)">
        <g id="Rectangle_411831-2" data-name="Rectangle 411831" transform="translate(9 6)" fill="#ffc94a" stroke="#fff" stroke-width="2">
          <path d="M5,0H68a32,32,0,0,1,32,32V95a5,5,0,0,1-5,5H32A32,32,0,0,1,0,68V5A5,5,0,0,1,5,0Z" stroke="none"/>
          <path d="M5,1H68A31,31,0,0,1,99,32V95a4,4,0,0,1-4,4H32A31,31,0,0,1,1,68V5A4,4,0,0,1,5,1Z" fill="none"/>
        </g>
      </g>
    </g>
    <g id="produccion" transform="translate(-489 -7850)">
      <g id="Group_1204408" data-name="Group 1204408">
        <g id="Group_1204393" data-name="Group 1204393">
          <path id="Path_1469560" data-name="Path 1469560" d="M24.64,48H21l-.32-2.26A17,17,0,0,0,17.47,38h-.31a20,20,0,0,1-3.37-.29l-.02.01A3.971,3.971,0,0,0,10,35a3.528,3.528,0,0,0-.48.03,2.987,2.987,0,0,0-.52.1,4,4,0,0,0-2.45,1.82A4.089,4.089,0,0,0,6,39V62H21V56h5a1,1,0,0,0,1-1V48Z" fill="#ff826e"/>
        </g>
        <g id="Group_1204394" data-name="Group 1204394">
          <path id="Path_1469561" data-name="Path 1469561" d="M33,39.64V38h4v1.64a2.206,2.206,0,0,0,1.42,2.03c.01.01.02.01.04.02a2.233,2.233,0,0,0,2.46-.43l1.15-1.16,2.83,2.83-1.16,1.15a2.233,2.233,0,0,0-.43,2.46c.01.02.01.03.02.04A2.206,2.206,0,0,0,45.36,48H47v4H45.36a2.206,2.206,0,0,0-2.03,1.42c-.01.01-.01.02-.02.04a2.233,2.233,0,0,0,.43,2.46l1.16,1.15L42.07,59.9l-1.15-1.16a2.233,2.233,0,0,0-2.46-.43c-.02.01-.03.01-.04.02A2.206,2.206,0,0,0,37,60.36V62H33V60.36a2.206,2.206,0,0,0-1.42-2.03c-.01-.01-.02-.01-.04-.02a2.233,2.233,0,0,0-2.46.43L27.93,59.9,24.03,56H26a1,1,0,0,0,1-1V54h3.53a6,6,0,1,0-.09-7.89A1.956,1.956,0,0,0,29.8,46a1.913,1.913,0,0,0-1.37.57L27,48H24.64a2.206,2.206,0,0,0,2.03-1.42c.01-.01.01-.02.02-.04a2.233,2.233,0,0,0-.43-2.46L25.1,42.93l2.83-2.83,1.15,1.16a2.233,2.233,0,0,0,2.46.43c.02-.01.03-.01.04-.02A2.206,2.206,0,0,0,33,39.64Z" fill="#fcd770"/>
        </g>
        <g id="Group_1204395" data-name="Group 1204395">
          <path id="Path_1469562" data-name="Path 1469562" d="M44,2H60V16H44V2Z" fill="#b4dd7f"/>
        </g>
        <g id="Group_1204396" data-name="Group 1204396">
          <path id="Path_1469563" data-name="Path 1469563" d="M62,23V34H50V22H62Z" fill="#b4dd7f"/>
        </g>
        <g id="Group_1204397" data-name="Group 1204397">
          <path id="Path_1469564" data-name="Path 1469564" d="M28,30V20H38V30H28Z" fill="#b4dd7f"/>
        </g>
        <g id="Group_1204398" data-name="Group 1204398">
          <circle id="Ellipse_12499" data-name="Ellipse 12499" cx="2" cy="2" r="2" transform="translate(30 8)" fill="#ff826e"/>
        </g>
        <g id="Group_1204399" data-name="Group 1204399">
          <circle id="Ellipse_12500" data-name="Ellipse 12500" cx="2" cy="2" r="2" transform="translate(56 48)" fill="#ff826e"/>
        </g>
        <g id="Group_1204400" data-name="Group 1204400">
          <path id="Path_1469565" data-name="Path 1469565" d="M24,13v2a1,1,0,0,1-1,1H3a.857.857,0,0,1-.36-.07A1,1,0,0,1,2,15V12H23A1,1,0,0,1,24,13Z" fill="#fcd770"/>
        </g>
        <g id="Group_1204401" data-name="Group 1204401">
          <path id="Path_1469566" data-name="Path 1469566" d="M20.98,8H19a1,1,0,0,0-1,1v3H14V7a1,1,0,0,0-1-1H11a1,1,0,0,0-1,1v5H6V9A1,1,0,0,0,5,8H3a.757.757,0,0,0-.15.01A9.845,9.845,0,0,1,20.98,8Z" fill="#ffeaa7"/>
        </g>
        <g id="Group_1204402" data-name="Group 1204402">
          <path id="Path_1469567" data-name="Path 1469567" d="M21.58,9.92,22,12H18V9a1,1,0,0,1,1-1h1.98A8.93,8.93,0,0,1,21.58,9.92Z" fill="#fcd770"/>
        </g>
        <g id="Group_1204403" data-name="Group 1204403">
          <path id="Path_1469568" data-name="Path 1469568" d="M14,7v5H10V7a1,1,0,0,1,1-1h2A1,1,0,0,1,14,7Z" fill="#fcd770"/>
        </g>
        <g id="Group_1204404" data-name="Group 1204404">
          <path id="Path_1469569" data-name="Path 1469569" d="M5,8A1,1,0,0,1,6,9v3H2l.11-1.12a9.78,9.78,0,0,1,.74-2.87A.757.757,0,0,1,3,8Z" fill="#fcd770"/>
        </g>
        <g id="Group_1204405" data-name="Group 1204405">
          <path id="Path_1469570" data-name="Path 1469570" d="M9,19v1a2.015,2.015,0,0,0-2,2,2.406,2.406,0,0,0,.71,1.71l1,1a1.009,1.009,0,0,1,.29.7V29L5.87,26.76A9.224,9.224,0,0,1,2,19.24v-.41a6.858,6.858,0,0,1,.64-2.9A.857.857,0,0,0,3,16h9A3,3,0,0,0,9,19Z" fill="#656d78"/>
        </g>
        <g id="Group_1204406" data-name="Group 1204406">
          <path id="Path_1469571" data-name="Path 1469571" d="M19,28v.59A3.414,3.414,0,0,1,15.59,32H15a8.386,8.386,0,0,0,1.94,5.32c.18.22.36.45.53.68h-.31a20,20,0,0,1-3.37-.29l-.02.01A3.971,3.971,0,0,0,10,35a3.528,3.528,0,0,0-.48.03,2.987,2.987,0,0,0-.52.1V25.41a1.009,1.009,0,0,0-.29-.7l-1-1A2.406,2.406,0,0,1,7,22a2.015,2.015,0,0,1,2-2V19a3,3,0,0,1,3-3h7a16.7,16.7,0,0,1,3,9l-3,1Z" fill="#f0d0b4"/>
        </g>
        <g id="Group_1204407" data-name="Group 1204407">
          <path id="Path_1469572" data-name="Path 1469572" d="M35,48a2.006,2.006,0,0,1,2,2,3.995,3.995,0,0,1-4,4H27V48l1.43-1.43A1.913,1.913,0,0,1,29.8,46a1.956,1.956,0,0,1,.64.11,1.9,1.9,0,0,1,1.09.96L32,48Z" fill="#f0d0b4"/>
        </g>
      </g>
      <g id="Group_1204409" data-name="Group 1204409">
        <path id="Path_1469573" data-name="Path 1469573" d="M63,35V21H57V17h4V1H43V9H34.816A2.993,2.993,0,1,0,31,12.816V19H27V31h7v6H32v2.64a1.238,1.238,0,0,1-.843,1.127,1.225,1.225,0,0,1-1.367-.215l-1.858-1.868-4.248,4.247,1.867,1.86a1.259,1.259,0,0,1,.2,1.409,1.23,1.23,0,0,1-1.11.8H21.866l-.2-1.4A17.861,17.861,0,0,0,17.7,36.684a7.357,7.357,0,0,1-1.619-3.734,4.437,4.437,0,0,0,2.622-1.243A4.382,4.382,0,0,0,20,28.586V26.722l3-1V25a17,17,0,0,0-2.2-8H23a2,2,0,0,0,2-2V13a2,2,0,0,0-2-2h-.18l-.255-1.273A10.856,10.856,0,0,0,1.117,10.776L1,12v3a1.983,1.983,0,0,0,.444,1.241A7.877,7.877,0,0,0,1,18.828v.416a10.262,10.262,0,0,0,4.289,8.334L8,29.514v4.907A4.9,4.9,0,0,0,5.012,39H5V63H22V57h1.616l4.316,4.316,1.858-1.868a1.243,1.243,0,0,1,1.41-.2,1.214,1.214,0,0,1,.8,1.109V63h6V60.36a1.238,1.238,0,0,1,.843-1.127,1.224,1.224,0,0,1,1.367.215l1.858,1.868,4.248-4.247L44.449,55.21a1.246,1.246,0,0,1-.2-1.41,1.23,1.23,0,0,1,1.11-.8H48V51h7.184A2.993,2.993,0,1,0,59,47.184V35ZM51,33V23h9.683l-4.74,5.529-1.236-1.236-1.414,1.414,2.764,2.764L61,25.7V33ZM45,3H59V15H45ZM32,9a1,1,0,1,1-1,1A1,1,0,0,1,32,9ZM29,21h7.106l-3.149,3.543-1.25-1.25-1.414,1.414,2.75,2.75L37,23v6H29ZM19.687,45.879l.15,1.051a4.978,4.978,0,0,1-4.14-4.1l-.662-3.949c.636.067,1.275.107,1.914.114a15.867,15.867,0,0,1,2.738,6.888Zm1.291-21.592L18,25.28V27H16.236A2.6,2.6,0,0,1,13.9,25.553l-1.789.9A4.6,4.6,0,0,0,16.236,29H17.96a2.394,2.394,0,0,1-.667,1.294A2.434,2.434,0,0,1,15.586,31L12,31v2h2.064a9.372,9.372,0,0,0,1.356,3.912c-.32-.03-.638-.079-.955-.125A4.988,4.988,0,0,0,10,34V25.414A2.011,2.011,0,0,0,9.414,24l-1-1A1.406,1.406,0,0,1,8,22a1,1,0,0,1,1-1h1V19a2,2,0,0,1,2-2h6.472a15.879,15.879,0,0,1,2.506,7.287ZM23,13v2H3l0-2ZM5,11H3.105l0-.024A8.917,8.917,0,0,1,3.543,9H5Zm8,0H11V7h2Zm7.6-.881L20.78,11H19V9h1.294A8.792,8.792,0,0,1,20.6,10.119ZM11.92,3a8.875,8.875,0,0,1,7.392,4H19a2,2,0,0,0-2,2v2H15V7a2,2,0,0,0-2-2H11A2,2,0,0,0,9,7v4H7V9A2,2,0,0,0,5,7H4.51a8.823,8.823,0,0,1,7.41-4ZM6.452,25.951A8.259,8.259,0,0,1,3,19.244v-.416A5.867,5.867,0,0,1,3.3,17H8.557A3.95,3.95,0,0,0,8,19v.171A3.006,3.006,0,0,0,6,22a3.393,3.393,0,0,0,1,2.414l1,1v1.643Zm.956,11.518a3.009,3.009,0,0,1,2.246-1.448A2.7,2.7,0,0,1,10,36a3.012,3.012,0,0,1,2.98,2.7l.746,4.456A6.981,6.981,0,0,0,20.631,49H26v6H18.809a11.066,11.066,0,0,1-10.89-9.407l-.891-6.085a3.229,3.229,0,0,1,.38-2.04ZM20,61H7V49.416A13.09,13.09,0,0,0,18.809,57H20ZM46,51h-.639a3.345,3.345,0,0,0-2.324,5.626l.447.445-1.413,1.413-.445-.446A3.344,3.344,0,0,0,36,60.36V61H34v-.64a3.345,3.345,0,0,0-5.627-2.323l-.444.446L26.4,56.957A2,2,0,0,0,28,55h2.122a7,7,0,1,0-.024-9.98A2.845,2.845,0,0,0,29.8,45a2.91,2.91,0,0,0-1.93.739,3.135,3.135,0,0,0-.907-2.365l-.447-.445,1.413-1.413.445.446A3.343,3.343,0,0,0,34,39.64V39h2v.64a3.345,3.345,0,0,0,5.627,2.323l.444-.446,1.413,1.413-.446.444A3.344,3.344,0,0,0,45.361,49H46ZM35,47H32.616l-.188-.376A2.978,2.978,0,0,0,32.005,46a5,5,0,1,1,2,8.9A5.008,5.008,0,0,0,38,50,3,3,0,0,0,35,47Zm-4.36.519L31.38,49H35a1,1,0,0,1,1,1,3,3,0,0,1-3,3H28V48.414l1.14-1.139A.972.972,0,0,1,30.639,47.519ZM58,51a1,1,0,1,1,1-1A1,1,0,0,1,58,51Zm-1-3.816A3,3,0,0,0,55.184,49H48V47H45.361a1.251,1.251,0,0,1-1.128-.842,1.238,1.238,0,0,1,.216-1.368l1.867-1.859-4.248-4.247L40.21,40.552a1.243,1.243,0,0,1-1.41.2A1.214,1.214,0,0,1,38,39.64V37H36V31h3V20.755l2.748-3.091-1.495-1.328L37.884,19H33V12.816A3,3,0,0,0,34.816,11H43v6H55v4H49V35h8Z"/>
        <path id="Path_1469574" data-name="Path 1469574" d="M49.943,10.529,48.707,9.293l-1.414,1.414,2.764,2.764,6.7-7.821-1.518-1.3Z"/>
      </g>
    </g>
  </g>
</svg>
