<svg xmlns="http://www.w3.org/2000/svg" xmlns:xlink="http://www.w3.org/1999/xlink" width="118" height="118" viewBox="0 0 118 118">
  <defs>
    <filter id="Rectangle_411831" x="0" y="0" width="118" height="118" filterUnits="userSpaceOnUse">
      <feOffset dy="3" input="SourceAlpha"/>
      <feGaussianBlur stdDeviation="3" result="blur"/>
      <feFlood flood-opacity="0.161"/>
      <feComposite operator="in" in2="blur"/>
      <feComposite in="SourceGraphic"/>
    </filter>
  </defs>
  <g id="Group_1204428" data-name="Group 1204428" transform="translate(-886.051 -4337.7)">
    <g id="Group_1204142" data-name="Group 1204142" transform="translate(559.27 485.7)">
      <g transform="matrix(1, 0, 0, 1, 326.78, 3852)" filter="url(#Rectangle_411831)">
        <g id="Rectangle_411831-2" data-name="Rectangle 411831" transform="translate(9 6)" fill="#ffc94a" stroke="#fff" stroke-width="2">
          <path d="M5,0H68a32,32,0,0,1,32,32V95a5,5,0,0,1-5,5H32A32,32,0,0,1,0,68V5A5,5,0,0,1,5,0Z" stroke="none"/>
          <path d="M5,1H68A31,31,0,0,1,99,32V95a4,4,0,0,1-4,4H32A31,31,0,0,1,1,68V5A4,4,0,0,1,5,1Z" fill="none"/>
        </g>
      </g>
    </g>
    <g id="desperdicio" transform="translate(915.051 4361)">
      <g id="Group_1204426" data-name="Group 1204426">
        <g id="Group_1204413" data-name="Group 1204413">
          <path id="Path_1469575" data-name="Path 1469575" d="M46.73,31.59a1.41,1.41,0,0,0,.74.57l1.79.59a1.452,1.452,0,0,1,.93,1.01l.62,2.48a1.452,1.452,0,0,0,.93,1.01l1.52.5a1.452,1.452,0,0,1,.93,1.01l.65,2.6a1.381,1.381,0,0,0,.75.93l2.92,1.47a1.386,1.386,0,0,1,.69.74L61,49V61H38.64a5.362,5.362,0,0,0,3.27-9.61l-6.89-5.3a42.075,42.075,0,0,1-7.19-7.05L27,38l2.32-.77a1.468,1.468,0,0,0,.91-.91l.54-1.64a1.468,1.468,0,0,1,.91-.91l1.76-.58a1.391,1.391,0,0,0,.82-.72l.34-.68A1.45,1.45,0,0,1,35.88,31h1a1.435,1.435,0,0,0,1.39-1.08l.46-1.84A1.435,1.435,0,0,1,40.12,27a1.45,1.45,0,0,1,1.28.79l.2.42a1.45,1.45,0,0,0,1.28.79h1.35a1.419,1.419,0,0,1,1.19.64Z" fill="#cf9e76"/>
        </g>
        <g id="Group_1204414" data-name="Group 1204414">
          <path id="Path_1469576" data-name="Path 1469576" d="M44,55.64A5.36,5.36,0,0,1,38.64,61H4.63A3.635,3.635,0,0,1,1.9,54.97l5.58-6.38a2.347,2.347,0,0,1,1.29-.74l2.85-.57a2.316,2.316,0,0,0,1.77-1.63l1.33-4.67a2.3,2.3,0,0,1,1.19-1.43l2.08-1.05a2.277,2.277,0,0,0,1.23-1.61l.41-2.04a2.3,2.3,0,0,1,4.06-.98L27,38l.83,1.04a42.075,42.075,0,0,0,7.19,7.05l6.89,5.3A5.372,5.372,0,0,1,44,55.64Z" fill="#d3a06c"/>
        </g>
        <g id="Group_1204415" data-name="Group 1204415">
          <circle id="Ellipse_12501" data-name="Ellipse 12501" cx="2" cy="2" r="2" transform="translate(43 33)" fill="#b27946"/>
        </g>
        <g id="Group_1204416" data-name="Group 1204416">
          <circle id="Ellipse_12502" data-name="Ellipse 12502" cx="2" cy="2" r="2" transform="translate(35 39)" fill="#b27946"/>
        </g>
        <g id="Group_1204417" data-name="Group 1204417">
          <path id="Path_1469577" data-name="Path 1469577" d="M58,25a3,3,0,1,1-3,3,1.087,1.087,0,0,1,.01-.18L57.83,25Z" fill="#fcd770"/>
        </g>
        <g id="Group_1204418" data-name="Group 1204418">
          <path id="Path_1469578" data-name="Path 1469578" d="M55.01,22.18,52.19,25l-.01-.01A1.087,1.087,0,0,1,52,25a3,3,0,1,1,3-3v.17Z" fill="#fcd770"/>
        </g>
        <g id="Group_1204419" data-name="Group 1204419">
          <path id="Path_1469579" data-name="Path 1469579" d="M32,7a3,3,0,1,1-3,3,1.087,1.087,0,0,1,.01-.18L31.83,7Z" fill="#fcd770"/>
        </g>
        <g id="Group_1204420" data-name="Group 1204420">
          <path id="Path_1469580" data-name="Path 1469580" d="M29.01,4.18,26.19,7l-.01-.01A1.087,1.087,0,0,1,26,7a3,3,0,1,1,3-3v.17Z" fill="#fcd770"/>
        </g>
        <g id="Group_1204421" data-name="Group 1204421">
          <path id="Path_1469581" data-name="Path 1469581" d="M14,21a3,3,0,0,1,0,6,1.087,1.087,0,0,1-.18-.01V27L11,24.18V24A3,3,0,0,1,14,21Z" fill="#fcd770"/>
        </g>
        <g id="Group_1204422" data-name="Group 1204422">
          <path id="Path_1469582" data-name="Path 1469582" d="M8.17,27l2.82,2.82A1.087,1.087,0,0,1,11,30a3,3,0,1,1-3-3Z" fill="#fcd770"/>
        </g>
        <g id="Group_1204423" data-name="Group 1204423">
          <path id="Path_1469583" data-name="Path 1469583" d="M58.41,21.59a1.98,1.98,0,0,1,0,2.82l-.58.59-2.82,2.82-.6.59a1.994,1.994,0,1,1-2.82-2.82l.6-.59,2.82-2.82.58-.59a1.98,1.98,0,0,1,2.82,0Z" fill="#ffeaa7"/>
        </g>
        <g id="Group_1204424" data-name="Group 1204424">
          <path id="Path_1469584" data-name="Path 1469584" d="M32.41,3.59a1.98,1.98,0,0,1,0,2.82L31.83,7,29.01,9.82l-.6.59a1.994,1.994,0,1,1-2.82-2.82l.6-.59,2.82-2.82.58-.59a1.98,1.98,0,0,1,2.82,0Z" fill="#ffeaa7"/>
        </g>
        <g id="Group_1204425" data-name="Group 1204425">
          <path id="Path_1469585" data-name="Path 1469585" d="M14.41,30.41a1.98,1.98,0,0,1-2.82,0l-.6-.59L8.17,27l-.58-.59a1.994,1.994,0,1,1,2.82-2.82l.59.59L13.82,27l.59.59a1.98,1.98,0,0,1,0,2.82Z" fill="#ffeaa7"/>
        </g>
      </g>
      <g id="Group_1204427" data-name="Group 1204427">
        <path id="Path_1469586" data-name="Path 1469586" d="M45,55.64A6.4,6.4,0,0,0,42.518,50.6L35.63,45.3a41.022,41.022,0,0,1-6.949-6.806l.957-.319a2.433,2.433,0,0,0,1.536-1.536l.55-1.646A.43.43,0,0,1,32,34.722l1.762-.587a2.442,2.442,0,0,0,1.4-1.218l.34-.68A.426.426,0,0,1,35.884,32h1a2.424,2.424,0,0,0,2.356-1.84l.459-1.834a.448.448,0,0,1,.8-.089l.209.42A2.417,2.417,0,0,0,42.884,30h1.351a.43.43,0,0,1,.358.191l1.3,1.956.005.006A2.956,2.956,0,0,0,45,32a3,3,0,1,0,3,3,2.971,2.971,0,0,0-.635-1.824l1.575.525a.433.433,0,0,1,.281.3l.618,2.477A2.415,2.415,0,0,0,51.428,38.2l1.512.5a.433.433,0,0,1,.281.3l.649,2.6a2.424,2.424,0,0,0,1.271,1.586l2.926,1.463a.426.426,0,0,1,.207.225l1.8,4.495,1.857-.743-1.8-4.495a2.426,2.426,0,0,0-1.17-1.271L56.035,41.4a.434.434,0,0,1-.225-.28l-.649-2.6A2.415,2.415,0,0,0,53.572,36.8l-1.512-.5a.433.433,0,0,1-.281-.3l-.618-2.477A2.415,2.415,0,0,0,49.572,31.8l-1.79-.6a.438.438,0,0,1-.223-.169l-1.3-1.956A2.422,2.422,0,0,0,44.234,28H42.883a.428.428,0,0,1-.385-.237l-.209-.42a2.429,2.429,0,0,0-4.529.5L37.3,29.674a.43.43,0,0,1-.417.326h-1a2.417,2.417,0,0,0-2.174,1.343l-.341.681a.425.425,0,0,1-.247.214l-1.76.586a2.433,2.433,0,0,0-1.536,1.536l-.55,1.646a.43.43,0,0,1-.271.271l-1.66.553-2.872-3.589a3.306,3.306,0,0,0-5.824,1.418L18.242,36.7a1.3,1.3,0,0,1-.7.913l-2.084,1.042a3.31,3.31,0,0,0-1.7,2.049l-1.335,4.672a1.3,1.3,0,0,1-1,.923l-2.854.57a3.33,3.33,0,0,0-1.84,1.065L1.148,54.315A4.632,4.632,0,0,0,4.635,62H62V60H43.266A6.336,6.336,0,0,0,45,55.64ZM45,36a1,1,0,1,1,1-1A1,1,0,0,1,45,36ZM38.64,60H4.635a2.634,2.634,0,0,1-1.983-4.369l5.585-6.384a1.31,1.31,0,0,1,.727-.42l2.854-.57a3.294,3.294,0,0,0,2.531-2.334l1.335-4.673a1.305,1.305,0,0,1,.671-.808L18.439,39.4A3.285,3.285,0,0,0,20.2,37.09l.407-2.039a1.307,1.307,0,0,1,2.3-.561l4.14,5.174a43.023,43.023,0,0,0,7.36,7.221l6.887,5.3A4.361,4.361,0,0,1,38.64,60Z"/>
        <path id="Path_1469587" data-name="Path 1469587" d="M34.5,49.615h2V53.4h-2Z" transform="translate(-26.971 48.248) rotate(-52.431)"/>
        <path id="Path_1469588" data-name="Path 1469588" d="M25.489,40.914l-.709-.886-1.561,1.25.708.885a46.983,46.983,0,0,0,7.45,7.428l1.244-1.565a45.129,45.129,0,0,1-7.132-7.112Z"/>
        <path id="Path_1469589" data-name="Path 1469589" d="M25.293,47.293,23,49.586,21.414,48l2.293-2.293-1.414-1.414L20,46.586l-2.293-2.293-1.414,1.414L18.586,48,17,49.586l-2.293-2.293-1.414,1.414L15.586,51l-2.293,2.293,1.414,1.414L17,52.414,18.586,54l-2.293,2.293,1.414,1.414L20,55.414l2.293,2.293,1.414-1.414L21.414,54,23,52.414l2.293,2.293,1.414-1.414L24.414,51l2.293-2.293ZM20,52.586,18.414,51,20,49.414,21.586,51Z"/>
        <path id="Path_1469590" data-name="Path 1469590" d="M51.408,52a.429.429,0,0,1,.3.126l1.163,1.163A2.412,2.412,0,0,0,54.592,54h1.816a.429.429,0,0,1,.3.126l3.581,3.581,1.414-1.414-3.582-3.582A2.412,2.412,0,0,0,56.408,52H54.592a.429.429,0,0,1-.3-.126l-1.163-1.163A2.412,2.412,0,0,0,51.408,50h-.643a.43.43,0,0,1-.358-.191l-1.575-2.363-1.664,1.109,1.575,2.364A2.427,2.427,0,0,0,50.766,52Z"/>
        <path id="Path_1469591" data-name="Path 1469591" d="M37,42v2a3,3,0,1,0-3-3h2a1,1,0,1,1,1,1Z"/>
        <path id="Path_1469592" data-name="Path 1469592" d="M43,41.586h2v2.828H43Z" transform="translate(-17.518 43.707) rotate(-45)"/>
        <path id="Path_1469593" data-name="Path 1469593" d="M37.586,34h2.828v2H37.586Z" transform="translate(-13.326 37.828) rotate(-45)"/>
        <path id="Path_1469594" data-name="Path 1469594" d="M47.586,56h2.828v2H47.586Z" transform="translate(-25.953 51.343) rotate(-45)"/>
        <path id="Path_1469595" data-name="Path 1469595" d="M53,45.586h2v2.828H53Z" transform="translate(-17.418 51.95) rotate(-45)"/>
        <path id="Path_1469596" data-name="Path 1469596" d="M8,34a4,4,0,0,0,3.631-2.345,2.978,2.978,0,0,0,4.024-4.024,3.994,3.994,0,1,0-5.292-5.276,3.072,3.072,0,0,0-3.484.524,2.955,2.955,0,0,0-.527,3.5A3.984,3.984,0,0,0,8,34Zm6-12a1.995,1.995,0,0,1,.22,3.978l-2.2-2.2A2,2,0,0,1,14,22ZM8.293,24.293a1,1,0,0,1,1.414,0l4,4a1,1,0,0,1,0,1.414,1.014,1.014,0,0,1-1.414,0l-4-4a1,1,0,0,1,0-1.414ZM7.78,28.022l2.2,2.2a1.995,1.995,0,1,1-2.2-2.2Z"/>
        <path id="Path_1469597" data-name="Path 1469597" d="M24.345,7.631a2.978,2.978,0,0,0,4.024,4.024,3.994,3.994,0,1,0,5.286-5.286,2.957,2.957,0,0,0-.534-3.49,3.074,3.074,0,0,0-3.484-.524,3.994,3.994,0,1,0-5.292,5.276ZM32,12a2,2,0,0,1-1.978-1.78l2.2-2.2A1.995,1.995,0,0,1,32,12ZM31,4a1,1,0,0,1,.707,1.707l-4,4a1.014,1.014,0,0,1-1.414,0,1,1,0,0,1,0-1.414l4-4A.982.982,0,0,1,31,4ZM26,2a2,2,0,0,1,1.978,1.78l-2.2,2.2A1.995,1.995,0,0,1,26,2Z"/>
        <path id="Path_1469598" data-name="Path 1469598" d="M52,18a3.994,3.994,0,0,0-1.655,7.631,2.978,2.978,0,0,0,4.024,4.024,3.994,3.994,0,1,0,5.286-5.286,2.957,2.957,0,0,0-.534-3.49,3.074,3.074,0,0,0-3.484-.524A4,4,0,0,0,52,18Zm0,2a2,2,0,0,1,1.978,1.78l-2.2,2.2A1.995,1.995,0,0,1,52,20Zm6,10a2,2,0,0,1-1.978-1.78l2.2-2.2A1.995,1.995,0,0,1,58,30Zm-1-8a1,1,0,0,1,.707,1.707l-4,4a1.014,1.014,0,0,1-1.414,0,1,1,0,0,1,0-1.414l4-4A.982.982,0,0,1,57,22Z"/>
        <path id="Path_1469599" data-name="Path 1469599" d="M20.47,17.592l11.215,1.869a2.771,2.771,0,0,1,.34,5.387l-6.082,1.825a2.727,2.727,0,0,0-1.144,4.54l2.494,2.494,1.414-1.414L26.213,29.8A.715.715,0,0,1,26,29.285a.722.722,0,0,1,.518-.7L32.6,26.764a4.771,4.771,0,0,0-.587-9.276L20.8,15.619a3.347,3.347,0,0,1-2.235-5.16l1.27-1.9L18.169,7.445l-1.27,1.9a5.348,5.348,0,0,0,3.571,8.243Z"/>
        <path id="Path_1469600" data-name="Path 1469600" d="M40.67,12.113l11.537.769a.85.85,0,0,1,.248,1.641L42.388,18.4A3.747,3.747,0,0,0,40,21.872,3.7,3.7,0,0,0,41.091,24.5l2.2,2.2,1.414-1.414-2.2-2.2A1.717,1.717,0,0,1,42,21.872a1.735,1.735,0,0,1,1.106-1.61L53.173,16.39a2.85,2.85,0,0,0-.833-5.5L40.8,10.118a.86.86,0,0,1-.262-1.657l6.315-2.526A4.977,4.977,0,0,0,50,1.292V0H48V1.292a2.984,2.984,0,0,1-1.886,2.785L39.8,6.6a2.86,2.86,0,0,0,.871,5.51Z"/>
        <circle id="Ellipse_12503" data-name="Ellipse 12503" cx="1" cy="1" r="1" transform="translate(38 1)"/>
        <circle id="Ellipse_12504" data-name="Ellipse 12504" cx="1" cy="1" r="1" transform="translate(40 14)"/>
        <circle id="Ellipse_12505" data-name="Ellipse 12505" cx="1" cy="1" r="1" transform="translate(36 16)"/>
      </g>
    </g>
  </g>
</svg>
