<svg xmlns="http://www.w3.org/2000/svg" xmlns:xlink="http://www.w3.org/1999/xlink" width="118" height="118" viewBox="0 0 118 118">
  <defs>
    <filter id="Rectangle_411831" x="0" y="0" width="118" height="118" filterUnits="userSpaceOnUse">
      <feOffset dy="3" input="SourceAlpha"/>
      <feGaussianBlur stdDeviation="3" result="blur"/>
      <feFlood flood-opacity="0.161"/>
      <feComposite operator="in" in2="blur"/>
      <feComposite in="SourceGraphic"/>
    </filter>
  </defs>
  <g id="Group_1204411" data-name="Group 1204411" transform="translate(184 7876)">
    <g id="Group_1204137" data-name="Group 1204137" transform="translate(-510.781 -11728)">
      <g transform="matrix(1, 0, 0, 1, 326.78, 3852)" filter="url(#Rectangle_411831)">
        <g id="Rectangle_411831-2" data-name="Rectangle 411831" transform="translate(9 6)" fill="#ffc94a" stroke="#fff" stroke-width="2">
          <path d="M5,0H68a32,32,0,0,1,32,32V95a5,5,0,0,1-5,5H32A32,32,0,0,1,0,68V5A5,5,0,0,1,5,0Z" stroke="none"/>
          <path d="M5,1H68A31,31,0,0,1,99,32V95a4,4,0,0,1-4,4H32A31,31,0,0,1,1,68V5A4,4,0,0,1,5,1Z" fill="none"/>
        </g>
      </g>
    </g>
    <g id="XMLID_2147_" transform="translate(-154 -7867)">
      <g id="XMLID_1644_" transform="translate(1.137 21.137)">
        <g id="XMLID_2911_" transform="translate(19.424 40.013)">
          <path id="XMLID_1515_" d="M197.955,388.366H180.875L182.523,382h13.783Z" transform="translate(-180.875 -382)" fill="#8aa8bd"/>
        </g>
        <g id="XMLID_2910_" transform="translate(14.778 46.379)">
          <path id="XMLID_1514_" d="M163.872,443H142.5a2.5,2.5,0,1,1,0-5h21.371a2.5,2.5,0,0,1,0,5Z" transform="translate(-140 -438)" fill="#e2e9ee"/>
        </g>
        <g id="XMLID_2909_" transform="translate(0 0)">
          <path id="XMLID_1512_" d="M61.381,70.013H14.547A4.547,4.547,0,0,1,10,65.466V34.547A4.547,4.547,0,0,1,14.547,30H61.381a4.547,4.547,0,0,1,4.547,4.547V65.466A4.547,4.547,0,0,1,61.381,70.013Z" transform="translate(-10 -30)" fill="#99ebfa"/>
        </g>
        <g id="XMLID_2908_" transform="translate(0 31.829)">
          <path id="XMLID_1495_" d="M65.928,310v3.638a4.547,4.547,0,0,1-4.547,4.547H14.547A4.547,4.547,0,0,1,10,313.638V310Z" transform="translate(-10 -310)" fill="#e2e9ee"/>
        </g>
        <g id="XMLID_2902_" transform="translate(0 26.024)">
          <path id="XMLID_1492_" d="M10.895,275.85a3.055,3.055,0,0,1,0-4.321l12.591-12.591,4.321,4.321L15.216,275.85A3.055,3.055,0,0,1,10.895,275.85Z" transform="translate(-10 -258.938)" fill="#ffcd69"/>
        </g>
        <g id="XMLID_2900_" transform="translate(9.274 9.397)">
          <circle id="XMLID_1491_" cx="12.58" cy="12.58" r="12.58" fill="#fff"/>
        </g>
        <g id="XMLID_2899_" transform="translate(13.923 17.165)">
          <ellipse id="XMLID_1489_" cx="7.931" cy="4.812" rx="7.931" ry="4.812" fill="#ccf5fc"/>
        </g>
        <g id="XMLID_2799_" transform="translate(18.861 18.984)">
          <circle id="XMLID_540_" cx="2.993" cy="2.993" r="2.993" fill="#ff7b79"/>
        </g>
      </g>
      <g id="XMLID_529_" transform="translate(0 20)">
        <path id="XMLID_1481_" d="M52.517,20h-18.3a1.137,1.137,0,0,0,0,2.273h18.3a3.414,3.414,0,0,1,3.41,3.41V51.742H33.646a13.714,13.714,0,1,0-22.853-2.358L8.348,51.829H2.273V25.684a3.414,3.414,0,0,1,3.41-3.41h18.3a1.137,1.137,0,1,0,0-2.273H5.684A5.69,5.69,0,0,0,0,25.684V56.6a5.707,5.707,0,0,0,.781,2.873,4.192,4.192,0,0,0,6.375,5.4l2.59-2.59H20.74l-1.06,4.092H18.415a3.638,3.638,0,1,0,0,7.275H39.786a3.638,3.638,0,0,0,0-7.275H38.52l-1.06-4.092H52.517A5.69,5.69,0,0,0,58.2,56.6V25.684A5.69,5.69,0,0,0,52.517,20ZM22.991,31.671A11.443,11.443,0,1,1,11.548,43.114,11.456,11.456,0,0,1,22.991,31.671ZM6.074,54.1,2.459,57.717A3.4,3.4,0,0,1,2.273,56.6V54.1Zm-.525,9.167a1.919,1.919,0,1,1-2.713-2.713l9.2-9.2a13.83,13.83,0,0,0,2.713,2.713Zm35.6,6.747a1.366,1.366,0,0,1-1.364,1.364H18.415a1.364,1.364,0,1,1,0-2.728H39.786A1.366,1.366,0,0,1,41.15,70.017Zm-4.978-3.638H22.029l1.06-4.092H35.112Zm16.346-6.366H12.02l4.7-4.7a13.691,13.691,0,0,0,14.584-1.3H55.928V56.6a3.414,3.414,0,0,1-3.41,3.41Z" transform="translate(0 -20)"/>
        <path id="XMLID_1509_" d="M131.552,182.9a10.054,10.054,0,0,0,8.939-5.423,1.137,1.137,0,0,0,0-1.052,10.078,10.078,0,0,0-17.877,0,1.137,1.137,0,0,0,0,1.052A10.054,10.054,0,0,0,131.552,182.9Zm0-7.806a1.857,1.857,0,1,1-1.857,1.857A1.859,1.859,0,0,1,131.552,175.093Zm6.623,1.857a7.786,7.786,0,0,1-4.08,3.251,4.123,4.123,0,0,0,0-6.5A7.786,7.786,0,0,1,138.174,176.95Zm-9.165-3.251a4.123,4.123,0,0,0,0,6.5,7.785,7.785,0,0,1-4.08-3.251A7.786,7.786,0,0,1,129.009,173.7Z" transform="translate(-108.561 -153.836)"/>
        <path id="XMLID_1518_" d="M347.4,134.294a1.137,1.137,0,0,0,1.137,1.137h11.436a1.137,1.137,0,1,0,0-2.273H348.533A1.137,1.137,0,0,0,347.4,134.294Z" transform="translate(-307.906 -120.294)"/>
        <path id="XMLID_1519_" d="M397.826,87.43a1.137,1.137,0,1,0,0-2.273h-6.581a1.137,1.137,0,1,0,0,2.273Z" transform="translate(-345.764 -77.75)"/>
        <path id="XMLID_1520_" d="M347.7,85.16a1.139,1.139,0,1,0,.8.333A1.145,1.145,0,0,0,347.7,85.16Z" transform="translate(-307.165 -77.753)"/>
        <path id="XMLID_1521_" d="M449.94,183.1a1.136,1.136,0,1,0-.8.333A1.145,1.145,0,0,0,449.94,183.1Z" transform="translate(-397.074 -162.841)"/>
        <path id="XMLID_1522_" d="M398.837,183.433a1.137,1.137,0,1,0-.8-.333A1.145,1.145,0,0,0,398.837,183.433Z" transform="translate(-352.492 -162.84)"/>
        <path id="XMLID_1523_" d="M349.34,183.1a1.137,1.137,0,1,0-.8.333A1.144,1.144,0,0,0,349.34,183.1Z" transform="translate(-307.91 -162.841)"/>
        <path id="XMLID_1524_" d="M348.533,231.43h3.649a1.137,1.137,0,1,0,0-2.273h-3.649a1.137,1.137,0,1,0,0,2.273Z" transform="translate(-307.906 -205.381)"/>
        <path id="XMLID_1525_" d="M423.5,230.294a1.137,1.137,0,0,0,1.137,1.137h3.744a1.137,1.137,0,1,0,0-2.273h-3.744A1.137,1.137,0,0,0,423.5,230.294Z" transform="translate(-375.359 -205.381)"/>
        <path id="XMLID_1526_" d="M247.137,22.273a1.137,1.137,0,1,0-.8-.333A1.144,1.144,0,0,0,247.137,22.273Z" transform="translate(-218.036 -20)"/>
      </g>
    </g>
  </g>
</svg>
