<svg xmlns="http://www.w3.org/2000/svg" xmlns:xlink="http://www.w3.org/1999/xlink" width="118" height="118" viewBox="0 0 118 118">
  <defs>
    <filter id="Rectangle_411831" x="0" y="0" width="118" height="118" filterUnits="userSpaceOnUse">
      <feOffset dy="3" input="SourceAlpha"/>
      <feGaussianBlur stdDeviation="3" result="blur"/>
      <feFlood flood-opacity="0.161"/>
      <feComposite operator="in" in2="blur"/>
      <feComposite in="SourceGraphic"/>
    </filter>
  </defs>
  <g id="Group_1204469" data-name="Group 1204469" transform="translate(-886.051 -2990)">
    <g id="Group_1204373" data-name="Group 1204373">
      <g id="Group_1204125" data-name="Group 1204125" transform="translate(559.27 -862)">
        <g transform="matrix(1, 0, 0, 1, 326.78, 3852)" filter="url(#Rectangle_411831)">
          <g id="Rectangle_411831-2" data-name="Rectangle 411831" transform="translate(9 6)" fill="#ffc94a" stroke="#fff" stroke-width="2">
            <path d="M5,0H68a32,32,0,0,1,32,32V95a5,5,0,0,1-5,5H32A32,32,0,0,1,0,68V5A5,5,0,0,1,5,0Z" stroke="none"/>
            <path d="M5,1H68A31,31,0,0,1,99,32V95a4,4,0,0,1-4,4H32A31,31,0,0,1,1,68V5A4,4,0,0,1,5,1Z" fill="none"/>
          </g>
        </g>
      </g>
      <g id="hecho" transform="translate(915 3014.222)">
        <path id="Path_1469475" data-name="Path 1469475" d="M44.167,100.87H8.819A1.319,1.319,0,0,1,7.5,99.551V45.012a1.319,1.319,0,0,1,1.319-1.319H44.167a1.319,1.319,0,0,1,1.319,1.319V99.551A1.32,1.32,0,0,1,44.167,100.87Z" transform="translate(-6.569 -38.259)" fill="#e7e2e6"/>
        <path id="Trazado_1469476" data-name="Trazado 1469476" d="M37.6,95.231H2.25A2.253,2.253,0,0,1,0,92.981V46.508a.931.931,0,0,1,1.861,0V92.981a.389.389,0,0,0,.389.389H37.6a.389.389,0,0,0,.389-.389V38.443a.389.389,0,0,0-.389-.389H2.25a.389.389,0,0,0-.389.389V42.91A.931.931,0,1,1,0,42.91V38.443a2.253,2.253,0,0,1,2.25-2.25H37.6a2.253,2.253,0,0,1,2.25,2.25V92.981A2.253,2.253,0,0,1,37.6,95.231Z" transform="translate(0 -31.689)"/>
        <path id="Path_1469477" data-name="Path 1469477" d="M90.357,64.692H55.009a1.319,1.319,0,0,1-1.319-1.319V8.834a1.319,1.319,0,0,1,1.319-1.319H90.357a1.319,1.319,0,0,1,1.319,1.319V63.373A1.32,1.32,0,0,1,90.357,64.692Z" transform="translate(-47.028 -6.569)" fill="#faf7f8"/>
        <path id="Path_1469478" data-name="Path 1469478" d="M329.851,7.516h-2.742a1.319,1.319,0,0,1,1.319,1.319V63.374a1.319,1.319,0,0,1-1.319,1.319h2.742a1.319,1.319,0,0,0,1.319-1.319V8.835A1.319,1.319,0,0,0,329.851,7.516Z" transform="translate(-286.523 -6.57)" fill="#f0eef0"/>
        <path id="Trazado_1469479" data-name="Trazado 1469479" d="M83.787,59.053h-18.9a.931.931,0,1,1,0-1.861h18.9a.389.389,0,0,0,.389-.389V2.265a.389.389,0,0,0-.389-.389H48.44a.389.389,0,0,0-.389.389V56.8a.389.389,0,0,0,.389.389H61.292a.931.931,0,0,1,0,1.861H48.44a2.253,2.253,0,0,1-2.25-2.25V2.265A2.253,2.253,0,0,1,48.44.015H83.787a2.253,2.253,0,0,1,2.25,2.25V56.8A2.253,2.253,0,0,1,83.787,59.053Z" transform="translate(-40.459 0)"/>
        <path id="Path_1469480" data-name="Path 1469480" d="M138.3,46.045H118.651a1.268,1.268,0,0,1-1.268-1.268V41.695a1.268,1.268,0,0,1,1.268-1.268H138.3a1.268,1.268,0,0,1,1.268,1.268v3.083A1.268,1.268,0,0,1,138.3,46.045Z" transform="translate(-102.819 -35.398)" fill="#6ce79a"/>
        <path id="Path_1469481" data-name="Path 1469481" d="M268.858,40.426h-2.419a1.268,1.268,0,0,1,1.268,1.268v3.083a1.268,1.268,0,0,1-1.268,1.268h2.419a1.268,1.268,0,0,0,1.268-1.268V41.694A1.267,1.267,0,0,0,268.858,40.426Z" transform="translate(-233.38 -35.397)" fill="#00d8a2"/>
        <path id="Trazado_1469482" data-name="Trazado 1469482" d="M131.727,40.406H112.081a2.2,2.2,0,0,1-2.2-2.2V35.125a2.2,2.2,0,0,1,2.2-2.2h19.646a2.2,2.2,0,0,1,2.2,2.2v3.083A2.2,2.2,0,0,1,131.727,40.406Zm-19.646-5.618a.337.337,0,0,0-.337.337v3.083a.337.337,0,0,0,.337.337h19.646a.337.337,0,0,0,.337-.337V35.125a.337.337,0,0,0-.337-.337Z" transform="translate(-96.249 -28.828)"/>
        <g id="Group_1204370" data-name="Group 1204370" transform="translate(11.016 14.39)">
          <path id="Línea_672" data-name="Línea 672" d="M20.847-5.639H-6.569A.931.931,0,0,1-7.5-6.569.931.931,0,0,1-6.569-7.5H20.847a.931.931,0,0,1,.931.931A.931.931,0,0,1,20.847-5.639Z" transform="translate(7.5 43.083)"/>
          <path id="Línea_673" data-name="Línea 673" d="M20.847-5.639H-6.569A.931.931,0,0,1-7.5-6.569.931.931,0,0,1-6.569-7.5H20.847a.931.931,0,0,1,.931.931A.931.931,0,0,1,20.847-5.639Z" transform="translate(7.5 38.635)"/>
          <path id="Línea_674" data-name="Línea 674" d="M20.847-5.639H-6.569A.931.931,0,0,1-7.5-6.569.931.931,0,0,1-6.569-7.5H20.847a.931.931,0,0,1,.931.931A.931.931,0,0,1,20.847-5.639Z" transform="translate(7.5 34.187)"/>
          <path id="Línea_675" data-name="Línea 675" d="M20.847-5.639H-6.569A.931.931,0,0,1-7.5-6.569.931.931,0,0,1-6.569-7.5H20.847a.931.931,0,0,1,.931.931A.931.931,0,0,1,20.847-5.639Z" transform="translate(7.5 29.739)"/>
          <path id="Línea_676" data-name="Línea 676" d="M20.847-5.639H-6.569A.931.931,0,0,1-7.5-6.569.931.931,0,0,1-6.569-7.5H20.847a.931.931,0,0,1,.931.931A.931.931,0,0,1,20.847-5.639Z" transform="translate(7.5 25.291)"/>
          <path id="Línea_677" data-name="Línea 677" d="M20.847-5.639H-6.569A.931.931,0,0,1-7.5-6.569.931.931,0,0,1-6.569-7.5H20.847a.931.931,0,0,1,.931.931A.931.931,0,0,1,20.847-5.639Z" transform="translate(7.5 20.844)"/>
          <path id="Línea_678" data-name="Línea 678" d="M20.847-5.639H-6.569A.931.931,0,0,1-7.5-6.569.931.931,0,0,1-6.569-7.5H20.847a.931.931,0,0,1,.931.931A.931.931,0,0,1,20.847-5.639Z" transform="translate(7.5 16.396)"/>
          <path id="Línea_679" data-name="Línea 679" d="M20.847-5.639H-6.569A.931.931,0,0,1-7.5-6.569.931.931,0,0,1-6.569-7.5H20.847a.931.931,0,0,1,.931.931A.931.931,0,0,1,20.847-5.639Z" transform="translate(7.5 11.948)"/>
          <path id="Línea_680" data-name="Línea 680" d="M20.847-5.639H-6.569A.931.931,0,0,1-7.5-6.569.931.931,0,0,1-6.569-7.5H20.847a.931.931,0,0,1,.931.931A.931.931,0,0,1,20.847-5.639Z" transform="translate(7.5 7.5)"/>
        </g>
        <circle id="Ellipse_12492" data-name="Ellipse 12492" cx="14.764" cy="14.764" r="14.764" transform="translate(33.071 24.216)" fill="#6ce79a"/>
        <path id="Path_1469483" data-name="Path 1469483" d="M373.6,195.063a14.91,14.91,0,0,0-1.691.1,14.765,14.765,0,0,1,0,29.335,14.765,14.765,0,1,0,1.691-29.432Z" transform="translate(-325.765 -170.847)" fill="#00d8a2"/>
        <g id="Group_1204371" data-name="Group 1204371" transform="translate(38.947 32.331)">
          <path id="Path_1469484" data-name="Path 1469484" d="M320.452,273.764a2.068,2.068,0,0,1-1.467-.608l-4.477-4.477a2.075,2.075,0,0,1,2.935-2.935l3.01,3.01,7.681-7.681a2.075,2.075,0,1,1,2.935,2.935l-9.149,9.148A2.069,2.069,0,0,1,320.452,273.764Z" transform="translate(-313.899 -260.465)" fill="#faf7f8"/>
        </g>
        <g id="Group_1204372" data-name="Group 1204372" transform="translate(38.017 31.4)">
          <path id="Trazado_1469485" data-name="Trazado 1469485" d="M313.883,268.126a2.986,2.986,0,0,1-2.126-.881l-4.477-4.477a3.006,3.006,0,0,1,4.251-4.251l2.352,2.352,7.023-7.023a2.987,2.987,0,0,1,2.126-.88h0a3.006,3.006,0,0,1,2.125,5.132l-9.148,9.148A2.986,2.986,0,0,1,313.883,268.126Zm-4.477-8.628a1.145,1.145,0,0,0-.81,1.954l4.477,4.477a1.145,1.145,0,0,0,1.619,0l9.149-9.148a1.145,1.145,0,1,0-1.619-1.619l-7.681,7.681a.931.931,0,0,1-1.316,0l-3.01-3.01A1.137,1.137,0,0,0,309.405,259.5Z" transform="translate(-306.399 -252.965)"/>
        </g>
        <path id="Trazado_1469486" data-name="Trazado 1469486" d="M274.735,218.953a15.7,15.7,0,1,1,10.118-27.693.931.931,0,0,1-1.2,1.422,13.827,13.827,0,1,0,2.3,2.474.931.931,0,0,1,1.508-1.091,15.7,15.7,0,0,1-12.721,24.888Z" transform="translate(-226.899 -164.278)"/>
      </g>
    </g>
  </g>
</svg>
