<svg xmlns="http://www.w3.org/2000/svg" xmlns:xlink="http://www.w3.org/1999/xlink" width="118" height="118" viewBox="0 0 118 118">
  <defs>
    <filter id="Rectangle_411831" x="0" y="0" width="118" height="118" filterUnits="userSpaceOnUse">
      <feOffset dy="3" input="SourceAlpha"/>
      <feGaussianBlur stdDeviation="3" result="blur"/>
      <feFlood flood-opacity="0.161"/>
      <feComposite operator="in" in2="blur"/>
      <feComposite in="SourceGraphic"/>
    </filter>
  </defs>
  <g id="Group_1204440" data-name="Group 1204440" transform="translate(-1269 -413)">
    <g id="Group_1204125" data-name="Group 1204125" transform="translate(942.219 -3439)">
      <g transform="matrix(1, 0, 0, 1, 326.78, 3852)" filter="url(#Rectangle_411831)">
        <g id="Rectangle_411831-2" data-name="Rectangle 411831" transform="translate(9 6)" fill="#ffc94a" stroke="#fff" stroke-width="2">
          <path d="M5,0H68a32,32,0,0,1,32,32V95a5,5,0,0,1-5,5H32A32,32,0,0,1,0,68V5A5,5,0,0,1,5,0Z" stroke="none"/>
          <path d="M5,1H68A31,31,0,0,1,99,32V95a4,4,0,0,1-4,4H32A31,31,0,0,1,1,68V5A4,4,0,0,1,5,1Z" fill="none"/>
        </g>
      </g>
    </g>
    <g id="granero" transform="translate(1291 439)">
      <path id="Path_1469623" data-name="Path 1469623" d="M91,54.25,57.958,29.736a1.163,1.163,0,0,0-1.386,0L23.531,54.25V78.659H91Zm0,0" transform="translate(-20.117 -25.225)" fill="#ff8086"/>
      <path id="Path_1469624" data-name="Path 1469624" d="M191.871,247.984h18.612v17.448H191.871Zm0,0" transform="translate(-164.028 -211.999)" fill="#785353"/>
      <path id="Path_1469625" data-name="Path 1469625" d="M191.871,247.984h18.612v3.335H191.871Zm0,0" transform="translate(-164.028 -211.999)" fill="#6e4848"/>
      <path id="Path_1469626" data-name="Path 1469626" d="M28.432,57.868,53.8,39.046a5.815,5.815,0,0,1,6.931,0L89.947,60.722l.575.427L91,60.91V54.25L57.958,29.736a1.163,1.163,0,0,0-1.386,0L23.531,54.25V78.659h3.489V60.67A3.506,3.506,0,0,1,28.432,57.868Zm0,0" transform="translate(-20.117 -25.225)" fill="#e5646e"/>
      <path id="Path_1469627" data-name="Path 1469627" d="M43.56,7.5,7.5,34.254v5.816L43.56,13.316,79.62,40.071V34.254Zm0,0" transform="translate(-6.412 -6.412)" fill="#f6d190"/>
      <path id="Path_1469628" data-name="Path 1469628" d="M87.66,215.922h48.856v4.653H87.66Zm0,0" transform="translate(-74.94 -184.589)" fill="#e5646e"/>
      <g id="Group_1204439" data-name="Group 1204439" transform="translate(15.047 16.21)">
        <path id="Path_1469629" data-name="Path 1469629" d="M223.934,111.711h9.306v9.306h-9.306Zm0,0" transform="translate(-206.486 -111.711)" fill="#ffe09f"/>
        <path id="Path_1469630" data-name="Path 1469630" d="M103.7,247.984h12.8v17.448H103.7Zm0,0" transform="translate(-103.695 -228.21)" fill="#ffe09f"/>
        <path id="Path_1469631" data-name="Path 1469631" d="M320.129,247.984h12.8v17.448h-12.8Zm0,0" transform="translate(-288.722 -228.21)" fill="#ffe09f"/>
      </g>
      <path id="Path_1469632" data-name="Path 1469632" d="M103.7,247.984h12.8v3.335H103.7Zm0,0" transform="translate(-88.648 -211.999)" fill="#f6d190"/>
      <path id="Path_1469633" data-name="Path 1469633" d="M320.129,247.984h12.8v3.335h-12.8Zm0,0" transform="translate(-273.675 -211.999)" fill="#f6d190"/>
      <path id="Path_1469634" data-name="Path 1469634" d="M72.56,34.533a1.088,1.088,0,0,0,1.737-.874V27.843a1.088,1.088,0,0,0-.44-.874L37.8.214a1.088,1.088,0,0,0-1.3,0L.44,26.969a1.088,1.088,0,0,0-.44.874v5.816a1.088,1.088,0,0,0,1.737.874l.59-.438v18.25H1.088a1.088,1.088,0,1,0,0,2.177h72.12a1.088,1.088,0,0,0,0-2.177H71.971V34.1ZM26.754,39.31v10.8l-3.96-5.4Zm-5.31,3.559-4.25-5.8h8.5Zm4.25,9.476h-8.5l4.25-5.8Zm3.236-15.272H45.366V52.345H28.931ZM47.543,39.31l3.96,5.4-3.96,5.4Zm5.31,7.24,4.25,5.8H48.6ZM54.2,44.71l3.959-5.4v10.8ZM55.761,34.9a1.088,1.088,0,1,0,0,2.177H57.1l-4.25,5.8-4.25-5.8h2.5a1.088,1.088,0,1,0,0-2.177h-37.3V32.421H60.488V34.9ZM20.1,44.71l-3.96,5.4V39.31ZM69.794,32.5v19.85H60.338V37.074h1.238a1.089,1.089,0,0,0,1.088-1.088V31.333a1.088,1.088,0,0,0-1.088-1.088H12.72a1.088,1.088,0,0,0-1.088,1.088v4.653a1.089,1.089,0,0,0,1.088,1.088h1.238V52.345H4.5V32.5s0-.009,0-.014L6.44,31.043a1.088,1.088,0,0,0-1.3-1.748L2.177,31.5V28.391L37.148,2.444,72.12,28.39V31.5L37.8,6.031a1.088,1.088,0,0,0-1.3,0L9.745,25.881a1.088,1.088,0,1,0,1.3,1.748L37.148,8.26,69.794,32.481C69.794,32.486,69.794,32.491,69.794,32.5Zm0,0"/>
      <path id="Path_1469635" data-name="Path 1469635" d="M216.438,105.3v9.306a1.088,1.088,0,0,0,1.088,1.088h9.306a1.088,1.088,0,0,0,1.088-1.088V105.3a1.089,1.089,0,0,0-1.088-1.088h-9.306A1.088,1.088,0,0,0,216.438,105.3Zm5.741,6.192,2.025,2.025h-4.051Zm-3.564.486v-4.051l2.025,2.025Zm5.1-2.026,2.025-2.025v4.051Zm-1.539-1.539-2.025-2.025H224.2Zm0,0" transform="translate(-185.03 -89.089)"/>
    </g>
  </g>
</svg>
