<svg xmlns="http://www.w3.org/2000/svg" xmlns:xlink="http://www.w3.org/1999/xlink" width="118" height="118" viewBox="0 0 118 118">
  <defs>
    <filter id="Rectangle_411831" x="0" y="0" width="118" height="118" filterUnits="userSpaceOnUse">
      <feOffset dy="3" input="SourceAlpha"/>
      <feGaussianBlur stdDeviation="3" result="blur"/>
      <feFlood flood-opacity="0.161"/>
      <feComposite operator="in" in2="blur"/>
      <feComposite in="SourceGraphic"/>
    </filter>
  </defs>
  <g id="Group_1204472" data-name="Group 1204472" transform="translate(-1269.051 -437.5)">
    <g id="Group_1204455" data-name="Group 1204455">
      <g transform="matrix(1, 0, 0, 1, 1269.05, 437.5)" filter="url(#Rectangle_411831)">
        <g id="Rectangle_411831-2" data-name="Rectangle 411831" transform="translate(9 6)" fill="#ffc94a" stroke="#fff" stroke-width="2">
          <path d="M5,0H68a32,32,0,0,1,32,32V95a5,5,0,0,1-5,5H32A32,32,0,0,1,0,68V5A5,5,0,0,1,5,0Z" stroke="none"/>
          <path d="M5,1H68A31,31,0,0,1,99,32V95a4,4,0,0,1-4,4H32A31,31,0,0,1,1,68V5A4,4,0,0,1,5,1Z" fill="none"/>
        </g>
      </g>
      <g id="Group_1204453" data-name="Group 1204453" transform="translate(1298.533 456.027)">
        <path id="Path_1469712" data-name="Path 1469712" d="M36.528,8.621a2.859,2.859,0,0,0-3.009.394,2.86,2.86,0,0,0-5.68,0,2.861,2.861,0,0,0-4.263,3.7l3.262,5.364h7.68l3.262-5.364a2.862,2.862,0,0,0-1.253-4.089Z" transform="translate(-13.34 -6.497)" fill="#f7502f"/>
        <path id="Path_1469713" data-name="Path 1469713" d="M13.966,35.917,6.5,39.9l6.14,3.979Z" transform="translate(-6.5 -18.576)" fill="#f7502f"/>
        <path id="Path_1469714" data-name="Path 1469714" d="M26.049,19.625A10.877,10.877,0,0,1,36.373,27.08l4.6,13.887s27.8,10.4,35.464-3.224C75.7,55.359,65.093,71.126,42.548,71.42S10.424,61.305,11.9,45A72.735,72.735,0,0,1,15.839,26.75a10.852,10.852,0,0,1,10.21-7.126Z" transform="translate(-8.656 -11.887)" fill="#f4a86c"/>
        <ellipse id="Ellipse_12511" data-name="Ellipse 12511" cx="6.85" cy="10.38" rx="6.85" ry="10.38" transform="translate(48.87 42.774)" fill="#efeffb"/>
        <ellipse id="Ellipse_12512" data-name="Ellipse 12512" cx="6.85" cy="10.38" rx="6.85" ry="10.38" transform="translate(37.956 44.899)" fill="#dfdfe5"/>
        <ellipse id="Ellipse_12513" data-name="Ellipse 12513" cx="6.85" cy="10.38" rx="6.85" ry="10.38" transform="translate(5.215 42.774)" fill="#efeffb"/>
        <ellipse id="Ellipse_12514" data-name="Ellipse 12514" cx="6.85" cy="10.38" rx="6.85" ry="10.38" transform="translate(16.128 44.899)" fill="#dfdfe5"/>
        <ellipse id="Ellipse_12515" data-name="Ellipse 12515" cx="6.85" cy="10.38" rx="6.85" ry="10.38" transform="translate(27.042 47.025)" fill="#efeffb"/>
        <path id="Path_1469715" data-name="Path 1469715" d="M46.984,51.438C46.09,39.281,71.3,43.186,79.844,35.917c1.817,8.989-3.193,12.034-3.193,12.034,3.34.983,1.768,4.814.2,5.4.393,3.242-4.028,8.841-17,7.368S46.984,51.438,46.984,51.438Z" transform="translate(-23.112 -18.576)" fill="#d78759"/>
        <circle id="Ellipse_12516" data-name="Ellipse 12516" cx="1.768" cy="1.768" r="1.768" transform="translate(12.064 16.506)" fill="#efeffb"/>
      </g>
      <g id="Group_1204454" data-name="Group 1204454" transform="translate(1297.505 455)">
        <path id="Path_1469716" data-name="Path 1469716" d="M11.027,65.163h.031a1.031,1.031,0,0,0,1.03-1c.021-.691.064-1.4.128-2.122a1.032,1.032,0,1,0-2.055-.185c-.068.757-.114,1.512-.136,2.245a1.031,1.031,0,0,0,1,1.064Z" transform="translate(-6.919 -27.813)" fill="#251333"/>
        <path id="Path_1469717" data-name="Path 1469717" d="M74.6,31.679a1.032,1.032,0,0,0-1.93-.548c-1.9,3.389-5.384,5.465-10.349,6.189a3.242,3.242,0,0,0-1.189-2.375c1.537-1.655,3.752-5.328,2.4-12.024a1.032,1.032,0,0,0-1.679-.581,17.434,17.434,0,0,1-6.563,3.079,1.031,1.031,0,1,0,.562,1.985,22.61,22.61,0,0,0,5.92-2.456c.811,6.847-2.819,9.229-2.978,9.331a1.031,1.031,0,0,0,.245,1.871c1.073.316,1.218.915,1.233,1.339A2.513,2.513,0,0,1,59.157,39.6a1.033,1.033,0,0,0-.662,1.09,4.189,4.189,0,0,1-1.428,3.228c-1.241,1.251-5.128,4.048-14.426,2.99-11.793-1.342-11.953-7.974-11.954-8.247,0-.029,0-.059,0-.088-.463-6.3,7.648-7.747,16.236-9.281,1.419-.254,2.888-.516,4.307-.8a1.032,1.032,0,0,0-.4-2.023c-1.4.281-2.857.541-4.266.793a82.821,82.821,0,0,0-9.223,2l-2.856-8.612a11.88,11.88,0,0,0-4.6-6.095l1.231-2.022A3.894,3.894,0,0,0,26.56,6.815a3.894,3.894,0,0,0-6.87,0,3.89,3.89,0,0,0-4.547,5.72l1.26,2.075A11.818,11.818,0,0,0,12,20.294c-.337.928-.648,1.877-.951,2.839L5.3,26.2a1.031,1.031,0,0,0-.075,1.777l3.959,2.562c-.307,1.561-.575,3.149-.792,4.768a1.032,1.032,0,0,0,.884,1.159.992.992,0,0,0,.138.009,1.032,1.032,0,0,0,1.021-.895A69.77,69.77,0,0,1,13.939,21a9.843,9.843,0,0,1,18.581.3l2.862,8.63c-4.206,1.622-7.083,4.154-6.759,8.751.011.8.456,8.754,13.784,10.269a37.085,37.085,0,0,0,4.185.249c6.963,0,10.412-2.3,11.938-3.836a6.487,6.487,0,0,0,2.041-4.225,4.425,4.425,0,0,0,1.316-1.693c4.445-.526,7.925-2,10.374-4.409a36.257,36.257,0,0,1-5.409,15.5A6.771,6.771,0,0,0,61.5,47.528c-2.462,0-4.737,1.637-6.208,4.362a6.475,6.475,0,0,0-4.7-2.24c-2.46,0-4.732,1.631-6.2,4.348a6.109,6.109,0,0,0-9.423,0c-1.474-2.717-3.746-4.346-6.205-4.346a6.476,6.476,0,0,0-4.7,2.24c-1.474-2.727-3.746-4.362-6.208-4.362S13.2,49.1,11.77,51.605a21.935,21.935,0,0,1-1.757-7.08,1.031,1.031,0,1,0-2.055.177A23.19,23.19,0,0,0,10.7,54.09a16.059,16.059,0,0,0-.732,4.848c0,6.4,3.462,11.411,7.881,11.411A6.465,6.465,0,0,0,22.541,68.1c1.474,2.734,3.752,4.375,6.218,4.375a6.383,6.383,0,0,0,4.685-2.233c1.43,2.667,3.666,4.362,6.231,4.362s4.8-1.694,6.23-4.362a6.384,6.384,0,0,0,4.686,2.232c2.465,0,4.744-1.641,6.217-4.375A6.467,6.467,0,0,0,61.5,70.348c3.1,0,5.913-2.618,7.179-6.669a1.031,1.031,0,1,0-1.969-.615c-.991,3.171-3.036,5.221-5.209,5.221a4.794,4.794,0,0,1-3.8-2.325,16.012,16.012,0,0,0,.766-4.9,14.8,14.8,0,0,0-1.8-7.274c1.086-2.6,2.909-4.2,4.833-4.2,3.112,0,5.721,4.067,5.815,9.065a1.031,1.031,0,0,0,1.031,1.012h.019a1.031,1.031,0,0,0,1.012-1.051,15.144,15.144,0,0,0-1.342-6.09A39.251,39.251,0,0,0,74.6,31.679ZM7.815,27.189l2.433-1.3c-.216.815-.417,1.642-.607,2.476Zm10.38-13.6L16.9,11.46A1.828,1.828,0,0,1,19.629,9.1a1.031,1.031,0,0,0,1.678-.677,1.827,1.827,0,0,1,3.627,0,1.032,1.032,0,0,0,1.675.68,1.832,1.832,0,0,1,2.736,2.359l-1.27,2.085a11.824,11.824,0,0,0-9.88.044Zm-.347,54.7c-3.153,0-5.818-4.281-5.818-9.348s2.664-9.348,5.818-9.348c1.925,0,3.748,1.6,4.833,4.2a14.8,14.8,0,0,0-1.8,7.273,15.939,15.939,0,0,0,.766,4.9,4.791,4.791,0,0,1-3.8,2.326Zm10.91,2.122c-2.019,0-3.927-1.753-4.99-4.579-.006-.019-.012-.038-.019-.059a13.717,13.717,0,0,1-.808-4.711A12.49,12.49,0,0,1,24.7,54.42c1.1-1.746,2.546-2.708,4.062-2.708,1.919,0,3.736,1.58,4.824,4.158a14.866,14.866,0,0,0-1.79,7.318,16.021,16.021,0,0,0,.753,4.918,4.805,4.805,0,0,1-3.788,2.3Zm10.916,2.127c-3.154,0-5.819-4.281-5.819-9.348s2.665-9.349,5.819-9.349,5.819,4.281,5.819,9.349S42.829,72.536,39.675,72.536Zm10.916-2.128a4.8,4.8,0,0,1-3.788-2.3,16.021,16.021,0,0,0,.753-4.918,14.866,14.866,0,0,0-1.79-7.318c1.088-2.578,2.905-4.158,4.824-4.158,1.515,0,2.958.962,4.067,2.711a12.489,12.489,0,0,1,1.751,6.637,13.774,13.774,0,0,1-.808,4.715c-1.059,2.858-2.978,4.633-5.009,4.633Z" transform="translate(-4.755 -4.755)" fill="#251333"/>
        <path id="Path_1469718" data-name="Path 1469718" d="M65.2,50.411c-1.591.34-2.9.667-4.012,1a1.031,1.031,0,0,0,.295,2.02,1.051,1.051,0,0,0,.295-.043c1.056-.317,2.315-.631,3.852-.959a1.031,1.031,0,1,0-.431-2.017Z" transform="translate(-27.624 -23.492)" fill="#251333"/>
        <path id="Path_1469719" data-name="Path 1469719" d="M30.818,35.55a2.8,2.8,0,1,0-2.8,2.8A2.8,2.8,0,0,0,30.818,35.55Zm-3.537,0a.737.737,0,1,1,.737.737A.737.737,0,0,1,27.281,35.55Z" transform="translate(-13.156 -16.249)" fill="#251333"/>
      </g>
    </g>
  </g>
</svg>
