<svg xmlns="http://www.w3.org/2000/svg" xmlns:xlink="http://www.w3.org/1999/xlink" width="118" height="118" viewBox="0 0 118 118">
  <defs>
    <filter id="Rectangle_411831" x="0" y="0" width="118" height="118" filterUnits="userSpaceOnUse">
      <feOffset dy="3" input="SourceAlpha"/>
      <feGaussianBlur stdDeviation="3" result="blur"/>
      <feFlood flood-opacity="0.161"/>
      <feComposite operator="in" in2="blur"/>
      <feComposite in="SourceGraphic"/>
    </filter>
  </defs>
  <g id="Group_1204438" data-name="Group 1204438" transform="translate(-1269.051 -413)">
    <g id="Group_1204125" data-name="Group 1204125" transform="translate(942.27 -3439)">
      <g transform="matrix(1, 0, 0, 1, 326.78, 3852)" filter="url(#Rectangle_411831)">
        <g id="Rectangle_411831-2" data-name="Rectangle 411831" transform="translate(9 6)" fill="#ffc94a" stroke="#fff" stroke-width="2">
          <path d="M5,0H68a32,32,0,0,1,32,32V95a5,5,0,0,1-5,5H32A32,32,0,0,1,0,68V5A5,5,0,0,1,5,0Z" stroke="none"/>
          <path d="M5,1H68A31,31,0,0,1,99,32V95a4,4,0,0,1-4,4H32A31,31,0,0,1,1,68V5A4,4,0,0,1,5,1Z" fill="none"/>
        </g>
      </g>
    </g>
    <g id="Artboard21" transform="translate(1249.438 420.593)">
      <g id="Group_1204437" data-name="Group 1204437" transform="translate(52.613 7)">
        <g id="Group_1204436" data-name="Group 1204436" transform="translate(1.243 1.19)">
          <g id="Group_1204433" data-name="Group 1204433" transform="translate(0 13.911)">
            <g id="Group_1204429" data-name="Group 1204429">
              <g id="CorelEMF">
                <path id="Path_1469601" data-name="Path 1469601" d="M62,104.23H98.2a1.334,1.334,0,0,1,.976.4l6.57,6.57a1.335,1.335,0,0,1,.4.976v49.69a1.38,1.38,0,0,1-1.377,1.377H62a1.38,1.38,0,0,1-1.38-1.377V105.61A1.383,1.383,0,0,1,62,104.23Z" transform="translate(-60.616 -104.23)" fill="#eceff1" fill-rule="evenodd"/>
                <path id="Path_1469602" data-name="Path 1469602" d="M306.3,104.993v6.57a.692.692,0,0,0,.69.69h6.57a1.384,1.384,0,0,0-.286-.4l-6.57-6.57A1.449,1.449,0,0,0,306.3,104.993Z" transform="translate(-268.147 -104.874)" fill="#a79ba7" fill-rule="evenodd"/>
                <path id="Path_1469603" data-name="Path 1469603" d="M62,104.23h1.377v59.017H62a1.38,1.38,0,0,1-1.38-1.377V105.61A1.383,1.383,0,0,1,62,104.23Z" transform="translate(-60.616 -104.23)" fill="#d1d1d6" fill-rule="evenodd"/>
              </g>
            </g>
            <g id="Group_1204430" data-name="Group 1204430" transform="translate(8.196 15.107)">
              <path id="Path_1469604" data-name="Path 1469604" d="M114.393,201.5h7.7a1.008,1.008,0,0,1,1,1.005v7.7a1.008,1.008,0,0,1-1,1.005h-7.7a1.008,1.008,0,0,1-1.005-1.005v-7.7A1.008,1.008,0,0,1,114.393,201.5Z" transform="translate(-113.388 -201.5)" fill="#8ac9fe" fill-rule="evenodd"/>
              <path id="Path_1469605" data-name="Path 1469605" d="M161.462,201.5H162.7a1.008,1.008,0,0,1,1.005,1.005v7.7a1.008,1.008,0,0,1-1.005,1.005h-1.242a1.008,1.008,0,0,0,1.005-1.005v-7.7A1.008,1.008,0,0,0,161.462,201.5Z" transform="translate(-153.996 -201.5)" fill="#60b7ff" fill-rule="evenodd"/>
            </g>
            <g id="Group_1204431" data-name="Group 1204431" transform="translate(8.196 28.973)">
              <path id="Path_1469606" data-name="Path 1469606" d="M114.393,290.779h7.7a1.008,1.008,0,0,1,1,1.005v7.7a1.008,1.008,0,0,1-1,1h-7.7a1.008,1.008,0,0,1-1.005-1v-7.7A1.008,1.008,0,0,1,114.393,290.779Z" transform="translate(-113.388 -290.779)" fill="#6cf5c2" fill-rule="evenodd"/>
              <path id="Path_1469607" data-name="Path 1469607" d="M161.462,290.779H162.7a1.008,1.008,0,0,1,1.005,1.005v7.7a1.008,1.008,0,0,1-1.005,1h-1.242a1.008,1.008,0,0,0,1.005-1v-7.7A1.008,1.008,0,0,0,161.462,290.779Z" transform="translate(-153.996 -290.779)" fill="#00e499" fill-rule="evenodd"/>
            </g>
            <g id="Group_1204432" data-name="Group 1204432" transform="translate(8.196 42.838)">
              <path id="Path_1469608" data-name="Path 1469608" d="M114.393,380.058h7.7a1.01,1.01,0,0,1,1,1.008v7.7a1.008,1.008,0,0,1-1,1.005h-7.7a1.008,1.008,0,0,1-1.005-1.005v-7.7A1.011,1.011,0,0,1,114.393,380.058Z" transform="translate(-113.388 -380.058)" fill="#ffe177" fill-rule="evenodd"/>
              <path id="Path_1469609" data-name="Path 1469609" d="M161.462,380.058H162.7a1.01,1.01,0,0,1,1.005,1.008v7.7a1.008,1.008,0,0,1-1.005,1.005h-1.242a1.008,1.008,0,0,0,1.005-1.005v-7.7A1.01,1.01,0,0,0,161.462,380.058Z" transform="translate(-153.996 -380.058)" fill="#ffd064" fill-rule="evenodd"/>
            </g>
          </g>
          <g id="Group_1204434" data-name="Group 1204434" transform="translate(26.999 41.309)">
            <path id="Path_1469610" data-name="Path 1469610" d="M249.49,331.822a15.032,15.032,0,1,0-15.034-15.033A15.063,15.063,0,0,0,249.49,331.822Z" transform="translate(-234.456 -298.477)" fill="#fe646f" fill-rule="evenodd"/>
            <path id="Path_1469611" data-name="Path 1469611" d="M325.709,301.757a15.032,15.032,0,1,1,0,30.065c-.343,0-.682-.011-1.019-.035a15.032,15.032,0,0,0,0-30C325.027,301.769,325.366,301.757,325.709,301.757Z" transform="translate(-310.676 -298.477)" fill="#fd4755" fill-rule="evenodd"/>
            <path id="Path_1469612" data-name="Path 1469612" d="M278.712,355.671a9.66,9.66,0,1,0-9.661-9.661A9.68,9.68,0,0,0,278.712,355.671Z" transform="translate(-263.678 -327.7)" fill="#eceff1" fill-rule="evenodd"/>
            <path id="Path_1469613" data-name="Path 1469613" d="M278.712,336.352c.229,0,.455.008.68.023a9.661,9.661,0,0,0,0,19.273c-.225.015-.451.023-.68.023a9.66,9.66,0,1,1,0-19.319Z" transform="translate(-263.678 -327.7)" fill="#d1d1d6" fill-rule="evenodd"/>
            <path id="Path_1469614" data-name="Path 1469614" d="M307.933,379.52a4.287,4.287,0,1,0-4.288-4.288A4.3,4.3,0,0,0,307.933,379.52Z" transform="translate(-292.899 -356.921)" fill="#fe646f" fill-rule="evenodd"/>
            <path id="Path_1469615" data-name="Path 1469615" d="M307.933,370.946a4.287,4.287,0,1,0,0,8.574,4.168,4.168,0,0,0,.68-.054,4.287,4.287,0,0,1,0-8.466,4.168,4.168,0,0,0-.68-.054Z" transform="translate(-292.899 -356.921)" fill="#fd4755" fill-rule="evenodd"/>
            <path id="Path_1469616" data-name="Path 1469616" d="M388.327,286.371l-5.274,5.276a.664.664,0,0,1-.625.183l-4.271-.921-.921-4.271a.661.661,0,0,1,.185-.624l5.275-5.275a.341.341,0,0,1,.572.17l.867,4.022,4.022.867a.339.339,0,0,1,.17.572Z" transform="translate(-355.048 -280.64)" fill="#e3a76f" fill-rule="evenodd"/>
            <path id="Path_1469617" data-name="Path 1469617" d="M392.116,313.611l-5.274,5.276a.664.664,0,0,1-.624.183l-4.271-.921-.241-1.118,4.084.881a.667.667,0,0,0,.624-.185l4.837-4.839.7.15a.339.339,0,0,1,.17.572Z" transform="translate(-358.837 -307.88)" fill="#c48958" fill-rule="evenodd"/>
          </g>
          <g id="Group_1204435" data-name="Group 1204435" transform="translate(6.802)">
            <path id="Path_1469618" data-name="Path 1469618" d="M119.709,16.774A10.875,10.875,0,0,1,122.9,18.1l2.072-.919,2.441,2.441-.919,2.072a10.875,10.875,0,0,1,1.322,3.189l2.114.814v3.454l-2.114.814a10.884,10.884,0,0,1-1.322,3.187l.919,2.072-2.441,2.443-2.072-.921a10.879,10.879,0,0,1-3.189,1.323l-.814,2.113h-3.454l-.814-2.114a10.885,10.885,0,0,1-3.187-1.322l-2.072.921-2.443-2.443.921-2.071a10.914,10.914,0,0,1-1.323-3.189l-2.113-.814V25.692l2.113-.814a10.879,10.879,0,0,1,1.323-3.189l-.921-2.072,2.443-2.441,2.071.919a10.911,10.911,0,0,1,3.189-1.322l.814-2.114H118.9Z" transform="translate(-104.411 -14.66)" fill="#ffe177" fill-rule="evenodd"/>
            <path id="Path_1469619" data-name="Path 1469619" d="M149.558,17.486l.7-.309,2.441,2.441-.919,2.072a10.875,10.875,0,0,1,1.322,3.189l2.114.814v3.454l-2.114.814a10.883,10.883,0,0,1-1.322,3.187l.919,2.072-2.441,2.443-.7-.309,2.134-2.134-.921-2.072a10.884,10.884,0,0,0,1.322-3.187l2.114-.814V25.692l-2.114-.814a10.875,10.875,0,0,0-1.322-3.189l.921-2.072Zm-15.214,0,.309-.309,2.071.919c-.146.081-.291.166-.433.255Zm10.65-.711a10.875,10.875,0,0,1,3.189,1.322l-.571.255a14.23,14.23,0,0,0-3.623-1.576l-.814-2.114h1.005Zm-8.269,19.967-2.072.921-.309-.309,1.947-.865Q136.5,36.619,136.725,36.741Zm11.457,0a10.879,10.879,0,0,1-3.189,1.323l-.814,2.113h-1.005l.814-2.113a14.264,14.264,0,0,0,3.624-1.576Z" transform="translate(-129.695 -14.66)" fill="#ffd064" fill-rule="evenodd"/>
            <path id="Path_1469620" data-name="Path 1469620" d="M152.548,56.544A6.254,6.254,0,1,1,146.3,62.8,6.254,6.254,0,0,1,152.548,56.544Z" transform="translate(-139.79 -50.039)" fill="#eceff1" fill-rule="evenodd"/>
            <path id="Path_1469621" data-name="Path 1469621" d="M152.548,56.544c.142,0,.283.005.424.015a6.253,6.253,0,0,0,0,12.478c-.141.009-.282.014-.424.014a6.254,6.254,0,0,1,0-12.507Z" transform="translate(-139.79 -50.039)" fill="#d1d1d6" fill-rule="evenodd"/>
          </g>
        </g>
        <path id="Path_1469622" data-name="Path 1469622" d="M88.637,82.377H53.814a1.2,1.2,0,0,1-1.2-1.2V22.158a1.2,1.2,0,0,1,1.2-1.2H59.37V19.279a1.242,1.242,0,0,1,.8-1.16l1.525-.587a12.17,12.17,0,0,1,.968-2.333l-.664-1.494a1.242,1.242,0,0,1,.257-1.383l2.441-2.441a1.242,1.242,0,0,1,1.383-.257l1.494.664a12.1,12.1,0,0,1,2.33-.966l.59-1.528A1.242,1.242,0,0,1,71.648,7H75.1a1.243,1.243,0,0,1,1.16.8l.587,1.527a12.1,12.1,0,0,1,2.329.965l1.494-.664a1.242,1.242,0,0,1,1.383.257l2.441,2.441a1.243,1.243,0,0,1,.257,1.382L84.09,15.2a12.076,12.076,0,0,1,.966,2.334l1.523.586a1.242,1.242,0,0,1,.8,1.16v1.678h4.6a1.2,1.2,0,0,1,.85.352l7.38,7.38a1.2,1.2,0,0,1,.352.85V52.53a16.014,16.014,0,0,1,2.335.941l4.893-4.9a1.243,1.243,0,0,1,2.093.617l.509,2.364a1.243,1.243,0,0,1,1.749,1.749l2.364.509a1.242,1.242,0,0,1,.617,2.093l-4.907,4.907A16.109,16.109,0,0,1,88.637,82.377ZM59.54,23.359H55.016V79.974H85.067a16.2,16.2,0,0,1-4.6-6.923h-2.6a1.2,1.2,0,1,1,0-2.4h1.992q-.134-.78-.192-1.584h-1.8a1.2,1.2,0,1,1,0-2.4H79.67a16.007,16.007,0,0,1,2.533-7.48h-4.34a1.2,1.2,0,1,1,0-2.4H84.1A16.287,16.287,0,0,1,85.858,55.2h-8a1.2,1.2,0,1,1,0-2.4h12.3a16.122,16.122,0,0,1,7.985-.817V30.739H91.971a1.2,1.2,0,0,1-1.2-1.2V23.359H87.205a1.241,1.241,0,0,1-.626.532l-1.524.586a12.2,12.2,0,0,1-.966,2.329l.663,1.5a1.243,1.243,0,0,1-.257,1.382l-2.441,2.441a1.243,1.243,0,0,1-1.382.257l-1.494-.662a12.067,12.067,0,0,1-2.331.966L76.26,34.21a1.242,1.242,0,0,1-1.16.8H71.648a1.242,1.242,0,0,1-1.16-.8L69.9,32.687a12.179,12.179,0,0,1-2.333-.967l-1.5.663a1.242,1.242,0,0,1-1.382-.257l-2.441-2.441a1.242,1.242,0,0,1-.257-1.383l.664-1.493a12.164,12.164,0,0,1-.967-2.33l-1.525-.587a1.241,1.241,0,0,1-.626-.532Zm36.911,4.977-3.278-3.278v3.278Zm5.068,27.233a13.644,13.644,0,1,0,6.581,6.6l-.041-.008-3.748-.808a10.819,10.819,0,1,1-1.975-1.982l-.806-3.735C101.526,55.612,101.522,55.59,101.518,55.569Zm6.773-1.929-.365-1.695L104.1,55.771l.365,1.693Zm-2.067,5.581,1.7.366,3.824-3.824-1.7-.365Zm-5.532,2.018A8.331,8.331,0,1,0,102.445,63l-2.034,2.034a5.485,5.485,0,1,1-1.749-1.765Zm-3.874,3.874a3,3,0,1,0,1.742,1.772L96.636,68.81a1.242,1.242,0,0,1-1.757-1.757ZM74.754,10.806l-.507-1.321H72.5l-.51,1.322a1.242,1.242,0,0,1-.872.761,9.618,9.618,0,0,0-2.824,1.17,1.243,1.243,0,0,1-1.157.078l-1.292-.575-1.234,1.234.575,1.292a1.242,1.242,0,0,1-.077,1.157,9.7,9.7,0,0,0-1.174,2.83,1.242,1.242,0,0,1-.762.87l-1.318.507v1.746l1.318.507a1.242,1.242,0,0,1,.762.869,9.677,9.677,0,0,0,1.174,2.826,1.243,1.243,0,0,1,.079,1.158l-.575,1.292,1.235,1.235,1.293-.573a1.242,1.242,0,0,1,1.152.077,9.691,9.691,0,0,0,2.829,1.172,1.243,1.243,0,0,1,.873.763l.507,1.318h1.746l.507-1.318a1.243,1.243,0,0,1,.872-.763,9.571,9.571,0,0,0,2.822-1.169,1.242,1.242,0,0,1,1.157-.079l1.293.573,1.236-1.236-.573-1.293a1.243,1.243,0,0,1,.077-1.152,9.711,9.711,0,0,0,1.172-2.827,1.242,1.242,0,0,1,.763-.872l1.318-.507V20.132l-1.318-.507a1.242,1.242,0,0,1-.763-.873,9.6,9.6,0,0,0-1.17-2.826,1.242,1.242,0,0,1-.078-1.155l.573-1.293L80.9,12.242l-1.292.575a1.243,1.243,0,0,1-1.157-.078,9.616,9.616,0,0,0-2.824-1.17,1.243,1.243,0,0,1-.873-.763Zm-1.382,2.933A7.266,7.266,0,1,1,66.108,21a7.265,7.265,0,0,1,7.265-7.265Zm0,2.485A4.781,4.781,0,1,0,78.156,21a4.778,4.778,0,0,0-4.783-4.78ZM63.016,36.063h7.7a2.212,2.212,0,0,1,2.206,2.206v7.7a2.212,2.212,0,0,1-2.206,2.206h-7.7a2.212,2.212,0,0,1-2.206-2.206v-7.7A2.212,2.212,0,0,1,63.016,36.063Zm.2,2.4v7.311h7.311V38.466Zm.756,4.307a1.2,1.2,0,0,1,1.7-1.7l.745.744,1.57-1.941a1.2,1.2,0,0,1,1.869,1.511l-2.408,2.978a1.2,1.2,0,0,1-1.783.1Zm-.953,21.022h7.7A2.216,2.216,0,0,1,72.926,66v7.7a2.212,2.212,0,0,1-2.206,2.206h-7.7a2.212,2.212,0,0,1-2.206-2.206V66A2.216,2.216,0,0,1,63.016,63.794Zm.2,2.4v7.314h7.311V66.2Zm.756,4.31a1.2,1.2,0,1,1,1.7-1.7l.745.744,1.57-1.941a1.2,1.2,0,0,1,1.869,1.511L67.441,72.1a1.2,1.2,0,0,1-1.783.1ZM77.863,45.316a1.2,1.2,0,1,1,0-2.4h8.209a1.2,1.2,0,1,1,0,2.4ZM63.016,49.929h7.7a2.212,2.212,0,0,1,2.206,2.207v7.7a2.212,2.212,0,0,1-2.206,2.206h-7.7a2.212,2.212,0,0,1-2.206-2.206v-7.7A2.212,2.212,0,0,1,63.016,49.929Zm.2,2.4v7.311h7.311V52.332Zm.755,4.306a1.2,1.2,0,1,1,1.7-1.7l.746.746,1.569-1.94a1.2,1.2,0,0,1,1.869,1.511l-2.408,2.978a1.2,1.2,0,0,1-1.784.094Zm13.9-15.308a1.2,1.2,0,0,1,0-2.4H90.474a1.2,1.2,0,0,1,0,2.4Z" transform="translate(-52.613 -7)" fill-rule="evenodd"/>
      </g>
    </g>
  </g>
</svg>
