<svg xmlns="http://www.w3.org/2000/svg" xmlns:xlink="http://www.w3.org/1999/xlink" width="118" height="118" viewBox="0 0 118 118">
  <defs>
    <filter id="Rectangle_411831" x="0" y="0" width="118" height="118" filterUnits="userSpaceOnUse">
      <feOffset dy="3" input="SourceAlpha"/>
      <feGaussianBlur stdDeviation="3" result="blur"/>
      <feFlood flood-opacity="0.161"/>
      <feComposite operator="in" in2="blur"/>
      <feComposite in="SourceGraphic"/>
    </filter>
  </defs>
  <g id="Group_1204392" data-name="Group 1204392" transform="translate(847 7876)">
    <g id="Group_1204135" data-name="Group 1204135" transform="translate(-1173.781 -11728)">
      <g transform="matrix(1, 0, 0, 1, 326.78, 3852)" filter="url(#Rectangle_411831)">
        <g id="Rectangle_411831-2" data-name="Rectangle 411831" transform="translate(9 6)" fill="#ffc94a" stroke="#fff" stroke-width="2">
          <path d="M5,0H68a32,32,0,0,1,32,32V95a5,5,0,0,1-5,5H32A32,32,0,0,1,0,68V5A5,5,0,0,1,5,0Z" stroke="none"/>
          <path d="M5,1H68A31,31,0,0,1,99,32V95a4,4,0,0,1-4,4H32A31,31,0,0,1,1,68V5A4,4,0,0,1,5,1Z" fill="none"/>
        </g>
      </g>
    </g>
    <g id="capacitacion" transform="translate(-821 -7859.466)">
      <g id="Group_1204387" data-name="Group 1204387" transform="translate(0.965 8.431)">
        <path id="Path_1469538" data-name="Path 1469538" d="M59.07,71.957a12.221,12.221,0,0,1-9.594-19.8H9.429A1.929,1.929,0,0,0,7.5,54.087V89.208a1.929,1.929,0,0,0,1.929,1.929h55.39a1.929,1.929,0,0,0,1.929-1.929V69.238A12.168,12.168,0,0,1,59.07,71.957Z" transform="translate(-7.5 -47.374)" fill="#eaf6ff"/>
        <path id="Path_1469539" data-name="Path 1469539" d="M124.6,192.38h-4.366v-12.3a.643.643,0,0,1,.643-.643h3.079a.643.643,0,0,1,.643.643Z" transform="translate(-105.735 -158.284)" fill="#86e8d0"/>
        <path id="Path_1469540" data-name="Path 1469540" d="M194.908,192.38h-4.366v-12.3a.643.643,0,0,1,.643-.643h3.079a.643.643,0,0,1,.643.643Z" transform="translate(-166.998 -158.284)" fill="#d9b1ee"/>
        <path id="Path_1469541" data-name="Path 1469541" d="M54.293,237.8H50.666a.739.739,0,0,1-.739-.739v-4.855a.643.643,0,0,1,.643-.643H53.65a.643.643,0,0,1,.643.643Z" transform="translate(-44.47 -203.703)" fill="#fedf30"/>
        <path id="Path_1469542" data-name="Path 1469542" d="M264.475,219.843h-3.627V211.6a.643.643,0,0,1,.643-.643h3.079a.643.643,0,0,1,.643.643V219.1A.739.739,0,0,1,264.475,219.843Z" transform="translate(-228.261 -185.747)" fill="#fdb97e"/>
        <path id="Path_1469543" data-name="Path 1469543" d="M62.873,187.058V201.8a1.286,1.286,0,0,1-1.286,1.286H7.5v1.827a1.929,1.929,0,0,0,1.929,1.929h55.39a1.929,1.929,0,0,0,1.929-1.929V184.945A12.216,12.216,0,0,1,62.873,187.058Z" transform="translate(-7.5 -163.082)" fill="#d8ecfe"/>
        <g id="Group_1204384" data-name="Group 1204384" transform="translate(0.152 39.347)">
          <path id="Path_1469544" data-name="Path 1469544" d="M23.865,406.874H13.141a4.462,4.462,0,0,0-4.462,4.462v5.2a1.929,1.929,0,0,0,1.929,1.929H28.327v-7.134A4.463,4.463,0,0,0,23.865,406.874Z" transform="translate(-8.679 -395.813)" fill="#fedf30"/>
          <circle id="Ellipse_12495" data-name="Ellipse 12495" cx="5.531" cy="5.531" r="5.531" transform="translate(4.293)" fill="#ffdfcf"/>
        </g>
        <g id="Group_1204385" data-name="Group 1204385" transform="translate(19.8 39.347)">
          <path id="Path_1469545" data-name="Path 1469545" d="M176.624,406.874H165.9a4.462,4.462,0,0,0-4.462,4.462v7.134h19.648v-7.134A4.463,4.463,0,0,0,176.624,406.874Z" transform="translate(-161.438 -395.813)" fill="#86e8d0"/>
          <circle id="Ellipse_12496" data-name="Ellipse 12496" cx="5.531" cy="5.531" r="5.531" transform="translate(4.293)" fill="#bb5d4c"/>
        </g>
        <g id="Group_1204386" data-name="Group 1204386" transform="translate(39.449 39.347)">
          <path id="Path_1469546" data-name="Path 1469546" d="M329.383,406.874H318.659a4.462,4.462,0,0,0-4.462,4.462v7.134h17.719a1.929,1.929,0,0,0,1.929-1.929v-5.2A4.463,4.463,0,0,0,329.383,406.874Z" transform="translate(-314.197 -395.813)" fill="#fdb97e"/>
          <circle id="Ellipse_12497" data-name="Ellipse 12497" cx="5.531" cy="5.531" r="5.531" transform="translate(4.293)" fill="#ffdfcf"/>
        </g>
        <circle id="Ellipse_12498" data-name="Ellipse 12498" cx="12.355" cy="12.355" r="12.355" transform="translate(39.215)" fill="#86e8d0"/>
        <path id="Path_1469547" data-name="Path 1469547" d="M354.425,19.383A12.359,12.359,0,0,1,342.19,40.117a12.357,12.357,0,1,0,12.235-20.734Z" transform="translate(-299.141 -18.815)" fill="#5de1c4"/>
        <path id="Path_1469548" data-name="Path 1469548" d="M76.881,100.2H50.57a.643.643,0,0,1-.643-.643V95.229a.643.643,0,0,1,.643-.643H76.881a.643.643,0,0,1,.643.643v4.327A.643.643,0,0,1,76.881,100.2Z" transform="translate(-44.47 -84.345)" fill="#d9b1ee"/>
        <path id="Path_1469549" data-name="Path 1469549" d="M76.881,94.586H73.675V96.7a.643.643,0,0,1-.643.643h-23.1v2.216a.643.643,0,0,0,.643.643H76.881a.643.643,0,0,0,.643-.643V95.229A.643.643,0,0,0,76.881,94.586Z" transform="translate(-44.47 -84.345)" fill="#cb97e7"/>
        <path id="Path_1469550" data-name="Path 1469550" d="M57.058,322.534a5.53,5.53,0,0,1-5.877,8.721,5.53,5.53,0,1,0,5.877-8.721Z" transform="translate(-45.563 -282.973)" fill="#ffcebf"/>
        <path id="Path_1469551" data-name="Path 1469551" d="M209.817,322.534a5.53,5.53,0,0,1-5.877,8.721,5.53,5.53,0,1,0,5.877-8.721Z" transform="translate(-178.673 -282.973)" fill="#a44f3e"/>
        <path id="Path_1469552" data-name="Path 1469552" d="M362.577,322.534a5.53,5.53,0,0,1-5.877,8.721,5.53,5.53,0,1,0,5.877-8.721Z" transform="translate(-311.784 -282.973)" fill="#ffcebf"/>
        <path id="Path_1469553" data-name="Path 1469553" d="M25.007,408.025v7.053a1.286,1.286,0,0,1-1.286,1.286H8.679v1.18a1.929,1.929,0,0,0,1.929,1.929H28.327V412.34A4.464,4.464,0,0,0,25.007,408.025Z" transform="translate(-8.527 -357.468)" fill="#fed402"/>
        <path id="Path_1469554" data-name="Path 1469554" d="M177.766,408.025v7.053a1.286,1.286,0,0,1-1.286,1.286H161.438v3.109h19.648V412.34A4.464,4.464,0,0,0,177.766,408.025Z" transform="translate(-141.638 -357.468)" fill="#5de1c4"/>
        <path id="Path_1469555" data-name="Path 1469555" d="M330.525,408.025v7.053a1.286,1.286,0,0,1-1.286,1.286H314.2v3.109h17.719a1.929,1.929,0,0,0,1.929-1.929v-5.2A4.464,4.464,0,0,0,330.525,408.025Z" transform="translate(-274.748 -357.468)" fill="#fea95c"/>
        <path id="Path_1469556" data-name="Path 1469556" d="M123.957,179.439H122.68V189.88a.643.643,0,0,1-.643.643h-1.8v1.857H124.6v-12.3A.643.643,0,0,0,123.957,179.439Z" transform="translate(-105.734 -158.284)" fill="#5de1c4"/>
        <path id="Path_1469557" data-name="Path 1469557" d="M194.264,179.439h-1.277V189.88a.643.643,0,0,1-.643.643h-1.8v1.857h4.366v-12.3A.643.643,0,0,0,194.264,179.439Z" transform="translate(-166.998 -158.284)" fill="#cb97e7"/>
        <path id="Path_1469558" data-name="Path 1469558" d="M53.65,231.564H52.373V235.3a.643.643,0,0,1-.643.643h-1.8v1.119a.739.739,0,0,0,.739.739h3.627v-5.594A.643.643,0,0,0,53.65,231.564Z" transform="translate(-44.47 -203.704)" fill="#fed402"/>
        <path id="Path_1469559" data-name="Path 1469559" d="M264.571,210.956h-1.277v6.387a.643.643,0,0,1-.643.643h-1.8v1.857h3.627a.739.739,0,0,0,.739-.739V211.6A.643.643,0,0,0,264.571,210.956Z" transform="translate(-228.261 -185.747)" fill="#fea95c"/>
      </g>
      <g id="Group_1204391" data-name="Group 1204391" transform="translate(0 7.466)">
        <path id="Línea_672" data-name="Línea 672" d="M2.773-5.571H-6.535A.965.965,0,0,1-7.5-6.535.965.965,0,0,1-6.535-7.5H2.773a.965.965,0,0,1,.965.965A.965.965,0,0,1,2.773-5.571Z" transform="translate(50.814 41.596)"/>
        <path id="Línea_673" data-name="Línea 673" d="M2.773-5.571H-6.535A.965.965,0,0,1-7.5-6.535.965.965,0,0,1-6.535-7.5H2.773a.965.965,0,0,1,.965.965A.965.965,0,0,1,2.773-5.571Z" transform="translate(50.814 37.669)"/>
        <path id="Trazado_1469560" data-name="Trazado 1469560" d="M318.2,34.106a13.264,13.264,0,0,1-9.17-3.66.965.965,0,0,1,1.329-1.4,11.36,11.36,0,1,0-2.442-3.358.965.965,0,1,1-1.741.832,13.2,13.2,0,0,1-1.295-5.735,13.32,13.32,0,1,1,13.32,13.32Z" transform="translate(-265.666 -7.466)"/>
        <path id="Trazado_1469561" data-name="Trazado 1469561" d="M367.817,84.169a.965.965,0,0,1-.726-.329l-3.7-4.228a.965.965,0,1,1,1.451-1.271l2.952,3.37,5.3-6.488a.965.965,0,1,1,1.495,1.22l-6.018,7.372a.965.965,0,0,1-.731.354Z" transform="translate(-316.439 -66.198)"/>
        <path id="Línea_674" data-name="Línea 674" d="M17.788-5.571H-6.535A.965.965,0,0,1-7.5-6.535.965.965,0,0,1-6.535-7.5H17.788a.965.965,0,0,1,.965.965A.965.965,0,0,1,17.788-5.571Z" transform="translate(15.608 41.596)"/>
        <g id="Group_1204388" data-name="Group 1204388" transform="translate(0.152 39.347)">
          <path id="Trazado_1469562" data-name="Trazado 1469562" d="M21.792,412.9H11.071a.965.965,0,1,1,0-1.929h9.756V404.8a3.5,3.5,0,0,0-3.5-3.5H6.606a3.5,3.5,0,0,0-3.5,3.5v5.2a.966.966,0,0,0,.965.965h2.5a.965.965,0,1,1,0,1.929h-2.5a2.9,2.9,0,0,1-2.894-2.894v-5.2a5.433,5.433,0,0,1,5.427-5.427H17.33a5.433,5.433,0,0,1,5.427,5.427v7.134A.965.965,0,0,1,21.792,412.9Z" transform="translate(-1.179 -388.313)"/>
          <path id="Elipse_12499" data-name="Elipse 12499" d="M-1-7.5A6.5,6.5,0,0,1,5.491-1,6.5,6.5,0,0,1-1,5.491,6.5,6.5,0,0,1-7.5-1,6.5,6.5,0,0,1-1-7.5ZM-1,3.561A4.571,4.571,0,0,0,3.561-1,4.571,4.571,0,0,0-1-5.571,4.571,4.571,0,0,0-5.571-1,4.571,4.571,0,0,0-1,3.561Z" transform="translate(11.793 7.5)"/>
        </g>
        <g id="Group_1204389" data-name="Group 1204389" transform="translate(19.8 39.347)">
          <path id="Trazado_1469563" data-name="Trazado 1469563" d="M159.365,399.374h10.723a5.433,5.433,0,0,1,5.427,5.427v7.134a.965.965,0,0,1-.965.965H154.9a.965.965,0,0,1-.965-.965V404.8A5.433,5.433,0,0,1,159.365,399.374Zm14.221,11.6V404.8a3.5,3.5,0,0,0-3.5-3.5H159.365a3.5,3.5,0,0,0-3.5,3.5v6.17Z" transform="translate(-153.938 -388.313)"/>
          <path id="Elipse_12500" data-name="Elipse 12500" d="M-1-7.5A6.5,6.5,0,0,1,5.491-1,6.5,6.5,0,0,1-1,5.491,6.5,6.5,0,0,1-7.5-1,6.5,6.5,0,0,1-1-7.5ZM-1,3.561A4.571,4.571,0,0,0,3.561-1,4.571,4.571,0,0,0-1-5.571,4.571,4.571,0,0,0-5.571-1,4.571,4.571,0,0,0-1,3.561Z" transform="translate(11.793 7.5)"/>
        </g>
        <g id="Group_1204390" data-name="Group 1204390" transform="translate(39.449 39.347)">
          <path id="Trazado_1469564" data-name="Trazado 1469564" d="M312.124,399.374h10.723a5.433,5.433,0,0,1,5.427,5.427v5.2a2.9,2.9,0,0,1-2.894,2.894H307.662a.965.965,0,0,1-.965-.965V404.8A5.433,5.433,0,0,1,312.124,399.374Zm13.257,11.6a.966.966,0,0,0,.965-.965v-5.2a3.5,3.5,0,0,0-3.5-3.5H312.124a3.5,3.5,0,0,0-3.5,3.5v6.17Z" transform="translate(-306.697 -388.313)"/>
          <path id="Elipse_12501" data-name="Elipse 12501" d="M-1-7.5A6.5,6.5,0,0,1,5.491-1,6.5,6.5,0,0,1-1,5.491,6.5,6.5,0,0,1-7.5-1,6.5,6.5,0,0,1-1-7.5ZM-1,3.561A4.571,4.571,0,0,0,3.561-1,4.571,4.571,0,0,0-1-5.571,4.571,4.571,0,0,0-5.571-1,4.571,4.571,0,0,0-1,3.561Z" transform="translate(11.793 7.5)"/>
        </g>
        <path id="Trazado_1469565" data-name="Trazado 1469565" d="M70.346,94.628H44.035a1.61,1.61,0,0,1-1.608-1.608V88.694a1.61,1.61,0,0,1,1.608-1.608H70.346a1.61,1.61,0,0,1,1.608,1.608v4.327A1.61,1.61,0,0,1,70.346,94.628ZM44.356,92.7H70.024V89.015H44.356Z" transform="translate(-36.97 -76.845)"/>
        <path id="Trazado_1469566" data-name="Trazado 1469566" d="M118.065,186.809H113.7a.965.965,0,0,1-.965-.965v-12.3a1.61,1.61,0,0,1,1.608-1.608h3.079a1.61,1.61,0,0,1,1.608,1.608v12.3A.965.965,0,0,1,118.065,186.809Zm-3.4-1.929H117.1V173.868h-2.436Z" transform="translate(-98.235 -150.784)"/>
        <path id="Trazado_1469567" data-name="Trazado 1469567" d="M188.372,186.809h-4.366a.965.965,0,0,1-.965-.965v-12.3a1.61,1.61,0,0,1,1.608-1.608h3.079a1.61,1.61,0,0,1,1.608,1.608v12.3A.965.965,0,0,1,188.372,186.809Zm-3.4-1.929h2.436V173.868h-2.436Z" transform="translate(-159.498 -150.784)"/>
        <path id="Trazado_1469568" data-name="Trazado 1469568" d="M47.757,232.229H44.131a1.705,1.705,0,0,1-1.7-1.7v-4.855a1.61,1.61,0,0,1,1.608-1.608h3.079a1.61,1.61,0,0,1,1.608,1.608v5.594A.965.965,0,0,1,47.757,232.229Zm-3.4-1.929h2.436v-4.307H44.356Z" transform="translate(-36.97 -196.203)"/>
        <path id="Trazado_1469569" data-name="Trazado 1469569" d="M257.94,214.273h-3.627a.965.965,0,0,1-.965-.965v-8.244a1.61,1.61,0,0,1,1.608-1.608h3.079a1.61,1.61,0,0,1,1.608,1.608v7.505a1.7,1.7,0,0,1-1.7,1.7Zm-2.662-1.929h2.436v-6.958h-2.436Z" transform="translate(-220.761 -178.247)"/>
        <path id="Línea_675" data-name="Línea 675" d="M22.216-5.571H-6.535A.965.965,0,0,1-7.5-6.535.965.965,0,0,1-6.535-7.5H22.216a.965.965,0,0,1,.965.965A.965.965,0,0,1,22.216-5.571Z" transform="translate(20.555 12.284)"/>
        <path id="Trazado_1469570" data-name="Trazado 1469570" d="M428.794,202.441h-2.628a.965.965,0,1,1,0-1.929h2.628a.966.966,0,0,0,.965-.965v-19.8a.965.965,0,1,1,1.929,0v19.8A2.9,2.9,0,0,1,428.794,202.441Z" transform="translate(-370.51 -156.748)"/>
        <path id="Línea_676" data-name="Línea 676" d="M8.812-5.571H0V-7.5H8.812Z" transform="translate(36.007 51.263)"/>
        <path id="Línea_677" data-name="Línea 677" d="M8.812-5.571H0V-7.5H8.812Z" transform="translate(16.359 51.263)"/>
        <path id="Trazado_1469571" data-name="Trazado 1469571" d="M5.522,85.568H2.894A2.9,2.9,0,0,1,0,82.674V47.553a2.9,2.9,0,0,1,2.894-2.894H9.518a.965.965,0,1,1,0,1.929H2.894a.966.966,0,0,0-.965.965V82.674a.966.966,0,0,0,.965.965H5.522a.965.965,0,1,1,0,1.929Z" transform="translate(0 -39.875)"/>
      </g>
    </g>
  </g>
</svg>
