<svg xmlns="http://www.w3.org/2000/svg" xmlns:xlink="http://www.w3.org/1999/xlink" width="118" height="118" viewBox="0 0 118 118">
  <defs>
    <filter id="Rectangle_411831" x="0" y="0" width="118" height="118" filterUnits="userSpaceOnUse">
      <feOffset dy="3" input="SourceAlpha"/>
      <feGaussianBlur stdDeviation="3" result="blur"/>
      <feFlood flood-opacity="0.161"/>
      <feComposite operator="in" in2="blur"/>
      <feComposite in="SourceGraphic"/>
    </filter>
  </defs>
  <g id="Group_1204329" data-name="Group 1204329" transform="translate(6789.32 9300.951)">
    <g id="Group_1203740" data-name="Group 1203740" transform="translate(-7116.102 -13152.951)">
      <g transform="matrix(1, 0, 0, 1, 326.78, 3852)" filter="url(#Rectangle_411831)">
        <g id="Rectangle_411831-2" data-name="Rectangle 411831" transform="translate(9 6)" fill="#ffc94a" stroke="#fff" stroke-width="2">
          <path d="M5,0H68a32,32,0,0,1,32,32V95a5,5,0,0,1-5,5H32A32,32,0,0,1,0,68V5A5,5,0,0,1,5,0Z" stroke="none"/>
          <path d="M5,1H68A31,31,0,0,1,99,32V95a4,4,0,0,1-4,4H32A31,31,0,0,1,1,68V5A4,4,0,0,1,5,1Z" fill="none"/>
        </g>
      </g>
    </g>
    <g id="bascula" transform="translate(-6762.27 -9338.692)">
      <path id="Path_1469336" data-name="Path 1469336" d="M10,221H70.479v20.283H10Z" transform="translate(-8.771 -131.561)" fill="#b4b1ec"/>
      <path id="Path_1469337" data-name="Path 1469337" d="M61.967,86.532H18.512A9.315,9.315,0,0,1,10,81H70.479a9.315,9.315,0,0,1-8.512,5.532Z" transform="translate(-8.771 -8.771)" fill="#b4b1ec"/>
      <g id="Group_1204327" data-name="Group 1204327" transform="translate(1.229 77.761)">
        <path id="Path_1469338" data-name="Path 1469338" d="M70.479,181.532H10v-2.458A3.073,3.073,0,0,1,13.073,176H67.406a3.073,3.073,0,0,1,3.073,3.073Z" transform="translate(-10 -169.854)" fill="#fff"/>
        <path id="Path_1469339" data-name="Path 1469339" d="M10,386H70.479v5.532H10Z" transform="translate(-10 -354.039)" fill="#fff"/>
        <path id="Path_1469340" data-name="Path 1469340" d="M55,266H80.814v9.219H55Z" transform="translate(-49.468 -248.79)" fill="#fff"/>
        <path id="Path_1469341" data-name="Path 1469341" d="M151.117,132.146H124.073L121,126h33.19Z" transform="translate(-107.355 -126)" fill="#fff"/>
      </g>
      <g id="Group_1204328" data-name="Group 1204328" transform="translate(0 71)">
        <path id="Path_1469342" data-name="Path 1469342" d="M62.282,84.7a4.3,4.3,0,0,0-1.7-1.556,1.229,1.229,0,0,0-1.652.541,1.231,1.231,0,0,0,.541,1.652,1.838,1.838,0,0,1,1.012,1.646v1.229H2.458V86.98A1.851,1.851,0,0,1,4.3,85.136H49.011a1.229,1.229,0,1,0,0-2.459H46.979l1.844-3.688H53.2a10.553,10.553,0,0,0,9.635-6.262A1.229,1.229,0,0,0,61.708,71H1.229A1.229,1.229,0,0,0,.106,72.729,10.553,10.553,0,0,0,9.741,78.99h4.373l1.844,3.688H4.3A4.3,4.3,0,0,0,0,86.98v28.273a1.229,1.229,0,0,0,1.229,1.229H61.708a1.229,1.229,0,0,0,1.229-1.229V86.98A4.3,4.3,0,0,0,62.282,84.7ZM3.4,73.458H59.54A8.094,8.094,0,0,1,53.2,76.532H9.741A8.1,8.1,0,0,1,3.4,73.458ZM16.863,78.99H46.075l-1.844,3.688H18.707ZM60.479,90.668v17.824H2.458V90.668Zm0,23.356H2.458v-3.073H60.479Z" transform="translate(0 -71)"/>
        <circle id="Ellipse_12481" data-name="Ellipse 12481" cx="1.229" cy="1.229" r="1.229" transform="translate(53.314 11.678)"/>
        <circle id="Ellipse_12482" data-name="Ellipse 12482" cx="1.229" cy="1.229" r="1.229" transform="translate(51.444 31.961)"/>
        <circle id="Ellipse_12483" data-name="Ellipse 12483" cx="1.229" cy="1.229" r="1.229" transform="translate(45.913 31.961)"/>
        <circle id="Ellipse_12484" data-name="Ellipse 12484" cx="1.229" cy="1.229" r="1.229" transform="translate(40.381 31.961)"/>
        <circle id="Ellipse_12485" data-name="Ellipse 12485" cx="1.229" cy="1.229" r="1.229" transform="translate(45.913 27.044)"/>
        <circle id="Ellipse_12486" data-name="Ellipse 12486" cx="1.229" cy="1.229" r="1.229" transform="translate(51.444 27.044)"/>
        <circle id="Ellipse_12487" data-name="Ellipse 12487" cx="1.229" cy="1.229" r="1.229" transform="translate(40.381 27.044)"/>
        <circle id="Ellipse_12488" data-name="Ellipse 12488" cx="1.229" cy="1.229" r="1.229" transform="translate(51.444 22.741)"/>
        <circle id="Ellipse_12489" data-name="Ellipse 12489" cx="1.229" cy="1.229" r="1.229" transform="translate(40.381 22.741)"/>
        <circle id="Ellipse_12490" data-name="Ellipse 12490" cx="1.229" cy="1.229" r="1.229" transform="translate(45.913 22.741)"/>
        <path id="Path_1469343" data-name="Path 1469343" d="M46.229,267.678H72.044a1.229,1.229,0,0,0,1.229-1.229v-9.219A1.229,1.229,0,0,0,72.044,256H46.229A1.229,1.229,0,0,0,45,257.229v9.219A1.229,1.229,0,0,0,46.229,267.678Zm1.229-9.219H70.814v6.761H47.459Z" transform="translate(-39.468 -233.259)"/>
      </g>
    </g>
  </g>
</svg>
