<svg xmlns="http://www.w3.org/2000/svg" xmlns:xlink="http://www.w3.org/1999/xlink" width="118" height="118" viewBox="0 0 118 118">
  <defs>
    <filter id="Rectangle_411831" x="0" y="0" width="118" height="118" filterUnits="userSpaceOnUse">
      <feOffset dy="3" input="SourceAlpha"/>
      <feGaussianBlur stdDeviation="3" result="blur"/>
      <feFlood flood-opacity="0.161"/>
      <feComposite operator="in" in2="blur"/>
      <feComposite in="SourceGraphic"/>
    </filter>
  </defs>
  <g id="Group_1204326" data-name="Group 1204326" transform="translate(-1108.781 -2307.049)">
    <g id="Group_1203739" data-name="Group 1203739" transform="translate(782 -1544.951)">
      <g transform="matrix(1, 0, 0, 1, 326.78, 3852)" filter="url(#Rectangle_411831)">
        <g id="Rectangle_411831-2" data-name="Rectangle 411831" transform="translate(9 6)" fill="#ffc94a" stroke="#fff" stroke-width="2">
          <path d="M5,0H68a32,32,0,0,1,32,32V95a5,5,0,0,1-5,5H32A32,32,0,0,1,0,68V5A5,5,0,0,1,5,0Z" stroke="none"/>
          <path d="M5,1H68A31,31,0,0,1,99,32V95a4,4,0,0,1-4,4H32A31,31,0,0,1,1,68V5A4,4,0,0,1,5,1Z" fill="none"/>
        </g>
      </g>
    </g>
    <g id="gallina_1_" data-name="gallina (1)" transform="translate(1135.15 2325.648)">
      <path id="Path_1469323" data-name="Path 1469323" d="M14.178,185.19a45.629,45.629,0,0,1-.227-9.7s-6.658,4.651-4.469,8.093c1.119,1.76,3.067,1.93,4.705,1.675C14.184,185.234,14.181,185.213,14.178,185.19Zm0,0" transform="translate(-7.385 -151.725)" fill="#ff4755"/>
      <path id="Path_1469324" data-name="Path 1469324" d="M13.87,211.04A4.31,4.31,0,0,1,9.6,209.488a3.36,3.36,0,0,0-.112,3.49c1.119,1.76,3.067,1.929,4.706,1.675,0-.022-.006-.044-.009-.067Q13.962,212.712,13.87,211.04Zm0,0" transform="translate(-7.389 -181.121)" fill="#fc2b3a"/>
      <path id="Path_1469325" data-name="Path 1469325" d="M18.249,128.754c-3.617,1-6.161,1.924-5.933,3.608.21,1.549,3.148,2.412,4.455,2.72A21.914,21.914,0,0,1,18.249,128.754Zm0,0" transform="translate(-10.205 -111.319)" fill="#ffa812"/>
      <path id="Path_1469326" data-name="Path 1469326" d="M13.434,141.938c-.8.511-1.217,1.1-1.118,1.823.209,1.549,3.148,2.412,4.455,2.72q.121-1.24.324-2.327C15.773,143.78,13.88,143.062,13.434,141.938Zm0,0" transform="translate(-10.205 -122.717)" fill="#ff9a00"/>
      <path id="Path_1469327" data-name="Path 1469327" d="M64.677,19.617a9.26,9.26,0,0,1,4.742-1.5c4.047-.1,6.239,1.386,7.682,3.54,1.241-.654,3.784-2.289,3.011-4.393-1.1-2.99-4.108-1.24-4.108-1.24a3,3,0,0,0-1.013-3.5c-1.884-1.376-4.189-.087-4.189-.087-.576-4.388-6.743-5.347-9.119-.773C59.793,15.306,63.389,18.6,64.677,19.617Zm0,0" transform="translate(-52.433 -7.492)" fill="#ff4755"/>
      <path id="Path_1469328" data-name="Path 1469328" d="M85.034,64.33a7.972,7.972,0,0,0,2.541-1.987,12.9,12.9,0,0,0-8.365-4.285,16.106,16.106,0,0,0-8.89,1.853,12.106,12.106,0,0,0,2.29,2.378,9.259,9.259,0,0,1,4.742-1.5C81.4,60.693,83.591,62.176,85.034,64.33Zm0,0" transform="translate(-60.367 -50.163)" fill="#fc2b3a"/>
      <path id="Path_1469329" data-name="Path 1469329" d="M54.681,78.451c-1.86.045-12.766.988-10.193,22.838,2.258,19.171,15.811,25.23,26.424,25.2,15.426-.048,34.658-13.008,29.025-33.4,0,0-1.7-7.579-7.577-7.253S86.679,97.708,74.005,96.438C61.149,95.149,68.087,78.128,54.681,78.451Zm0,0" transform="translate(-37.695 -67.824)" fill="#ffe9c8"/>
      <path id="Path_1469330" data-name="Path 1469330" d="M70.916,217.633c-10.613.033-24.167-6.027-26.424-25.2-.182-1.55-.3-2.991-.35-4.338a49.321,49.321,0,0,0,.35,7.994c2.258,19.171,15.811,25.23,26.424,25.2,14.05-.043,31.257-10.8,29.958-28.127C99.7,208.334,83.949,217.593,70.916,217.633Zm0,0" transform="translate(-37.698 -162.627)" fill="#ffdca7"/>
      <path id="Path_1469331" data-name="Path 1469331" d="M107.415,331.7a33.007,33.007,0,0,1-19.9,7.149h-.083a26.368,26.368,0,0,1-12.13-2.905,23.246,23.246,0,0,1-10.074-10.262,1.02,1.02,0,0,0-1.816.929,25.25,25.25,0,0,0,10.945,11.142,27.558,27.558,0,0,0,8.2,2.728v5.634L77.634,344.4a1.02,1.02,0,1,0-.67,1.928l3.289,1.144-3.244.961a1.02,1.02,0,1,0,.58,1.956l6.282-1.862a1.021,1.021,0,0,0,.73-.979v-6.8c1.037.1,1.992.139,2.836.139h.089a31.849,31.849,0,0,0,6.457-.7v5.93L89.056,344.4a1.02,1.02,0,0,0-.67,1.928l3.289,1.143-3.244.962a1.02,1.02,0,1,0,.58,1.956l6.282-1.862a1.02,1.02,0,0,0,.73-.978v-7.859a35.374,35.374,0,0,0,12.67-6.4,1.02,1.02,0,0,0-1.278-1.59Zm0,0" transform="translate(-54.302 -281.102)"/>
      <path id="Path_1469332" data-name="Path 1469332" d="M9.357,40.857a36.308,36.308,0,0,1-1.665-7.517c-1.031-8.757.051-15.261,3.129-18.808a8.427,8.427,0,0,1,6.121-2.993c2.806-.068,4.779.651,6.2,2.262a17.4,17.4,0,0,1,2.826,5.769c1.494,4.233,3.188,9.029,9.637,9.956a1.02,1.02,0,0,0,.29-2.02c-5.227-.751-6.576-4.571-8-8.615a29.308,29.308,0,0,0-1.855-4.454c2.306-1.486,3.243-3.318,2.578-5.126A3.478,3.478,0,0,0,26.549,7.08a3.652,3.652,0,0,0-1.811-.143,3.832,3.832,0,0,0-1.623-2.854,4.7,4.7,0,0,0-4.1-.625A5.322,5.322,0,0,0,14.877.092,6.238,6.238,0,0,0,8.239,3.571c-1.85,3.559.6,6.75,2.295,8.388A11.231,11.231,0,0,0,9.28,13.2a13.613,13.613,0,0,0-2.09,3.31C4.132,17.357.606,18.467.964,21.119c.2,1.448,1.677,2.4,3.33,3.016l-.186.167a13.66,13.66,0,0,0-2.863,3.421A4.342,4.342,0,0,0,1.1,32.391a4.912,4.912,0,0,0,4.412,2.251c.1,0,.194,0,.292-.006A37.565,37.565,0,0,0,7.427,41.52a1.02,1.02,0,1,0,1.93-.663ZM10.332,8.5a3.885,3.885,0,0,1-.282-3.99A4.222,4.222,0,0,1,14.523,2.1a3.274,3.274,0,0,1,2.771,2.849,1.024,1.024,0,0,0,1.5.761,3.21,3.21,0,0,1,3.113.019,1.963,1.963,0,0,1,.676,2.3A1.022,1.022,0,0,0,24.039,9.3,2.568,2.568,0,0,1,25.863,9c.133.049.537.2.837,1.013.126.342.206.892-.546,1.709A6.542,6.542,0,0,1,24.9,12.738c-1.6-1.968-4-3.333-8.011-3.238a10.329,10.329,0,0,0-4.637,1.277A9.873,9.873,0,0,1,10.332,8.5ZM2.986,20.845c-.095-.7,1.706-1.428,3.32-1.946a24.245,24.245,0,0,0-.734,3.514C3.954,21.9,3.043,21.26,2.986,20.845ZM2.822,31.3c-.792-1.247.271-2.926,1.3-4.114a15.464,15.464,0,0,1,1.159-1.19A50.33,50.33,0,0,0,5.558,32.6,2.981,2.981,0,0,1,2.822,31.3Zm0,0" transform="translate(0 0)"/>
      <path id="Path_1469333" data-name="Path 1469333" d="M308.144,132.894a14.634,14.634,0,0,0-1.718-4.056c-1.734-2.771-4.133-4.154-6.94-4-2.787.154-4.362,2.279-6.03,4.528-2.051,2.766-4.172,5.626-8.93,6.141a1.02,1.02,0,0,0,.22,2.029c5.645-.61,8.253-4.128,10.349-6.954,1.494-2.014,2.673-3.605,4.5-3.707,2.034-.112,3.74.9,5.071,3a12.676,12.676,0,0,1,1.489,3.49c0,.016.007.032.012.048a23.671,23.671,0,0,1,.216,12.623,23.094,23.094,0,0,1-5.6,9.812,1.02,1.02,0,1,0,1.487,1.4,25.111,25.111,0,0,0,6.081-10.676A25.679,25.679,0,0,0,308.144,132.894Zm0,0" transform="translate(-244.779 -107.926)"/>
      <path id="Path_1469334" data-name="Path 1469334" d="M175.42,260.169c-6,1.449-10.852.419-14.425-3.064a15.109,15.109,0,0,1-3.664-5.8,1.02,1.02,0,0,0-1.958.573,16.9,16.9,0,0,0,4.13,6.623,15.161,15.161,0,0,0,11,4.328,23.143,23.143,0,0,0,5.4-.677c7.318-1.768,11.1-8.114,10.412-12.98a1.02,1.02,0,0,0-2.02.287,8.787,8.787,0,0,1-1.8,6.125A11.992,11.992,0,0,1,175.42,260.169Zm0,0" transform="translate(-133.867 -214.673)"/>
      <path id="Path_1469335" data-name="Path 1469335" d="M103.777,133.193a2.134,2.134,0,1,0,2.084-2.591A2.354,2.354,0,0,0,103.777,133.193Zm0,0" transform="translate(-89.293 -112.916)"/>
    </g>
  </g>
</svg>
