<svg xmlns="http://www.w3.org/2000/svg" xmlns:xlink="http://www.w3.org/1999/xlink" width="118" height="118" viewBox="0 0 118 118">
  <defs>
    <filter id="Rectangle_411831" x="0" y="0" width="118" height="118" filterUnits="userSpaceOnUse">
      <feOffset dy="3" input="SourceAlpha"/>
      <feGaussianBlur stdDeviation="3" result="blur"/>
      <feFlood flood-opacity="0.161"/>
      <feComposite operator="in" in2="blur"/>
      <feComposite in="SourceGraphic"/>
    </filter>
  </defs>
  <g id="Group_1204468" data-name="Group 1204468" transform="translate(-256.051 -2990)">
    <g id="Group_1204124" data-name="Group 1204124" transform="translate(-70.73 -862)">
      <g transform="matrix(1, 0, 0, 1, 326.78, 3852)" filter="url(#Rectangle_411831)">
        <g id="Rectangle_411831-2" data-name="Rectangle 411831" transform="translate(9 6)" fill="#ffc94a" stroke="#fff" stroke-width="2">
          <path d="M5,0H68a32,32,0,0,1,32,32V95a5,5,0,0,1-5,5H32A32,32,0,0,1,0,68V5A5,5,0,0,1,5,0Z" stroke="none"/>
          <path d="M5,1H68A31,31,0,0,1,99,32V95a4,4,0,0,1-4,4H32A31,31,0,0,1,1,68V5A4,4,0,0,1,5,1Z" fill="none"/>
        </g>
      </g>
    </g>
    <g id="patogeno" transform="translate(280.654 3014.682)">
      <g id="Group_1204360" data-name="Group 1204360" transform="translate(2.786 2.255)">
        <g id="Group_1204359" data-name="Group 1204359">
          <g id="Group_1204349" data-name="Group 1204349" transform="translate(0 0.005)">
            <path id="Path_1469453" data-name="Path 1469453" d="M48.659,34.354c-1.468-1.4-3.313-.984-3.972-1.058a16.534,16.534,0,0,1-1.166,2.958l5.174,5.174-6.542,6.542-5.032-5.032a16.249,16.249,0,0,1-3.38,1.445,8.056,8.056,0,0,0,.127,2.113c.438,1.86,1.857,2.085,1.857,3.106.112.613-.549,1.289-1.089,1.614a6.845,6.845,0,0,1-1.735.745,12.771,12.771,0,0,1-8.748-.646c-.753-.432-1.5-1.173-1.2-1.978a1.383,1.383,0,0,1,.134-.313c.191-.338.439-.476.688-.84.994-1.346.649-2.8.716-3.8a16.223,16.223,0,0,1-3.129-1.3c-.261.348-2.011,1.518-1.841,3.7a1.65,1.65,0,0,1-.378,1.326.045.045,0,0,1-.01.013,2,2,0,0,1-1.864.308c-4.3-1.025-10.342-9.195-6.418-9.756a4.359,4.359,0,0,1,.522-.028c1.873-.078,2.711-1.474,3.473-2.133a16.272,16.272,0,0,1-1.3-3.219A4.562,4.562,0,0,0,9.72,34.615c-1.852,2.165-3.967-1.08-3.967-5.746,0-3.545,1.228-6.418,2.743-6.418a1.547,1.547,0,0,1,1.081.517c1.41,1.412,2.983.98,4.08,1.076.119-.394.353-1.026.414-1.161,0,0,0,0,0-.005a16.007,16.007,0,0,1,.972-2.014h0l-.605-.605v0A3.911,3.911,0,0,0,11.4,19.077a1.65,1.65,0,0,1-1.339-.39c-1.7-1.7,2.305-7.563,6.47-9.151l0,0c.828-.316,1.974-.548,2.6.08h0a1.549,1.549,0,0,1,.4,1.127c-.005,2.079,1.663,3.059,2.2,3.724a16.042,16.042,0,0,1,2.759-1.109c-.126-.7.427-2.561-.949-4.088a1.614,1.614,0,0,1-.61-1.495,1.672,1.672,0,0,1,.471-.786,3.118,3.118,0,0,1,.308-.269,4.884,4.884,0,0,1,.959-.556c.109-.049.315-.134.453-.184s.283-.1.416-.142c.194-.065.52-.146.719-.194.31-.07.591-.125.851-.165.517-.075.618-.082.765-.1.315-.029.239-.019.44-.036l.346-.021c5.637-.134,6.721,1.885,6.78,1.913a1.489,1.489,0,0,1,.215.4,1.206,1.206,0,0,1,.072.5,1.1,1.1,0,0,1-.065.323c-.314.9-1.271.949-1.748,2.617,0,0,0,.008,0,.01a8.281,8.281,0,0,0-.168,2.27,16.372,16.372,0,0,1,3.02,1.244l1.208-1.2c1.619-1.624.759-2.971,1.5-3.752a.113.113,0,0,1,.023-.028c1.073-1.071,3.972.091,6.477,2.6,3.414,3.414,3.973,7.085,1.259,6.868a3.747,3.747,0,0,0-1.756.3,4.18,4.18,0,0,0-1.019.634c-.049.041-.224.2-.272.246l-.856.858a16.436,16.436,0,0,1,1.244,2.93h1.8a3.573,3.573,0,0,0,2.475-.89c.067-.059.137-.122.2-.186.811-.811,1.858-.743,2.718.752,2.319,4.051.758,14.475-3.108,10.633Z" transform="translate(-5.753 -5.317)" fill="#00c7b6"/>
          </g>
          <g id="Group_1204350" data-name="Group 1204350" transform="translate(22.114 37.626)">
            <path id="Path_1469454" data-name="Path 1469454" d="M99.135,157.56c0,1.942-4.256,3.03-7.862,2.671,2.846-.28,4.967-1.368,4.967-2.671s-1.988-1.492-1.988-4.211v-1.09a16.153,16.153,0,0,0,3.379-1.445c.879.881.768.759.94.946-.463.189-.94.355-1.424.5v1.09C97.147,156.107,99.135,156.234,99.135,157.56Z" transform="translate(-91.273 -150.813)" fill="#00b2a0"/>
          </g>
          <g id="Group_1204351" data-name="Group 1204351" transform="translate(22.114)">
            <path id="Path_1469455" data-name="Path 1469455" d="M99.135,8.039c0,1.292-1.988,1.492-1.988,4.211v1.09c.347.1.689.218,1.027.345l-.9.9a16.164,16.164,0,0,0-3.022-1.245c.069-.511-.374-2.631,1.318-4.078a1.649,1.649,0,0,0,.67-1.224c0-1.3-2.121-2.391-4.967-2.671C95,5,99.135,6.158,99.135,8.039Z" transform="translate(-91.273 -5.299)" fill="#00b2a0"/>
          </g>
          <g id="Group_1204352" data-name="Group 1204352" transform="translate(33.719 3.873)">
            <path id="Path_1469456" data-name="Path 1469456" d="M136.156,20.732c.652-1.081,3.691-.24,6.5,2.569,3.362,3.362,4.044,7.078,1.258,6.868-2.232-.175-3.447,1.688-3.9,2.038A15.784,15.784,0,0,1,141.21,35a11.352,11.352,0,0,1-2.848.141,15.93,15.93,0,0,0-1.245-2.931l.859-.857a3.908,3.908,0,0,1,3.043-1.181c4.114.31.31-7.2-4.863-9.437Z" transform="translate(-136.156 -20.277)" fill="#00b2a0"/>
          </g>
          <g id="Group_1204353" data-name="Group 1204353" transform="translate(42.87 17.12)">
            <path id="Path_1469457" data-name="Path 1469457" d="M175.8,77.946c0,4.716-2.135,7.883-3.966,5.745a3.22,3.22,0,0,0-.249-.261c1.777-2.532,1.752-8.561-.035-11.019a3.632,3.632,0,0,0,.426-.365c1.885-1.9,3.823,1.509,3.823,5.9Z" transform="translate(-171.546 -71.51)" fill="#00b2a0"/>
          </g>
          <g id="Group_1204354" data-name="Group 1204354" transform="translate(0 17.14)">
            <path id="Path_1469458" data-name="Path 1469458" d="M8.5,84.418c-1.515,0-2.744-2.874-2.744-6.417S6.981,71.585,8.5,71.585c.7,0,1.009.515,1.505.884C8.209,74.94,8.2,80.963,9.967,83.486,9.662,83.771,9.247,84.418,8.5,84.418Z" transform="translate(-5.752 -71.585)" fill="#00dbc2"/>
          </g>
          <g id="Group_1204355" data-name="Group 1204355" transform="translate(3.905 3.902)">
            <path id="Path_1469459" data-name="Path 1469459" d="M30.328,20.79a.154.154,0,0,1,.023.027c-5.266,2.274-8.912,9.742-4.863,9.437a4.582,4.582,0,0,1,3.649,1.787,16.023,16.023,0,0,0-1.388,3.182,7.59,7.59,0,0,1-2.812-.259,16.112,16.112,0,0,1,1.3-2.924,4.585,4.585,0,0,0-3.649-1.787,1.651,1.651,0,0,1-1.339-.39c-1.071-1.071.093-3.971,2.6-6.478s5.405-3.666,6.476-2.6Z" transform="translate(-20.856 -20.392)" fill="#00dbc2"/>
          </g>
          <g id="Group_1204356" data-name="Group 1204356" transform="translate(3.908 27.983)">
            <path id="Path_1469460" data-name="Path 1469460" d="M30.357,128.322c-.652,1.081-3.691.24-6.5-2.569-3.22-3.222-4.049-6.876-1.468-6.876,2.055,0,3.036-1.637,3.659-2.136a15.934,15.934,0,0,1-1.16-2.752,4.078,4.078,0,0,1,1.916-.469h.838a16.069,16.069,0,0,0,1.3,3.221l-1.007,1.007c-1.667,1.666-2.969.721-3.78,1.526C22.484,120.945,26.273,126.558,30.357,128.322Z" transform="translate(-20.864 -113.52)" fill="#00dbc2"/>
          </g>
          <g id="Group_1204357" data-name="Group 1204357" transform="translate(17.131 37.769)">
            <path id="Path_1469461" data-name="Path 1469461" d="M79.881,160.641c-5.063.5-9.424-1.677-7.349-3.751,1.471-1.463.985-3.352,1.077-4.22q-.576-.171-1.131-.382c.184-.222.276-.293.9-.921a15.948,15.948,0,0,0,3.128,1.3v1.548c0,2.331-1.592,2.624-1.592,3.754C74.911,159.272,77.032,160.361,79.881,160.641Z" transform="translate(-72.003 -151.366)" fill="#00dbc2"/>
          </g>
          <g id="Group_1204358" data-name="Group 1204358" transform="translate(17.145 0.004)">
            <path id="Path_1469462" data-name="Path 1469462" d="M79.92,5.379c-2.848.28-4.969,1.368-4.969,2.671a1.538,1.538,0,0,0,.515,1.081c1.471,1.463.985,3.352,1.077,4.22a16.074,16.074,0,0,0-2.76,1.11l-.87-.87c.243-.087.488-.166.735-.239V11.8c0-2.331-1.592-2.624-1.592-3.753,0-2.049,4.51-3,7.864-2.671Z" transform="translate(-72.056 -5.314)" fill="#00dbc2"/>
          </g>
        </g>
      </g>
      <g id="Group_1204368" data-name="Group 1204368" transform="translate(35.621 35.351)">
        <g id="Group_1204361" data-name="Group 1204361" transform="translate(0 0)">
          <circle id="Ellipse_12491" data-name="Ellipse 12491" cx="15.193" cy="15.193" r="15.193" fill="#ffe2e2"/>
        </g>
        <g id="Group_1204362" data-name="Group 1204362" transform="translate(0 0)">
          <path id="Path_1469463" data-name="Path 1469463" d="M149.861,163.556a15.414,15.414,0,0,1-1.934.122,15.193,15.193,0,1,1,0-30.385,15.494,15.494,0,0,1,1.939.122,15.2,15.2,0,0,0-.005,30.142Z" transform="translate(-132.733 -133.292)" fill="#ffeeed"/>
        </g>
        <g id="Group_1204363" data-name="Group 1204363" transform="translate(13.255)">
          <path id="Path_1469464" data-name="Path 1469464" d="M201.124,148.486a15.19,15.19,0,0,1-15.191,15.191,15.411,15.411,0,0,1-1.934-.122,15.2,15.2,0,0,0-.005-30.142,15.466,15.466,0,0,1,1.939-.122,15.192,15.192,0,0,1,15.191,15.194Z" transform="translate(-183.993 -133.292)" fill="#ffcfcf"/>
        </g>
        <g id="Group_1204367" data-name="Group 1204367" transform="translate(4.255 7.865)">
          <g id="Group_1204364" data-name="Group 1204364">
            <path id="Path_1469465" data-name="Path 1469465" d="M157.442,178.882a2.578,2.578,0,0,1-1.828-.757l-5.67-5.669A2.586,2.586,0,0,1,153.6,168.8l3.841,3.841,8.173-8.173a2.586,2.586,0,0,1,3.657,3.657l-10,10a2.58,2.58,0,0,1-1.829.757Z" transform="translate(-149.187 -163.709)" fill="#00c7b6"/>
          </g>
          <g id="Group_1204365" data-name="Group 1204365" transform="translate(0 4.333)">
            <path id="Path_1469466" data-name="Path 1469466" d="M159.382,190.439l-.111.111a2.584,2.584,0,0,1-3.656,0l-5.671-5.671a2.585,2.585,0,0,1,3.656-3.656l.114.114a2.59,2.59,0,0,0,.109,3.542Z" transform="translate(-149.188 -180.467)" fill="#00dbc2"/>
          </g>
          <g id="Group_1204366" data-name="Group 1204366" transform="translate(6.316 0)">
            <path id="Path_1469467" data-name="Path 1469467" d="M187.382,168.124l-10,10a2.584,2.584,0,0,1-3.656,0l-.111-.111,9.891-9.891a2.585,2.585,0,0,0,.109-3.542l.114-.114a2.585,2.585,0,0,1,3.656,3.656Z" transform="translate(-173.613 -163.71)" fill="#00b2a0"/>
          </g>
        </g>
      </g>
      <g id="Group_1204369" data-name="Group 1204369" transform="translate(1.752 1.194)">
        <path id="Path_1469468" data-name="Path 1469468" d="M70.378,80.921a1.551,1.551,0,1,0,1.551,1.551A1.551,1.551,0,0,0,70.378,80.921Z" transform="translate(-51.483 -60.305)" fill="#12263f"/>
        <path id="Path_1469469" data-name="Path 1469469" d="M114.463,80.921a1.551,1.551,0,1,0,1.551,1.551A1.551,1.551,0,0,0,114.463,80.921Z" transform="translate(-84.169 -60.305)" fill="#12263f"/>
        <path id="Path_1469470" data-name="Path 1469470" d="M87.848,103.89A3.151,3.151,0,0,0,91,100.742a1.034,1.034,0,1,0-2.069,0,1.079,1.079,0,0,1-2.158,0,1.034,1.034,0,0,0-1.034-1.034c-1.995,0-1,4.182,2.113,4.182Z" transform="translate(-63.254 -74.234)" fill="#12263f"/>
        <path id="Path_1469471" data-name="Path 1469471" d="M71.056,134.687l-.185-.1a1.034,1.034,0,1,0-1.011,1.8,1.311,1.311,0,0,0,.706.243,1.035,1.035,0,0,0,.49-1.946Z" transform="translate(-51.856 -99.995)" fill="#12263f"/>
        <path id="Path_1469472" data-name="Path 1469472" d="M92.377,136.057a11.573,11.573,0,0,1-6.941.911,1.034,1.034,0,1,0-.37,2.035,13.554,13.554,0,0,0,8.2-1.076,1.034,1.034,0,1,0-.885-1.87Z" transform="translate(-62.893 -101.11)" fill="#12263f"/>
        <path id="Path_1469473" data-name="Path 1469473" d="M44.442,35.622l-2.637-2.637a18.386,18.386,0,0,0,.679-1.713,3.261,3.261,0,0,1,2.479.758c1.81,1.8,3.262,1.03,3.8.615,2.6-2,2.783-9.263.931-12.5-1.221-2.125-3.073-2.242-4.361-.953-1.036,1.078-2.384.658-2.993.757a17.153,17.153,0,0,0-.713-1.7,3.973,3.973,0,0,1,1.288-.982,2.707,2.707,0,0,1,1.265-.219,2.44,2.44,0,0,0,2.586-1.33c1.941-4.2-7.659-13.2-10.977-9.891-1.216,1.235-.133,2.384-1.519,3.774l-.678.677a18.209,18.209,0,0,0-1.785-.737c-.048-2.549,1.332-2.295,1.861-3.8a2.326,2.326,0,0,0-.37-2.181C29.884-1.038,15.011,1.6,19.806,6.9a3.374,3.374,0,0,1,.675,2.648c-.523.182-1.014.38-1.5.6A3.311,3.311,0,0,1,17.6,7.683a2.517,2.517,0,0,0-.76-1.913c-3.644-3.4-13.982,7.088-10.477,10.593,1.412,1.4,2.7-.118,4.441,1.63a16.767,16.767,0,0,0-.848,1.946,3.071,3.071,0,0,1-2.612-.76c-2.134-2.133-5.59-.167-5.59,6.632,0,6.94,3.63,8.939,5.786,6.419a2.92,2.92,0,0,1,2.274-.959,17.81,17.81,0,0,0,.8,1.984c-1.5,1.576-1.979,1.209-2.877,1.34a2.318,2.318,0,0,0-2.154,2.269c-.2,4.294,8.527,12.184,11.368,8.876,1.4-1.5-.3-2.473,1.64-4.45a17.042,17.042,0,0,0,1.9.787c.059,2.567-.695,2.382-1.258,3.362-.7,1.163-.376,2.669,1.446,3.714A12.3,12.3,0,0,0,26.4,50.4a11.625,11.625,0,0,0,5.813-1.367,2.89,2.89,0,0,0,1.576-2.58,2.623,2.623,0,0,0-.964-1.78,2.975,2.975,0,0,1-1.02-2.6,17.481,17.481,0,0,0,2.16-.923l2.268,2.268a16.225,16.225,0,1,0,8.207-7.8ZM34.886,39.15a1.035,1.035,0,0,0-1.244-.167,15.2,15.2,0,0,1-3.161,1.352,1.034,1.034,0,0,0-.74,1c.011,2.2.053,3.228,1.619,4.8a2.654,2.654,0,0,1,.364.409,1.024,1.024,0,0,0,.009.132c-.214.577-1.488,1.052-2.08,1.231-4.682,1.326-8.736-.568-8.7-1.276.246-.677,1.685-1.1,1.6-4.572-.006-.247-.012-.479,0-.664a1.034,1.034,0,0,0-.734-1.06,15.183,15.183,0,0,1-2.932-1.218,1.034,1.034,0,0,0-1.306.268,5.349,5.349,0,0,0-2.06,4.425.765.765,0,0,1-.1.538,1.242,1.242,0,0,1-.88.021c-3.072-.732-6.974-5.619-6.891-7.41.016-.361.338-.314.8-.335,2.331-.1,3.421-1.792,4.106-2.384a1.035,1.035,0,0,0,.231-1.279,15.214,15.214,0,0,1-1.211-3,1.034,1.034,0,0,0-1.108-.751c-.043,0-.1,0-.165,0-3.765-.1-4.346,2.165-4.827,1.989-.559-.206-1.654-2.052-1.654-5.384,0-3.5,1.213-5.384,1.709-5.384.471,0,.9,1.643,4.392,1.581.253,0,.491-.008.679.008a1.033,1.033,0,0,0,1.08-.731c.154-.508.384-1.075.394-1.1.665-1.76,1.355-2.1.9-2.895-.1-.179-.156-.2-.729-.779a4.963,4.963,0,0,0-3.9-1.524c-.518.04-.755-.072-.571-.931.833-3.9,6.722-7.652,7.668-6.757.3.388-.492,1.923,2.129,4.374a4.982,4.982,0,0,1,.386.382,1.034,1.034,0,0,0,1.275.27,15.035,15.035,0,0,1,2.59-1.041,1.032,1.032,0,0,0,.716-1.17,4.5,4.5,0,0,1,.006-.489c.179-4.243-2.2-4.152-1.382-4.968,2.194-2.194,10.267-1.477,10.562.328-.041.081.1.052-.384.514a4.438,4.438,0,0,0-1.4,2.253,8.606,8.606,0,0,0-.2,2.471,1.034,1.034,0,0,0,.742,1.065,15.4,15.4,0,0,1,2.822,1.163,1.034,1.034,0,0,0,1.219-.179l1.209-1.207c1.778-1.784,1.238-3.451,1.544-3.8.409-.315,2.568.186,5,2.613,2.375,2.375,2.876,4.409,2.616,4.971-.066.142-.331.152-.536.135a4.9,4.9,0,0,0-3.545,1.186c-.375.322-.536.518-1.177,1.151-.756.956-.011.979.994,3.989a1.034,1.034,0,0,0,.981.706c1.2-.107,3.176.427,4.962-1.149.224-.2.45-.466.62-.442.142.019.415.226.714.747,1.524,2.662,1.045,8.722-.4,9.826-.1.076-.362.278-1.1-.456a5.932,5.932,0,0,0-4.569-1.337,1.033,1.033,0,0,0-1.114.753c-.708,2.574-1.729,3.136-.9,3.964l2.683,2.683a16.352,16.352,0,0,0-5.2,4.956ZM50.814,64.7A14.159,14.159,0,1,1,64.973,50.544,14.175,14.175,0,0,1,50.814,64.7Z" transform="translate(-1.752 -1.194)" fill="#12263f"/>
        <path id="Path_1469474" data-name="Path 1469474" d="M164.484,159.709a3.6,3.6,0,0,0-2.56,1.06l-7.442,7.442-3.11-3.11a3.62,3.62,0,1,0-5.12,5.12l5.67,5.669a3.618,3.618,0,0,0,5.12,0l10-10A3.624,3.624,0,0,0,164.484,159.709Zm1.1,4.717c-10.506,10.282-9.953,10.456-11.1,10.456-1.124,0-1.025-.589-6.766-6.124a1.553,1.553,0,0,1,1.1-2.648c1.113,0,1.216.774,4.938,4.295a1.034,1.034,0,0,0,1.463,0l8.173-8.173a1.552,1.552,0,0,1,2.194,2.194Z" transform="translate(-108.104 -118.721)" fill="#12263f"/>
      </g>
    </g>
  </g>
</svg>
