<svg xmlns="http://www.w3.org/2000/svg" xmlns:xlink="http://www.w3.org/1999/xlink" width="118" height="118" viewBox="0 0 118 118">
  <defs>
    <filter id="Rectangle_411831" x="0" y="0" width="118" height="118" filterUnits="userSpaceOnUse">
      <feOffset dy="3" input="SourceAlpha"/>
      <feGaussianBlur stdDeviation="3" result="blur"/>
      <feFlood flood-opacity="0.161"/>
      <feComposite operator="in" in2="blur"/>
      <feComposite in="SourceGraphic"/>
    </filter>
  </defs>
  <g id="Group_1204348" data-name="Group 1204348" transform="translate(-234.051 -716)">
    <g id="Group_1203723" data-name="Group 1203723" transform="translate(-92.73 -3136)">
      <g transform="matrix(1, 0, 0, 1, 326.78, 3852)" filter="url(#Rectangle_411831)">
        <g id="Rectangle_411831-2" data-name="Rectangle 411831" transform="translate(9 6)" fill="#ffc94a" stroke="#fff" stroke-width="2">
          <path d="M5,0H68a32,32,0,0,1,32,32V95a5,5,0,0,1-5,5H32A32,32,0,0,1,0,68V5A5,5,0,0,1,5,0Z" stroke="none"/>
          <path d="M5,1H68A31,31,0,0,1,99,32V95a4,4,0,0,1-4,4H32A31,31,0,0,1,1,68V5A4,4,0,0,1,5,1Z" fill="none"/>
        </g>
      </g>
    </g>
    <g id="informe-medico" transform="translate(263.86 735.7)">
      <path id="Path_1469431" data-name="Path 1469431" d="M25.907,3.27a3.347,3.347,0,1,0,3.347,3.347A3.347,3.347,0,0,0,25.907,3.27Zm0,4.653a1.305,1.305,0,1,1,1.305-1.305A1.305,1.305,0,0,1,25.907,7.923Z" transform="translate(1.128 0.172)"/>
      <path id="Path_1469432" data-name="Path 1469432" d="M18.741,17.66H9.773A2.055,2.055,0,0,0,7.72,19.713v8.979a2.055,2.055,0,0,0,2.053,2.053h8.968A2.064,2.064,0,0,0,20.8,28.692V19.713a2.064,2.064,0,0,0-2.063-2.053Zm.021,11.032a.037.037,0,0,1-.021.011l-8.979-.011L9.773,19.7l8.989.011Z" transform="translate(0.346 0.929)"/>
      <path id="Path_1469433" data-name="Path 1469433" d="M17.559,22.567,13.78,26.346a1.006,1.006,0,0,1-.716.305,1.03,1.03,0,0,1-.726-.305l-1.663-1.663a1.02,1.02,0,0,1,1.442-1.442l.947.947,3.053-3.063a1.02,1.02,0,0,1,1.442,1.442Z" transform="translate(0.486 1.096)"/>
      <path id="Path_1469434" data-name="Path 1469434" d="M44.881,21.121a1.022,1.022,0,0,1-1.021,1.021H23.881a1.021,1.021,0,0,1,0-2.042H43.86A1.029,1.029,0,0,1,44.881,21.121Z" transform="translate(1.143 1.058)"/>
      <path id="Path_1469435" data-name="Path 1469435" d="M44.881,26.731a1.029,1.029,0,0,1-1.021,1.021H23.881a1.021,1.021,0,0,1,0-2.042H43.86A1.022,1.022,0,0,1,44.881,26.731Z" transform="translate(1.143 1.353)"/>
      <path id="Path_1469436" data-name="Path 1469436" d="M18.741,32.24H9.773A2.058,2.058,0,0,0,7.72,34.3v8.968a2.049,2.049,0,0,0,2.053,2.053h8.968A2.058,2.058,0,0,0,20.8,43.272V34.3a2.066,2.066,0,0,0-2.063-2.063Zm.021,11.032c0,.011-.011.011-.021.011l-8.979-.011.011-8.989,8.989.021Z" transform="translate(0.346 1.697)"/>
      <path id="Path_1469437" data-name="Path 1469437" d="M17.559,37.157,13.78,40.936a1,1,0,0,1-.716.295,1.019,1.019,0,0,1-.726-.295l-1.663-1.663a1.023,1.023,0,0,1,1.442-1.453l.947.947,3.053-3.053a1.02,1.02,0,0,1,1.442,1.442Z" transform="translate(0.486 1.864)"/>
      <path id="Path_1469438" data-name="Path 1469438" d="M44.881,35.711a1.029,1.029,0,0,1-1.021,1.021H23.881a1.021,1.021,0,0,1,0-2.042H43.86A1.022,1.022,0,0,1,44.881,35.711Z" transform="translate(1.143 1.826)"/>
      <path id="Path_1469439" data-name="Path 1469439" d="M39.66,41.311a1.022,1.022,0,0,1-1.021,1.021H23.881a1.021,1.021,0,0,1,0-2.042H38.639A1.029,1.029,0,0,1,39.66,41.311Z" transform="translate(1.143 2.12)"/>
      <path id="Path_1469440" data-name="Path 1469440" d="M18.741,46.83H9.773A2.049,2.049,0,0,0,7.72,48.883v8.968a2.058,2.058,0,0,0,2.053,2.063h8.968A2.067,2.067,0,0,0,20.8,57.851V48.883a2.058,2.058,0,0,0-2.063-2.053Zm.021,11.021a.023.023,0,0,1-.021.021l-8.979-.021.011-8.979,8.989.011Z" transform="translate(0.346 2.465)"/>
      <path id="Path_1469441" data-name="Path 1469441" d="M17.559,51.737,13.78,55.516a1.006,1.006,0,0,1-.716.305,1.03,1.03,0,0,1-.726-.305l-1.663-1.663a1.02,1.02,0,0,1,1.442-1.442l.947.947L16.117,50.3a1.02,1.02,0,1,1,1.442,1.442Z" transform="translate(0.486 2.631)"/>
      <path id="Path_1469442" data-name="Path 1469442" d="M35.881,50.291a1.015,1.015,0,0,1-1.021,1.021H23.881a1.021,1.021,0,0,1,0-2.042H34.86A1.022,1.022,0,0,1,35.881,50.291Z" transform="translate(1.143 2.593)"/>
      <path id="Path_1469443" data-name="Path 1469443" d="M44.881,55.9a1.02,1.02,0,0,1-1.021,1.011H23.881a1.016,1.016,0,1,1,0-2.032H43.86A1.022,1.022,0,0,1,44.881,55.9Z" transform="translate(1.143 2.888)"/>
      <path id="Path_1469444" data-name="Path 1469444" d="M64.013,30.389l1.621-1.632a1.609,1.609,0,0,0,.474-1.147,1.669,1.669,0,0,0-.474-1.158l-2.042-2.032a1.617,1.617,0,0,0-1.147-.474,1.83,1.83,0,0,0-1.147.474l-2.337,2.337a.01.01,0,0,1-.011.011c-.011.011-.011.011-.011.021l-5.989,6V13.126a2.961,2.961,0,0,0-2.968-2.947H43.087a6.721,6.721,0,0,0-6.432-4.758H33.393a6.439,6.439,0,0,0-12.716,0H17.414a6.718,6.718,0,0,0-6.421,4.758H4.087A2.949,2.949,0,0,0,1.14,13.126V64.41a2.951,2.951,0,0,0,2.947,2.958H49.982A2.963,2.963,0,0,0,52.95,64.41V41.474l9.621-9.642,1.021,1.021-6.611,6.611A1.026,1.026,0,0,0,57.7,41.21a1.03,1.03,0,0,0,.726-.305l7.326-7.326a1.017,1.017,0,0,0,0-1.442ZM12.74,12.137a4.677,4.677,0,0,1,4.674-4.674h4.211a1.02,1.02,0,0,0,1.011-1.021,4.4,4.4,0,0,1,8.8,0,1.029,1.029,0,0,0,1.021,1.021h4.2a4.686,4.686,0,0,1,4.684,4.674v1.484H12.74ZM50.908,64.41a.919.919,0,0,1-.926.916H4.087a.916.916,0,0,1-.916-.916V13.126a.908.908,0,0,1,.916-.905H10.7v2.421a1.022,1.022,0,0,0,1.021,1.021H42.361a1.022,1.022,0,0,0,1.021-1.021V12.221h6.6a.91.91,0,0,1,.926.905V34.831L48.5,37.242a1,1,0,0,0-.284.674l-8.137,8.158a1.666,1.666,0,0,0-.495,1.179,1.829,1.829,0,0,0,.053.411L37.866,50.81A1.023,1.023,0,0,0,39.256,52.2L42.4,50.442a1.941,1.941,0,0,0,.421.063A1.7,1.7,0,0,0,44,50.01l6.905-6.916Zm-.442-23.758-7.642,7.653-1.042-1.053L49.413,39.6Zm1.653-1.232-1.453-1.453,1.979-1.989,7.032-7.042,1.453,1.453ZM62.571,28.947l-1.453-1.453,1.326-1.337L63.9,27.61Z"/>
      <g id="Group_1204347" data-name="Group 1204347" transform="translate(12.74 2.042)">
        <path id="Path_1469445" data-name="Path 1469445" d="M60.9,26.3l-1.326,1.337L58.12,26.187l1.326-1.337Z" transform="translate(-9.741 -0.734)" fill="#fe9d30"/>
        <path id="Path_1469446" data-name="Path 1469446" d="M0,0H10.81V1.484H0Z" transform="translate(29.072 45.209) rotate(-45.04)" fill="#fe9d30"/>
        <path id="Path_1469447" data-name="Path 1469447" d="M58.653,28.943l-9.01,9.032L48.19,36.522l1.979-1.989L57.2,27.49Z" transform="translate(-10.264 -0.595)" fill="#fe9d30"/>
        <path id="Path_1469448" data-name="Path 1469448" d="M36.076,7.361h-4.2A1.029,1.029,0,0,1,30.855,6.34a4.4,4.4,0,0,0-8.8,0,1.02,1.02,0,0,1-1.011,1.021H16.834a4.677,4.677,0,0,0-4.674,4.674v1.484h28.6V12.035a4.686,4.686,0,0,0-4.684-4.674Zm-9.621,2.674A3.347,3.347,0,1,1,29.8,6.687,3.347,3.347,0,0,1,26.455,10.035Z" transform="translate(-12.16 -1.94)" fill="#fe9d30"/>
      </g>
      <path id="Path_1469449" data-name="Path 1469449" d="M48.112,37.3a1,1,0,0,1,.284-.674l2.411-2.411V12.515a.91.91,0,0,0-.926-.905h-6.6v2.421a1.022,1.022,0,0,1-1.021,1.021H11.617A1.022,1.022,0,0,1,10.6,14.031V11.61H3.986a.908.908,0,0,0-.916.905V63.8a.916.916,0,0,0,.916.916H49.88a.919.919,0,0,0,.926-.916V42.484L43.9,49.4a1.7,1.7,0,0,1-1.179.495,1.94,1.94,0,0,1-.421-.063l-3.147,1.758a1.018,1.018,0,0,1-.495.126,1.024,1.024,0,0,1-.895-1.516l1.768-3.147a1.829,1.829,0,0,1-.053-.411,1.666,1.666,0,0,1,.495-1.179ZM24.923,20.547H44.9a1.021,1.021,0,1,1,0,2.042H24.923a1.021,1.021,0,0,1,0-2.042Zm0,5.905H44.9a1.021,1.021,0,1,1,0,2.042H24.923a1.021,1.021,0,0,1,0-2.042Zm0,9.453H44.9a1.021,1.021,0,0,1,0,2.042H24.923a1.021,1.021,0,0,1,0-2.042ZM21.049,59.7a2.066,2.066,0,0,1-2.063,2.063H10.017A2.058,2.058,0,0,1,7.965,59.7V50.736a2.049,2.049,0,0,1,2.053-2.053h8.968a2.058,2.058,0,0,1,2.063,2.053Zm0-15.347a2.058,2.058,0,0,1-2.063,2.053H10.017a2.049,2.049,0,0,1-2.053-2.053V35.389a2.058,2.058,0,0,1,2.053-2.063h8.968a2.067,2.067,0,0,1,2.063,2.063Zm0-15.347a2.064,2.064,0,0,1-2.063,2.053H10.017A2.055,2.055,0,0,1,7.965,29.01V20.031a2.055,2.055,0,0,1,2.053-2.053h8.968a2.064,2.064,0,0,1,2.063,2.053ZM44.9,57.157a1.016,1.016,0,1,1,0,2.032H24.923a1.016,1.016,0,1,1,0-2.032Zm-21-4.884a1.029,1.029,0,0,1,1.021-1.021H35.9a1.021,1.021,0,0,1,0,2.042H24.923A1.022,1.022,0,0,1,23.9,52.273Zm1.021-8.432a1.021,1.021,0,0,1,0-2.042H39.68a1.021,1.021,0,0,1,0,2.042Z" transform="translate(0.102 0.611)" fill="#e4e4e6"/>
      <path id="Path_1469450" data-name="Path 1469450" d="M9.671,48.77,9.66,57.749l8.979.021a.023.023,0,0,0,.021-.021V48.781ZM17.6,51.8l-3.779,3.779a1.006,1.006,0,0,1-.716.305,1.03,1.03,0,0,1-.726-.305l-1.663-1.663a1.02,1.02,0,0,1,1.442-1.442l.947.947,3.053-3.063A1.02,1.02,0,1,1,17.6,51.8Z" transform="translate(0.448 2.567)" fill="#5bba82"/>
      <path id="Path_1469451" data-name="Path 1469451" d="M9.671,34.18,9.66,43.169l8.979.011c.011,0,.021,0,.021-.011V34.2ZM17.6,37.222,13.818,41a1,1,0,0,1-.716.295A1.019,1.019,0,0,1,12.376,41l-1.663-1.663a1.023,1.023,0,1,1,1.442-1.453l.947.947,3.053-3.053A1.02,1.02,0,0,1,17.6,37.222Z" transform="translate(0.448 1.799)" fill="#5bba82"/>
      <path id="Path_1469452" data-name="Path 1469452" d="M9.671,19.6,9.66,28.589l8.979.011a.037.037,0,0,0,.021-.011V19.611ZM17.6,22.632,13.818,26.41a1.006,1.006,0,0,1-.716.305,1.03,1.03,0,0,1-.726-.305l-1.663-1.663a1.02,1.02,0,1,1,1.442-1.442l.947.947,3.053-3.063A1.02,1.02,0,0,1,17.6,22.632Z" transform="translate(0.448 1.032)" fill="#5bba82"/>
    </g>
  </g>
</svg>
