<svg xmlns="http://www.w3.org/2000/svg" xmlns:xlink="http://www.w3.org/1999/xlink" width="118" height="118" viewBox="0 0 118 118">
  <defs>
    <filter id="Rectangle_411831" x="0" y="0" width="118" height="118" filterUnits="userSpaceOnUse">
      <feOffset dy="3" input="SourceAlpha"/>
      <feGaussianBlur stdDeviation="3" result="blur"/>
      <feFlood flood-opacity="0.161"/>
      <feComposite operator="in" in2="blur"/>
      <feComposite in="SourceGraphic"/>
    </filter>
  </defs>
  <g id="Group_1204340" data-name="Group 1204340" transform="translate(-328.051 -6292)">
    <g id="Group_1203979" data-name="Group 1203979" transform="translate(1.27 2440)">
      <g transform="matrix(1, 0, 0, 1, 326.78, 3852)" filter="url(#Rectangle_411831)">
        <g id="Rectangle_411831-2" data-name="Rectangle 411831" transform="translate(9 6)" fill="#ffc94a" stroke="#fff" stroke-width="2">
          <path d="M5,0H68a32,32,0,0,1,32,32V95a5,5,0,0,1-5,5H32A32,32,0,0,1,0,68V5A5,5,0,0,1,5,0Z" stroke="none"/>
          <path d="M5,1H68A31,31,0,0,1,99,32V95a4,4,0,0,1-4,4H32A31,31,0,0,1,1,68V5A4,4,0,0,1,5,1Z" fill="none"/>
        </g>
      </g>
    </g>
    <g id="buscar_1_" data-name="buscar (1)" transform="translate(354.051 6315)">
      <path id="Path_1469386" data-name="Path 1469386" d="M136.351,19.136V8H102.943a4.455,4.455,0,0,0-4.454,4.454v8.909a20.045,20.045,0,0,1,27.518,18.609,19.826,19.826,0,0,1-3.073,10.669L133.378,61.1a4.454,4.454,0,0,1-6.292,6.292L116.629,56.944a20.091,20.091,0,0,1-18.141,1.637v9.555a4.455,4.455,0,0,0,4.454,4.454H145.26a4.454,4.454,0,0,0,4.454-4.454V21.363H138.579A2.227,2.227,0,0,1,136.351,19.136Zm8.909,46.772a2.227,2.227,0,0,1-2.227,2.227A2.227,2.227,0,0,0,145.26,65.908ZM126.329,28.045" transform="translate(-84.778 -6.886)" fill="#e0e0e2"/>
      <path id="Path_1469387" data-name="Path 1469387" d="M370.488,19.136a2.227,2.227,0,0,0,2.227,2.227h11.136L370.488,8Zm0,0" transform="translate(-318.915 -6.886)" fill="#c6c5ca"/>
      <path id="Path_1469388" data-name="Path 1469388" d="M38.882,130.7a20.047,20.047,0,1,0-10.669,3.073A19.963,19.963,0,0,0,38.882,130.7Zm-18.141-3.285a15.591,15.591,0,1,1,21.181-6.281,15.348,15.348,0,0,1-6.3,6.3A15.634,15.634,0,0,1,20.741,127.411Zm0,0" transform="translate(-7.031 -80.639)" fill="#ffcd00"/>
      <path id="Path_1469389" data-name="Path 1469389" d="M66.657,152.167a15.182,15.182,0,0,0,2.683-3.619,15.6,15.6,0,1,0-6.3,6.3A15.2,15.2,0,0,0,66.657,152.167ZM51.5,148.147" transform="translate(-34.449 -108.056)" fill="#c6c5ca"/>
      <path id="Path_1469390" data-name="Path 1469390" d="M228.809,320.624l10.457,10.446a4.454,4.454,0,0,0,6.292-6.292L235.112,314.32A19.963,19.963,0,0,1,228.809,320.624Zm0,0" transform="translate(-196.958 -270.566)" fill="#00aeef"/>
      <g id="Group_1204339" data-name="Group 1204339">
        <path id="Path_1469391" data-name="Path 1469391" d="M66.036,14.407a1.068,1.068,0,0,0-.057-.286c-.012-.036-.021-.07-.036-.1a1.118,1.118,0,0,0-.223-.326L52.356.326A1.1,1.1,0,0,0,52.029.1c-.033-.015-.067-.024-.1-.036a1.1,1.1,0,0,0-.292-.058C51.617.013,51.6,0,51.573,0H18.164A5.575,5.575,0,0,0,12.6,5.568v8.2a21.117,21.117,0,0,0,0,38.643v8.842a5.575,5.575,0,0,0,5.568,5.568H60.482a5.574,5.574,0,0,0,5.568-5.568V14.477C66.05,14.453,66.038,14.431,66.036,14.407Zm-3.788-1.043H53.8a1.114,1.114,0,0,1-1.114-1.114V3.8Zm-60,19.722A18.907,18.907,0,0,1,21.182,14.154q.949,0,1.881.091A18.88,18.88,0,0,1,39.88,30.251a19.117,19.117,0,0,1,.233,2.835,18.931,18.931,0,0,1-37.862,0ZM34.116,49.815c.152-.118.3-.235.452-.356a20.841,20.841,0,0,0,1.578-1.409,20.931,20.931,0,0,0,1.409-1.577c.121-.149.238-.3.356-.453.135-.176.281-.343.41-.523L47.815,55a3.316,3.316,0,0,1,0,4.712,3.392,3.392,0,0,1-4.715,0l-9.506-9.489C33.773,50.094,33.941,49.949,34.116,49.815ZM60.482,64.59H18.164a3.341,3.341,0,0,1-3.341-3.341V53.277c.069.022.141.037.212.058.178.054.359.1.539.148.417.111.836.223,1.26.306.208.044.417.084.627.121.424.074.852.133,1.282.183.192.022.381.049.574.065.617.053,1.238.087,1.865.087a21.02,21.02,0,0,0,10.49-2.795l9.846,9.837a5.568,5.568,0,1,0,7.87-7.863l-9.842-9.848a21.014,21.014,0,0,0,2.795-10.489q0-1.058-.1-2.1a21.154,21.154,0,0,0-21.057-19.06c-.627,0-1.248.035-1.865.087-.192.017-.383.044-.575.066q-.643.072-1.278.183-.317.055-.632.121c-.419.087-.834.189-1.246.3-.185.05-.37.095-.557.15-.069.021-.139.036-.208.058V5.568a3.341,3.341,0,0,1,3.341-3.341h32.3V12.25A3.341,3.341,0,0,0,53.8,15.591H63.823V61.249A3.341,3.341,0,0,1,60.482,64.59Zm0,0" fill="#231f20"/>
        <path id="Path_1469392" data-name="Path 1469392" d="M165.215,49.114A1.114,1.114,0,0,0,164.1,48H139.6a1.114,1.114,0,0,0,0,2.227h24.5A1.114,1.114,0,0,0,165.215,49.114Zm0,0" transform="translate(-119.21 -41.318)" fill="#231f20"/>
        <path id="Path_1469393" data-name="Path 1469393" d="M328.965,192H315.6a1.114,1.114,0,1,0,0,2.227h13.363a1.114,1.114,0,1,0,0-2.227Zm0,0" transform="translate(-270.711 -165.273)" fill="#231f20"/>
        <path id="Path_1469394" data-name="Path 1469394" d="M328.965,240H315.6a1.114,1.114,0,0,0,0,2.227h13.363a1.114,1.114,0,0,0,0-2.227Zm0,0" transform="translate(-270.711 -206.591)" fill="#231f20"/>
        <path id="Path_1469395" data-name="Path 1469395" d="M323.193,289.114A1.114,1.114,0,0,0,322.079,288H307.6a1.114,1.114,0,0,0,0,2.227h14.477A1.114,1.114,0,0,0,323.193,289.114Zm0,0" transform="translate(-263.824 -247.91)" fill="#231f20"/>
        <path id="Path_1469396" data-name="Path 1469396" d="M350.738,337.114A1.114,1.114,0,0,0,349.625,336H339.6a1.114,1.114,0,0,0,0,2.227h10.023A1.114,1.114,0,0,0,350.738,337.114Zm0,0" transform="translate(-291.37 -289.228)" fill="#231f20"/>
        <path id="Path_1469397" data-name="Path 1469397" d="M261.624,97.114A1.114,1.114,0,0,0,260.511,96H251.6a1.114,1.114,0,0,0,0,2.227h8.909A1.114,1.114,0,0,0,261.624,97.114Zm0,0" transform="translate(-215.62 -82.637)" fill="#231f20"/>
        <path id="Path_1469398" data-name="Path 1469398" d="M309.42,145.114A1.114,1.114,0,0,0,308.306,144H291.6a1.114,1.114,0,0,0,0,2.227h16.7A1.114,1.114,0,0,0,309.42,145.114Zm0,0" transform="translate(-250.051 -123.955)" fill="#231f20"/>
        <path id="Path_1469399" data-name="Path 1469399" d="M115.6,186.227h7.8a1.114,1.114,0,1,0,0-2.227h-7.8a1.114,1.114,0,1,0,0,2.227Zm0,0" transform="translate(-98.551 -158.387)" fill="#231f20"/>
        <path id="Path_1469400" data-name="Path 1469400" d="M101.42,233.114A1.114,1.114,0,0,0,100.306,232H83.6a1.114,1.114,0,0,0,0,2.227h16.7A1.114,1.114,0,0,0,101.42,233.114Zm0,0" transform="translate(-71.006 -199.705)" fill="#231f20"/>
        <path id="Path_1469401" data-name="Path 1469401" d="M123.4,280h-7.8a1.114,1.114,0,1,0,0,2.227h7.8a1.114,1.114,0,1,0,0-2.227Zm0,0" transform="translate(-98.551 -241.023)" fill="#231f20"/>
        <path id="Path_1469402" data-name="Path 1469402" d="M56.786,149.1a16.331,16.331,0,0,0,6.5-6.3c.088-.154.184-.3.266-.459.043-.08.077-.164.118-.244.169-.325.334-.65.48-.983s.261-.649.38-.977c.034-.095.078-.187.111-.283a16.713,16.713,0,1,0-7.852,9.254ZM41.919,147.12a14.369,14.369,0,0,1-3.3-2.47,14.664,14.664,0,0,1-1.817-2.21q-.395-.591-.728-1.213a14.478,14.478,0,1,1,25.511.064v.009a14.232,14.232,0,0,1-5.849,5.845,14.435,14.435,0,0,1-13.82-.021Zm0,0" transform="translate(-27.676 -101.33)" fill="#231f20"/>
        <path id="Path_1469403" data-name="Path 1469403" d="M386.284,384a1.114,1.114,0,0,0-1.114,1.114v4.454a1.114,1.114,0,0,1-1.114,1.114H379.6a1.114,1.114,0,0,0,0,2.227h4.454a3.341,3.341,0,0,0,3.341-3.341v-4.454A1.114,1.114,0,0,0,386.284,384Zm0,0" transform="translate(-325.802 -330.546)" fill="#231f20"/>
      </g>
    </g>
  </g>
</svg>
