<svg xmlns="http://www.w3.org/2000/svg" xmlns:xlink="http://www.w3.org/1999/xlink" width="118" height="118" viewBox="0 0 118 118">
  <defs>
    <filter id="Rectangle_411831" x="0" y="0" width="118" height="118" filterUnits="userSpaceOnUse">
      <feOffset dy="3" input="SourceAlpha"/>
      <feGaussianBlur stdDeviation="3" result="blur"/>
      <feFlood flood-opacity="0.161"/>
      <feComposite operator="in" in2="blur"/>
      <feComposite in="SourceGraphic"/>
    </filter>
  </defs>
  <g id="Group_1204470" data-name="Group 1204470" transform="translate(-395.051 -3732)">
    <g id="Group_1204133" data-name="Group 1204133" transform="translate(68.27 -120)">
      <g transform="matrix(1, 0, 0, 1, 326.78, 3852)" filter="url(#Rectangle_411831)">
        <g id="Rectangle_411831-2" data-name="Rectangle 411831" transform="translate(9 6)" fill="#ffc94a" stroke="#fff" stroke-width="2">
          <path d="M5,0H68a32,32,0,0,1,32,32V95a5,5,0,0,1-5,5H32A32,32,0,0,1,0,68V5A5,5,0,0,1,5,0Z" stroke="none"/>
          <path d="M5,1H68A31,31,0,0,1,99,32V95a4,4,0,0,1-4,4H32A31,31,0,0,1,1,68V5A4,4,0,0,1,5,1Z" fill="none"/>
        </g>
      </g>
    </g>
    <g id="Layer_x0020_1" transform="translate(424.051 3759.964)">
      <path id="Path_1469485" data-name="Path 1469485" d="M36.607,43.419H27.191l1.66,2.874A19.476,19.476,0,0,0,48.369,16.284l-7.5,7.5v4.361c5.53-6.4,7.505-1.4,5.326,2.534l-3.526,6.85a15.518,15.518,0,0,1-5.693,5.783.694.694,0,0,1-.366.1ZM22.394,20.195V17.228a2.835,2.835,0,0,1,4.273-2.441,2.843,2.843,0,0,1,4.348-2.307,2.862,2.862,0,0,1,5.5,0,2.943,2.943,0,0,1,3.976.936L43,10.914C29.413,1.8,10.972,12.735,12.827,29.285q.174-.143.359-.266L13.222,29l.054-.035.1-.062.007,0a4.66,4.66,0,0,1,5.127.248,4.582,4.582,0,0,1,1.249,1.405l.078.136c.412.638.78,1.344,1.18,2.044l.061.106,1.315-1.315V20.195Zm5.536,7.75a.621.621,0,0,1-.14.14L21.8,34.078l2.494,4.32L35.331,27.36l.021-.028.055-.06.065-.054L39.6,23.089a.622.622,0,0,1,.141-.141l8.229-8.229a.7.7,0,0,1,1.051.081c10,13.673.242,33.166-16.845,33.166-.4,0-1.447-.006-2.424-.106L30.9,49.85a4.6,4.6,0,0,1,.331.7l.017.046.021.061a4.539,4.539,0,0,1,.2,2.113A25.679,25.679,0,1,0,8.294,36.553l3.345-5.794a20.862,20.862,0,0,1,32.845-20.5.7.7,0,0,1,.081,1.051l-3.831,3.831a.634.634,0,0,1-.127.127L36.47,19.405a.62.62,0,0,1-.135.135L32.2,23.673a.622.622,0,0,1-.142.142l-4.13,4.13ZM26.666,17.228a1.441,1.441,0,0,0-2.883,0v12.9l2.883-2.883V17.228Zm4.271-2.367a1.441,1.441,0,0,0-2.882.017V25.857l2.882-2.882V14.86Zm4.271.017V13.2a1.441,1.441,0,0,0-2.881,0v8.385L35.207,18.7V14.878Zm4.271,10.3L36.6,28.051l0,.13v.133l0,.084,0,.075,0,.026-.005.054,0,.031-.006.045,0,.025,0,.025,0,.025-.006.029-.011.044-.007.024-.007.023-.008.023-.009.024-.01.026-.012.028-.011.023-.015.028-.011.02-.014.023-.015.022-.017.023-.016.019-.019.021-.017.017-.02.018-.017.014-.019.014-.015.011-.02.013-.021.012-.026.013-.032.014-.047.017-.012,0-.026.007-.036.008-.023,0-.043.006-.034,0-.04,0h-.074l-.055,0-.03,0-.058-.01-.045-.011-.031-.01-.03-.011-.029-.012-.027-.014-.021-.012-.025-.016-.019-.013L25.01,39.643l1.378,2.388H36.407a14.2,14.2,0,0,0,5.015-5.115l3.557-6.907c.324-.55,1.019-2.1.6-3.1-.73-1.728-3.325,1.924-5.031,3.782a.7.7,0,0,1-1.2-.527,13.478,13.478,0,0,1,.136-1.635V25.175Zm-.051-10.691a1.446,1.446,0,0,0-2.831.393v2.438ZM26.905,56.767H4.616a4.619,4.619,0,0,1-4-6.917l6.807-11.79A27.069,27.069,0,1,1,32.179,54.172c-.451,0-.816-.011-1.111-.035a4.557,4.557,0,0,1-4.162,2.629Zm-8.47-25.721L29.7,50.543h0c.02.035.039.069.057.1a3.17,3.17,0,0,1,.345,1.933c-.029.173-.068.331-.1.474a3.217,3.217,0,0,1-3.1,2.324H4.624a3.224,3.224,0,0,1-2.8-4.835l11.144-19.3a3.25,3.25,0,0,1,5.471-.2ZM17.52,46.338H14A1.392,1.392,0,0,1,12.6,44.9l.451-8.027c.1-1.766,2.207-1.36,4.017-1.36a1.421,1.421,0,0,1,1.4,1.361l.45,8.026a1.392,1.392,0,0,1-1.4,1.439ZM14.451,36.9l-.463,8.076,3.553-.039L17.062,36.9l-2.611,0ZM15.76,54.187c-4.158,0-4.159-6.319,0-6.319S19.917,54.187,15.76,54.187Zm0-4.93a1.771,1.771,0,0,0,0,3.541A1.771,1.771,0,0,0,15.76,49.257Z" transform="translate(0 0)" fill="#000002" fill-rule="evenodd"/>
      <path id="Path_1469486" data-name="Path 1469486" d="M3.956,9.139,3.476,1.1.866,1.1.4,9.178Z" transform="translate(13.585 35.8)" fill="#ffffe6" fill-rule="evenodd"/>
      <path id="Path_1469487" data-name="Path 1469487" d="M2.152,5a1.771,1.771,0,0,0,0-3.541A1.771,1.771,0,0,0,2.152,5Z" transform="translate(13.608 47.803)" fill="#ffffe6" fill-rule="evenodd"/>
      <path id="Path_1469488" data-name="Path 1469488" d="M14.412,19.113c4.158,0,4.157,6.319,0,6.319S10.253,19.113,14.412,19.113Zm13.941,2.676L17.087,2.291a3.25,3.25,0,0,0-5.471.2L.472,21.789a3.224,3.224,0,0,0,2.8,4.835H25.553a3.217,3.217,0,0,0,3.1-2.324c.035-.143.074-.3.1-.474a3.17,3.17,0,0,0-.345-1.933l-.057-.1ZM17.571,16.144a1.392,1.392,0,0,1-1.4,1.439H12.652a1.392,1.392,0,0,1-1.4-1.439L11.7,8.118c.1-1.766,2.207-1.36,4.017-1.36a1.421,1.421,0,0,1,1.4,1.361l.45,8.026Z" transform="translate(1.348 28.755)" fill="#ffd545" fill-rule="evenodd"/>
      <path id="Path_1469489" data-name="Path 1469489" d="M24.609,48.5a4.6,4.6,0,0,1,.331.7l.017.046.021.061a4.539,4.539,0,0,1,.2,2.113A25.679,25.679,0,1,0,2,35.2L5.344,29.41A20.862,20.862,0,0,1,38.19,8.91a.7.7,0,0,1,.081,1.051L34.44,13.792a.634.634,0,0,1-.127.127l-4.137,4.137a.62.62,0,0,1-.135.135l-4.133,4.132a.622.622,0,0,1-.142.142l-4.13,4.13a.621.621,0,0,1-.14.14L15.5,32.728,18,37.049,29.036,26.01l.021-.028.055-.06.065-.054,4.129-4.129a.622.622,0,0,1,.141-.141l8.229-8.229a.7.7,0,0,1,1.051.081c10,13.673.242,33.166-16.845,33.166-.4,0-1.447-.006-2.424-.106l1.149,1.99Z" transform="translate(6.295 1.349)" fill="#fd697f" fill-rule="evenodd"/>
      <g id="Group_1204374" data-name="Group 1204374" transform="translate(23.783 11.779)">
        <path id="Path_1469490" data-name="Path 1469490" d="M2.1,17.615H12.117A14.2,14.2,0,0,0,17.132,12.5l3.557-6.907c.324-.55,1.019-2.1.6-3.1-.73-1.728-3.325,1.924-5.031,3.782a.7.7,0,0,1-1.2-.527,13.479,13.479,0,0,1,.136-1.635V.76L12.312,3.637l0,.13V3.9l0,.084,0,.075,0,.026L12.3,4.14l0,.031-.006.045,0,.025,0,.025,0,.025-.006.029-.011.044-.007.024-.007.023-.008.023-.009.024-.01.026-.012.028-.011.023-.015.028-.011.02-.014.023-.015.022-.017.023-.016.019-.019.021-.017.017-.02.018-.017.014-.019.014L12,4.764l-.02.013-.021.012-.026.013-.032.014-.047.017-.012,0-.026.007-.036.008-.023,0-.043.006-.034,0-.039,0H11.57l-.055,0-.03,0-.058-.01-.045-.011-.031-.01-.03-.011L11.292,4.8l-.027-.014-.021-.012-.025-.016L11.2,4.749.72,15.228,2.1,17.615Z" transform="translate(0.507 12.636)" fill="#ffdfcf" fill-rule="evenodd"/>
        <path id="Path_1469491" data-name="Path 1469491" d="M3.568,11.932V1.913a1.441,1.441,0,0,0-2.883,0v12.9l2.883-2.883Z" transform="translate(-0.685 3.536)" fill="#ffdfcf" fill-rule="evenodd"/>
        <path id="Path_1469492" data-name="Path 1469492" d="M.808,1.845V12.824L3.69,9.942V1.827a1.441,1.441,0,0,0-2.882.017Z" transform="translate(3.464 1.254)" fill="#ffdfcf" fill-rule="evenodd"/>
        <path id="Path_1469493" data-name="Path 1469493" d="M.931,1.8v8.385L3.813,7.3V1.8a1.441,1.441,0,0,0-2.881,0Z" transform="translate(7.612 -0.374)" fill="#ffdfcf" fill-rule="evenodd"/>
        <path id="Path_1469494" data-name="Path 1469494" d="M1.054,1.847V4.285L3.885,1.453A1.446,1.446,0,0,0,1.054,1.847Z" transform="translate(11.759 1.252)" fill="#ffdfcf" fill-rule="evenodd"/>
      </g>
    </g>
  </g>
</svg>
