<svg xmlns="http://www.w3.org/2000/svg" xmlns:xlink="http://www.w3.org/1999/xlink" width="118" height="118" viewBox="0 0 118 118">
  <defs>
    <filter id="Rectangle_411831" x="0" y="0" width="118" height="118" filterUnits="userSpaceOnUse">
      <feOffset dy="3" input="SourceAlpha"/>
      <feGaussianBlur stdDeviation="3" result="blur"/>
      <feFlood flood-opacity="0.161"/>
      <feComposite operator="in" in2="blur"/>
      <feComposite in="SourceGraphic"/>
    </filter>
  </defs>
  <g id="Group_1204383" data-name="Group 1204383" transform="translate(1174 7876)">
    <g id="Group_1204134" data-name="Group 1204134" transform="translate(-1500.781 -11728)">
      <g transform="matrix(1, 0, 0, 1, 326.78, 3852)" filter="url(#Rectangle_411831)">
        <g id="Rectangle_411831-2" data-name="Rectangle 411831" transform="translate(9 6)" fill="#ffc94a" stroke="#fff" stroke-width="2">
          <path d="M5,0H68a32,32,0,0,1,32,32V95a5,5,0,0,1-5,5H32A32,32,0,0,1,0,68V5A5,5,0,0,1,5,0Z" stroke="none"/>
          <path d="M5,1H68A31,31,0,0,1,99,32V95a4,4,0,0,1-4,4H32A31,31,0,0,1,1,68V5A4,4,0,0,1,5,1Z" fill="none"/>
        </g>
      </g>
    </g>
    <g id="pesticida" transform="translate(-1179.375 -7853.025)">
      <g id="Group_1204381" data-name="Group 1204381" transform="translate(37.344 0.971)">
        <path id="Path_1469511" data-name="Path 1469511" d="M50.529,54.705V12.813L47.606,8.429a2.032,2.032,0,0,0-3.381,2.254l2.3,3.445V54.842A4.773,4.773,0,0,0,51.3,59.615h4.531V55.608H51.432A.9.9,0,0,1,50.529,54.705Z" transform="translate(-43.884 -7.524)" fill="#bdd9ef"/>
        <path id="Path_1469512" data-name="Path 1469512" d="M126.459,364.739h5.3v8.014h-5.3Z" transform="translate(-115.807 -318.658)" fill="#eaf6ff"/>
        <path id="Path_1469513" data-name="Path 1469513" d="M126.459,364.739h2.58v8.014h-2.58Z" transform="translate(-115.807 -318.658)" fill="#d8ecfe"/>
        <path id="Path_1469514" data-name="Path 1469514" d="M192.59,35.817l-2,1-2-1V31.81l2-1,2,1Z" transform="translate(-169.917 -27.802)" fill="#ef6062"/>
        <path id="Path_1469515" data-name="Path 1469515" d="M188.583,31.81v4.007l2,1,.577-1V31.81l-.577-1Z" transform="translate(-169.917 -27.802)" fill="#ea4952"/>
        <path id="Path_1469516" data-name="Path 1469516" d="M398.5,74.915h-8.014V70.55a.9.9,0,0,1,.9-.9H397.6a.9.9,0,0,1,.9.9Z" transform="translate(-345.775 -61.633)" fill="#6fd7a3"/>
        <path id="Path_1469517" data-name="Path 1469517" d="M393.971,69.648h-2.58a.9.9,0,0,0-.9.9v4.365h2.58V70.551A.9.9,0,0,1,393.971,69.648Z" transform="translate(-345.776 -61.634)" fill="#3ec3a4"/>
        <path id="Path_1469518" data-name="Path 1469518" d="M181.066,74.915h-8.014V70.55a.9.9,0,0,1,.9-.9h6.208a.9.9,0,0,1,.9.9Z" transform="translate(-156.389 -61.633)" fill="#6fd7a3"/>
        <path id="Path_1469519" data-name="Path 1469519" d="M176.535,69.648h-2.58a.9.9,0,0,0-.9.9v4.365h2.58V70.551A.9.9,0,0,1,176.535,69.648Z" transform="translate(-156.389 -61.634)" fill="#3ec3a4"/>
        <path id="Path_1469520" data-name="Path 1469520" d="M195.657,73.655h-12.09l-2-4.007h-8.014l-2,4.007h-12.09a1.935,1.935,0,0,0-1.935,1.935v4.076l1.681,2.3v30.8l-1.681,2.966,1.324,10.018h4.687l2-4.007h24.042l2,4.007h4.687l1.324-10.018-2-2.819V82.471l2-2.806V75.59a1.935,1.935,0,0,0-1.935-1.935Z" transform="translate(-142.862 -61.634)" fill="#6fd7a3"/>
        <g id="Group_1204378" data-name="Group 1204378" transform="translate(14.659 8.014)">
          <path id="Path_1469521" data-name="Path 1469521" d="M270.823,69.648h-2.58l-2,4.007h2.58Z" transform="translate(-252.214 -69.648)" fill="#3ec3a4"/>
          <path id="Path_1469522" data-name="Path 1469522" d="M406.019,473.457l2,4.007h2.58l-2-4.007Z" transform="translate(-373.963 -421.365)" fill="#3ec3a4"/>
          <path id="Path_1469523" data-name="Path 1469523" d="M160.1,102.645a1.935,1.935,0,0,1,1.935-1.935h-2.58a1.935,1.935,0,0,0-1.935,1.935v4.076l1.681,2.3v30.8l-1.681,2.966,1.324,10.018h2.58L160.1,142.784Z" transform="translate(-157.521 -96.703)" fill="#3ec3a4"/>
        </g>
        <path id="Path_1469524" data-name="Path 1469524" d="M157.521,147.3h40.071v36.063H157.521Z" transform="translate(-142.862 -129.272)" fill="#eaf6ff"/>
        <path id="Path_1469525" data-name="Path 1469525" d="M157.521,147.3h2.58v36.063h-2.58Z" transform="translate(-142.862 -129.272)" fill="#d8ecfe"/>
        <path id="Path_1469526" data-name="Path 1469526" d="M173.3,11.531H167.29a2,2,0,1,1,0-4.007H173.3a2,2,0,1,1,0,4.007Z" transform="translate(-149.626 -7.524)" fill="#ef6062"/>
        <path id="Path_1469527" data-name="Path 1469527" d="M167.867,9.528a2,2,0,0,1,2-2h-2.58a2,2,0,1,0,0,4.007h2.58A2,2,0,0,1,167.867,9.528Z" transform="translate(-149.626 -7.524)" fill="#ea4952"/>
        <g id="Group_1204380" data-name="Group 1204380" transform="translate(20.67 22.039)">
          <circle id="Ellipse_12494" data-name="Ellipse 12494" cx="14.025" cy="14.025" r="14.025" transform="translate(0 0)" fill="#6fd7a3"/>
          <path id="Path_1469528" data-name="Path 1469528" d="M210.8,202.308a14.025,14.025,0,0,1,8.627-23.882,14.025,14.025,0,1,0,0,27.931A13.968,13.968,0,0,1,210.8,202.308Z" transform="translate(-204.114 -178.367)" fill="#3ec3a4"/>
          <g id="Group_1204379" data-name="Group 1204379" transform="translate(7.338 7.338)">
            <path id="Path_1469529" data-name="Path 1469529" d="M266.7,237.117l-3.831,3.831-1.178-1.178a2.352,2.352,0,0,1,0-3.327l.5-.5a2.352,2.352,0,0,1,3.327,0Z" transform="translate(-260.997 -235.249)" fill="#565f64"/>
            <path id="Path_1469530" data-name="Path 1469530" d="M264.267,236.441l.5-.5a2.364,2.364,0,0,1,.373-.3,2.353,2.353,0,0,0-2.953.3l-.5.5a2.352,2.352,0,0,0,0,3.327l1.178,1.178,1.294-1.294A2.353,2.353,0,0,1,264.267,236.441Z" transform="translate(-260.997 -235.249)" fill="#464f54"/>
            <path id="Path_1469531" data-name="Path 1469531" d="M285.855,258.59l-1.517,1.517a3.441,3.441,0,0,1-4.867,0l-4.071-4.071a3.441,3.441,0,0,1,0-4.867l1.517-1.517a3.441,3.441,0,0,1,4.867,0l4.071,4.071A3.441,3.441,0,0,1,285.855,258.59Z" transform="translate(-272.664 -246.916)" fill="#565f64"/>
            <path id="Path_1469532" data-name="Path 1469532" d="M282.052,260.107l-4.071-4.071a3.441,3.441,0,0,1,0-4.867l1.517-1.517a3.429,3.429,0,0,1,1.144-.758,3.443,3.443,0,0,0-3.724.758l-1.517,1.517a3.441,3.441,0,0,0,0,4.867l4.071,4.071a3.442,3.442,0,0,0,3.723.758A3.43,3.43,0,0,1,282.052,260.107Z" transform="translate(-272.665 -246.916)" fill="#464f54"/>
          </g>
        </g>
        <path id="Path_1469533" data-name="Path 1469533" d="M49.1,54.842V14.127l-2.3-3.445a2.032,2.032,0,0,1,.4-2.7,2.032,2.032,0,0,0-2.981,2.7l2.3,3.445V54.842a4.773,4.773,0,0,0,4.773,4.773h2.58A4.773,4.773,0,0,1,49.1,54.842Z" transform="translate(-43.883 -7.523)" fill="#98c7e2"/>
        <path id="Path_1469534" data-name="Path 1469534" d="M61.677,107.05h-4.2a.9.9,0,0,1-.9-.9V96.019a.9.9,0,0,1,.9-.9h4.2a.9.9,0,0,1,.9.9v10.128A.9.9,0,0,1,61.677,107.05Z" transform="translate(-54.932 -83.816)" fill="#eaf6ff"/>
        <path id="Path_1469535" data-name="Path 1469535" d="M59.232,106.147V96.019a.9.9,0,0,1,.9-.9H57.472a.9.9,0,0,0-.9.9v10.128a.9.9,0,0,0,.9.9h2.663A.9.9,0,0,1,59.232,106.147Z" transform="translate(-54.932 -83.816)" fill="#d8ecfe"/>
      </g>
      <g id="Group_1204382" data-name="Group 1204382" transform="translate(36.375 0)">
        <path id="Path_1469536" data-name="Path 1469536" d="M91.037,12.167V9.888a1.873,1.873,0,0,0-1.871-1.871H82.959a1.873,1.873,0,0,0-1.87,1.871v2.137H78.647L76.911,8.552a.968.968,0,0,0-.865-.535H68.031a.967.967,0,0,0-.865.535L65.43,12.024H62.988V9.888a1.873,1.873,0,0,0-1.871-1.871h-.133V5.945h.034a2.971,2.971,0,0,0,0-5.942H55.008a2.971,2.971,0,1,0,0,5.942h.034V8.017H54.91a1.873,1.873,0,0,0-1.871,1.871v2.279a2.908,2.908,0,0,0-2,2.76V46.084H48a.968.968,0,0,0-.968.968v1.036H44.956V24.957a1.873,1.873,0,0,0,1-1.656V13.173a1.873,1.873,0,0,0-1-1.656V6.26c0-.515-.109-.359-3.085-4.921A3,3,0,0,0,36.88,4.666l2.134,3.2v3.649a1.873,1.873,0,0,0-1,1.656V23.3a1.873,1.873,0,0,0,1,1.656V30.6a.968.968,0,0,0,1.935,0V25.172h2.072v22.98a1.873,1.873,0,0,0,1.871,1.871h2.137v2.072H44.755a3.81,3.81,0,0,1-3.806-3.806V34.817a.968.968,0,0,0-1.935,0V48.289a5.747,5.747,0,0,0,5.741,5.741h2.274v1.036a.968.968,0,0,0,.968.968h3.159l1.213,9.177a.968.968,0,0,0,.959.841h4.687a.967.967,0,0,0,.865-.535l1.736-3.472H83.462L85.2,65.516a.968.968,0,0,0,.865.535H90.75a.968.968,0,0,0,.959-.841c1.372-10.385,1.332-10.046,1.332-10.144V14.927a2.908,2.908,0,0,0-2-2.76Zm-51.09,11.07v-10h4.076v10ZM38.49,3.593a1.064,1.064,0,0,1,1.771-1.181l2.76,4.14V11.3H40.949V7.575c0-.513-.173-.458-2.459-3.982ZM83.023,9.952H89.1v2.072H83.023ZM53.972,2.974a1.037,1.037,0,0,1,1.036-1.036h6.011a1.036,1.036,0,1,1,0,2.072H55.008a1.037,1.037,0,0,1-1.036-1.036Zm3.005,2.971H59.05V8.017H56.978Zm4.076,4.007v2.072H54.974V9.952Zm-7.115,4.007h12.09a.967.967,0,0,0,.865-.535l1.736-3.472h6.818l1.736,3.472a.968.968,0,0,0,.865.535h12.09a.969.969,0,0,1,.968.968v3.108H86.852a.968.968,0,0,0,0,1.935h4.254V54.1H52.971V19.97H82.636a.968.968,0,1,0,0-1.935H52.971V14.927a.969.969,0,0,1,.968-.968Zm-4.975,34.06h2.072V54.1H48.964ZM89.9,64.116H86.661l-1.736-3.472a.968.968,0,0,0-.865-.535H60.017a.967.967,0,0,0-.865.535l-1.736,3.472H54.175l-1.068-8.083H90.97Z" transform="translate(-36.375 0)"/>
        <path id="Path_1469537" data-name="Path 1469537" d="M211.375,170.866c-12.851,0-19.92,15.35-11.111,25.058a.967.967,0,1,0,1.433-1.3,13.036,13.036,0,0,1-.214-17.29l2.817,2.818a3.3,3.3,0,0,0-.58,1.876c0,1.855,1.375,2.639,1.781,3.157a4.427,4.427,0,0,0,.459,2.739l-1.368,1.368c-.477.476-.207.957-.283,3.238a.968.968,0,0,0,1.935,0v-2.153l.948-.948,2.019,2.019c-1.008,1.1-1.515,1.266-1.515,1.915v2.554a.968.968,0,1,0,1.935,0v-2.153l.948-.948a4.5,4.5,0,0,0,3.349,1.521,4.441,4.441,0,0,0,3.192-1.364l2.778,2.778a13.051,13.051,0,0,1-15.141,1.368.968.968,0,0,0-.982,1.668,14.994,14.994,0,1,0,7.6-27.92Zm-5.719,11.162c0-.81.614-1.122.909-1.483a1.376,1.376,0,0,1,.979-.406,1.644,1.644,0,0,1,1.221.648,34.246,34.246,0,0,0-2.462,2.462A1.649,1.649,0,0,1,205.656,182.028Zm6.523,9.651-4.071-4.071a2.474,2.474,0,0,1-.673-2.25l3.438-3.438a2.474,2.474,0,0,1,2.25.673l4.071,4.071a2.477,2.477,0,0,1,0,3.5l-1.517,1.517a2.477,2.477,0,0,1-3.5,0Zm9.088,2.7-2.778-2.778a4.461,4.461,0,0,0,1.344-3.615,4.651,4.651,0,0,0-1.5-2.926l.948-.948h2.153a.968.968,0,1,0,0-1.935c-2.256.075-2.76-.194-3.238.283l-1.231,1.231-2.018-2.018.948-.948h2.153a.968.968,0,0,0,0-1.935h-2.554c-.656,0-.807.506-2.053,1.652a4.426,4.426,0,0,0-2.738-.459c-.509-.4-1.3-1.781-3.157-1.781a3.3,3.3,0,0,0-1.876.58l-2.818-2.818a13.058,13.058,0,0,1,18.416,18.416Z" transform="translate(-175.712 -148.824)"/>
      </g>
    </g>
  </g>
</svg>
