<svg xmlns="http://www.w3.org/2000/svg" xmlns:xlink="http://www.w3.org/1999/xlink" width="118" height="118" viewBox="0 0 118 118">
  <defs>
    <filter id="Rectangle_411831" x="0" y="0" width="118" height="118" filterUnits="userSpaceOnUse">
      <feOffset dy="3" input="SourceAlpha"/>
      <feGaussianBlur stdDeviation="3" result="blur"/>
      <feFlood flood-opacity="0.161"/>
      <feComposite operator="in" in2="blur"/>
      <feComposite in="SourceGraphic"/>
    </filter>
  </defs>
  <g id="Group_1204471" data-name="Group 1204471" transform="translate(-742.448 -3732)">
    <g id="Group_1204376" data-name="Group 1204376">
      <g id="Group_1204131" data-name="Group 1204131" transform="translate(415.667 -120)">
        <g transform="matrix(1, 0, 0, 1, 326.78, 3852)" filter="url(#Rectangle_411831)">
          <g id="Rectangle_411831-2" data-name="Rectangle 411831" transform="translate(9 6)" fill="#ffc94a" stroke="#fff" stroke-width="2">
            <path d="M5,0H68a32,32,0,0,1,32,32V95a5,5,0,0,1-5,5H32A32,32,0,0,1,0,68V5A5,5,0,0,1,5,0Z" stroke="none"/>
            <path d="M5,1H68A31,31,0,0,1,99,32V95a4,4,0,0,1-4,4H32A31,31,0,0,1,1,68V5A4,4,0,0,1,5,1Z" fill="none"/>
          </g>
        </g>
      </g>
      <g id="Linear_ok" transform="translate(768.051 3754)">
        <circle id="Ellipse_12493" data-name="Ellipse 12493" cx="25" cy="25" r="25" transform="translate(10 7)" fill="#61e09a"/>
        <path id="Path_1469495" data-name="Path 1469495" d="M29.5,42.328l-6.914-6.914,2.828-2.828L29.5,36.672,44.586,21.586l2.828,2.828Z" fill="#fff"/>
        <path id="Path_1469496" data-name="Path 1469496" d="M11,11h2a2,2,0,0,1,2,2v6H9V13A2,2,0,0,1,11,11Z" fill="#89b4d3"/>
        <path id="Path_1469497" data-name="Path 1469497" d="M9,49h6V62H9Z" fill="#e6e7e8"/>
        <path id="Path_1469498" data-name="Path 1469498" d="M7,17H17V51H7Z" fill="#f1f2f2"/>
        <path id="Path_1469499" data-name="Path 1469499" d="M7,30H17V51H7Z" fill="#d0e1ed"/>
        <g id="Group_1204375" data-name="Group 1204375">
          <path id="Path_1469500" data-name="Path 1469500" d="M35,58a26.018,26.018,0,0,1-12.483-3.189,1,1,0,1,1,.963-1.751,24,24,0,1,0-4.08-39.3,1,1,0,1,1-1.3-1.52A26,26,0,1,1,35,58Z" fill="#231f20"/>
          <path id="Path_1469501" data-name="Path 1469501" d="M29.5,43.328a1,1,0,0,1-.707-.293l-6.914-6.914a1,1,0,0,1,0-1.414l2.828-2.828a1,1,0,0,1,1.414,0L29.5,35.258,43.879,20.879a1,1,0,0,1,1.414,0l2.828,2.828a1,1,0,0,1,0,1.414L30.207,43.035a1,1,0,0,1-.707.293ZM24,35.414l5.5,5.5L46,24.414,44.586,23,30.207,37.379a1,1,0,0,1-1.414,0L25.414,34Z" fill="#231f20"/>
          <path id="Path_1469502" data-name="Path 1469502" d="M15,63H9a1,1,0,0,1-1-1V51a1,1,0,0,1,1-1h6a1,1,0,0,1,1,1V62A1,1,0,0,1,15,63Zm-5-2h4V52H10Z" fill="#231f20"/>
          <path id="Path_1469503" data-name="Path 1469503" d="M17,52H7a1,1,0,0,1-1-1V17a1,1,0,0,1,1-1H17a1,1,0,0,1,1,1V51A1,1,0,0,1,17,52ZM8,50h8V18H8Z" fill="#231f20"/>
          <path id="Path_1469504" data-name="Path 1469504" d="M15,18H9a1,1,0,0,1-1-1V13a3,3,0,0,1,3-3h2a3,3,0,0,1,3,3v4A1,1,0,0,1,15,18Zm-5-2h4V13a1,1,0,0,0-1-1H11a1,1,0,0,0-1,1Z" fill="#231f20"/>
          <path id="Path_1469505" data-name="Path 1469505" d="M12,12a1,1,0,0,1-1-1V2a1,1,0,1,1,2,0v9A1,1,0,0,1,12,12Z" fill="#231f20"/>
          <path id="Path_1469506" data-name="Path 1469506" d="M20,52H4a1,1,0,0,1,0-2H20a1,1,0,0,1,0,2Z" fill="#231f20"/>
          <path id="Path_1469507" data-name="Path 1469507" d="M19,63H5a1,1,0,0,1,0-2H19a1,1,0,0,1,0,2Z" fill="#231f20"/>
          <path id="Path_1469508" data-name="Path 1469508" d="M15,42H12a1,1,0,0,1,0-2h3a1,1,0,0,1,0,2Z" fill="#231f20"/>
          <path id="Path_1469509" data-name="Path 1469509" d="M15,46H11a1,1,0,0,1,0-2h4a1,1,0,0,1,0,2Z" fill="#231f20"/>
          <path id="Path_1469510" data-name="Path 1469510" d="M15,38H11a1,1,0,0,1,0-2h4a1,1,0,0,1,0,2Z" fill="#231f20"/>
        </g>
      </g>
    </g>
  </g>
</svg>
