<svg xmlns="http://www.w3.org/2000/svg" xmlns:xlink="http://www.w3.org/1999/xlink" width="118" height="118" viewBox="0 0 118 118">
  <defs>
    <filter id="Rectangle_411831" x="0" y="0" width="118" height="118" filterUnits="userSpaceOnUse">
      <feOffset dy="3" input="SourceAlpha"/>
      <feGaussianBlur stdDeviation="3" result="blur"/>
      <feFlood flood-opacity="0.161"/>
      <feComposite operator="in" in2="blur"/>
      <feComposite in="SourceGraphic"/>
    </filter>
    <clipPath id="clip-path">
      <path id="path3270" d="M0-682.665H56.913v56.913H0Z" transform="translate(0 682.665)"/>
    </clipPath>
  </defs>
  <g id="Group_1204377" data-name="Group 1204377" transform="translate(-1088.051 -3732)">
    <g id="Group_1204132" data-name="Group 1204132" transform="translate(761.27 -120)">
      <g transform="matrix(1, 0, 0, 1, 326.78, 3852)" filter="url(#Rectangle_411831)">
        <g id="Rectangle_411831-2" data-name="Rectangle 411831" transform="translate(9 6)" fill="#ffc94a" stroke="#fff" stroke-width="2">
          <path d="M5,0H68a32,32,0,0,1,32,32V95a5,5,0,0,1-5,5H32A32,32,0,0,1,0,68V5A5,5,0,0,1,5,0Z" stroke="none"/>
          <path d="M5,1H68A31,31,0,0,1,99,32V95a4,4,0,0,1-4,4H32A31,31,0,0,1,1,68V5A4,4,0,0,1,5,1Z" fill="none"/>
        </g>
      </g>
    </g>
    <g id="g3264" transform="translate(1119.051 4442.665)">
      <g id="g3266" transform="translate(0 -682.665)">
        <g id="g3268" transform="translate(0 0)" clip-path="url(#clip-path)">
          <g id="g3274" transform="translate(4.44 10.601)">
            <path id="path3276" d="M0-61.217H11.877v-3.544a2.024,2.024,0,0,0-2.024-2.024H2.024A2.024,2.024,0,0,0,0-64.761Z" transform="translate(0 66.785)" fill="#8d9ca8"/>
          </g>
          <g id="g3278" transform="translate(10.671 10.601)">
            <path id="path3280" d="M-39.821,0h-3.622a2.024,2.024,0,0,1,2.024,2.024V5.568H-37.8V2.024A2.024,2.024,0,0,0-39.821,0" transform="translate(43.443)" fill="#7a8d98"/>
          </g>
          <path id="path3282" d="M101.668-634.018h3.8v6.545h-3.8Z" transform="translate(-93.192 638.074)" fill="#c8effe"/>
          <path id="path3284" d="M120.734-627.473h2.215v-6.545h-2.215Z" transform="translate(-110.669 638.074)" fill="#a0ecf9"/>
          <g id="g3286" transform="translate(4.44 0.834)">
            <path id="path3288" d="M-184.829-64.708l-2.9-2.663h-13.186a.722.722,0,0,1-.722-.722v-1.779a.722.722,0,0,1,.722-.722H-187.1a1.611,1.611,0,0,1,1.089.424l3.365,3.087a.722.722,0,0,1,.044,1.02l-1.2,1.311a.721.721,0,0,1-1.019.044" transform="translate(201.64 70.593)" fill="#c8effe"/>
          </g>
          <g id="g3290" transform="translate(16.759 0.834)">
            <path id="path3292" d="M-73.325-38.6l-3.365-3.087a1.611,1.611,0,0,0-1.089-.424h-2.215a1.611,1.611,0,0,1,1.089.424l3.365,3.087a.722.722,0,0,1,.044,1.02l-.317.351a.719.719,0,0,1-.531.233l.841.771a.722.722,0,0,0,1.019-.044l1.2-1.311a.722.722,0,0,0-.044-1.02" transform="translate(79.994 42.111)" fill="#a0ecf9"/>
          </g>
          <g id="g3294" transform="translate(2.197 16.168)">
            <path id="path3296" d="M-179.909-23.177V12.518a2.108,2.108,0,0,1-2.108,2.108h-12.147a2.109,2.109,0,0,1-2.108-2.108V-23.177a2.109,2.109,0,0,1,2.108-2.108h12.147a2.108,2.108,0,0,1,2.108,2.108" transform="translate(196.272 25.285)" fill="#c8effe"/>
          </g>
          <g id="g3298" transform="translate(22.01 22.056)">
            <path id="path3300" d="M-179.907-23.177V6.305a2.108,2.108,0,0,1-2.108,2.108h-12.147a2.108,2.108,0,0,1-2.108-2.108V-23.177a2.108,2.108,0,0,1,2.108-2.108h12.147a2.108,2.108,0,0,1,2.108,2.108" transform="translate(196.27 25.285)" fill="#c8effe"/>
          </g>
          <g id="g3302" transform="translate(30.572 22.056)">
            <path id="path3304" d="M-85.772-23.172V6.31a2.11,2.11,0,0,1-2.109,2.109h-5.692A2.109,2.109,0,0,0-91.466,6.31V-23.172a2.108,2.108,0,0,0-2.108-2.108h5.692a2.109,2.109,0,0,1,2.109,2.108" transform="translate(93.573 25.28)" fill="#a0ecf9"/>
          </g>
          <g id="g3306" transform="translate(10.607 16.168)">
            <path id="path3308" d="M-64.264,0h-5.845A2.109,2.109,0,0,1-68,2.108V37.8a2.108,2.108,0,0,1-2.108,2.108h5.845A2.108,2.108,0,0,0-62.156,37.8V2.108A2.108,2.108,0,0,0-64.264,0" transform="translate(70.109)" fill="#a0ecf9"/>
          </g>
          <path id="path3310" d="M42.713-362.876H26.351v-6.23H42.713Z" transform="translate(-24.154 395.247)" fill="#62dbfb"/>
          <path id="path3312" d="M152.514-362.876h5.845v-6.23h-5.845Z" transform="translate(-139.799 395.247)" fill="#01d0fb"/>
          <g id="g3314" transform="translate(25.631 43.487)">
            <path id="path3316" d="M-254.627-93.32h-20.854a2.3,2.3,0,0,1-2.3-2.3V-95.7a6.11,6.11,0,0,1,6.11-6.11h13.243a6.11,6.11,0,0,1,6.11,6.11v.073a2.3,2.3,0,0,1-2.3,2.3" transform="translate(277.786 101.808)" fill="#62dbfb"/>
          </g>
          <g id="g3318" transform="translate(39.695 43.487)">
            <path id="path3320" d="M-58.152,0h-5.289a6.11,6.11,0,0,1,6.11,6.11v.073a2.3,2.3,0,0,1-2.3,2.3h5.289a2.3,2.3,0,0,0,2.3-2.3V6.11A6.11,6.11,0,0,0-58.152,0" transform="translate(63.441)" fill="#01d0fb"/>
          </g>
          <g id="g3322" transform="translate(22.01 51.974)">
            <path id="path3324" d="M-341.221,0h-29.362a1.672,1.672,0,0,0-1.672,1.672V2.42a1.672,1.672,0,0,0,1.672,1.672h29.362a1.672,1.672,0,0,0,1.672-1.672V1.672A1.672,1.672,0,0,0-341.221,0" transform="translate(372.255)" fill="#8d9ca8"/>
          </g>
          <g id="g3326" transform="translate(47.199 51.974)">
            <path id="path3328" d="M-64.264,0h-5.845a1.672,1.672,0,0,1,1.672,1.672V2.42a1.672,1.672,0,0,1-1.672,1.672h5.845A1.672,1.672,0,0,0-62.592,2.42V1.672A1.672,1.672,0,0,0-64.264,0" transform="translate(70.109)" fill="#7a8d98"/>
          </g>
          <g id="g3330" transform="translate(24.118 17.902)">
            <path id="path3332" d="M-133.553-45.673H-145.7v-2.646a1.508,1.508,0,0,1,1.508-1.508h9.13a1.508,1.508,0,0,1,1.508,1.508Z" transform="translate(145.7 49.827)" fill="#62dbfb"/>
          </g>
          <g id="g3334" transform="translate(29.198 17.902)">
            <path id="path3336" d="M-77.694-16.585v2.646h-5.558v-2.646a1.508,1.508,0,0,0-1.508-1.508H-79.2a1.508,1.508,0,0,1,1.508,1.508" transform="translate(84.76 18.093)" fill="#01d0fb"/>
          </g>
          <g id="g3338" transform="translate(25.308 27.488)">
            <path id="path3340" d="M-107.365-53.683a4.883,4.883,0,0,1-4.882,4.882,4.883,4.883,0,0,1-4.882-4.882,4.883,4.883,0,0,1,4.882-4.882,4.882,4.882,0,0,1,4.882,4.882" transform="translate(117.13 58.565)" fill="#8d9ca8"/>
          </g>
          <g id="g3342" transform="translate(28.113 27.488)">
            <path id="path3344" d="M-76.532-53.678a4.883,4.883,0,0,1-4.882,4.883,4.867,4.867,0,0,1-2.079-.464,4.885,4.885,0,0,0,2.8-4.42,4.883,4.883,0,0,0-2.8-4.419,4.867,4.867,0,0,1,2.079-.464,4.883,4.883,0,0,1,4.882,4.882" transform="translate(83.493 58.56)" fill="#7a8d98"/>
          </g>
          <g id="g3346" transform="translate(36.47 5.166)">
            <path id="path3348" d="M-91.78-37.5h-1.884v-1.884a1.527,1.527,0,0,0-1.527-1.527,1.527,1.527,0,0,0-1.527,1.527V-37.5H-98.6a1.527,1.527,0,0,0-1.527,1.527A1.527,1.527,0,0,0-98.6-34.444h1.884v1.884a1.527,1.527,0,0,0,1.527,1.527,1.527,1.527,0,0,0,1.527-1.527v-1.884h1.884a1.527,1.527,0,0,0,1.527-1.527A1.527,1.527,0,0,0-91.78-37.5" transform="translate(100.128 40.908)" fill="#62dbfb"/>
          </g>
          <g id="g3350" transform="translate(40.542 5.166)">
            <path id="path3352" d="M-7.414-17.261v1.189a.652.652,0,0,0,.652.652H-5.7V-17.3a1.527,1.527,0,0,0-1.527-1.527,1.52,1.52,0,0,0-.866.27,1.59,1.59,0,0,1,.674,1.3" transform="translate(8.088 18.831)" fill="#01d0fb"/>
          </g>
          <g id="g3354" transform="translate(40.547 11.629)">
            <path id="path3356" d="M-7.354-7.168v1.232a1.524,1.524,0,0,1-.669,1.261,1.52,1.52,0,0,0,.86.266A1.527,1.527,0,0,0-5.636-5.936V-7.82H-6.7a.652.652,0,0,0-.652.652" transform="translate(8.023 7.82)" fill="#01d0fb"/>
          </g>
          <g id="g3358" transform="translate(43.057 8.576)">
            <path id="path3360" d="M-19.364,0h-1.761a1.555,1.555,0,0,1,1.568,1.453,1.527,1.527,0,0,1-1.525,1.6h1.718a1.527,1.527,0,0,0,1.527-1.527A1.527,1.527,0,0,0-19.364,0" transform="translate(21.125)" fill="#01d0fb"/>
          </g>
          <g id="g3362" transform="translate(3.606 9.767)">
            <path id="path3364" d="M2.711-69.55H-9.166A.834.834,0,0,1-10-70.384v-3.544a2.861,2.861,0,0,1,2.857-2.857H.687a2.861,2.861,0,0,1,2.857,2.857v3.544A.834.834,0,0,1,2.711-69.55ZM-8.333-71.217H1.877v-2.71a1.191,1.191,0,0,0-1.19-1.19h-7.83a1.191,1.191,0,0,0-1.19,1.19Z" transform="translate(10 76.785)"/>
          </g>
          <path id="path3366" d="M92.5-644.018h3.8a.834.834,0,0,1,.834.834v6.545a.834.834,0,0,1-.834.834H92.5a.834.834,0,0,1-.834-.834v-6.545A.834.834,0,0,1,92.5-644.018Zm2.971,1.667H93.335v4.878h2.137Z" transform="translate(-84.026 647.24)"/>
          <g id="g3368" transform="translate(3.606 0)">
            <path id="path3370" d="M-193.508-72.851a1.551,1.551,0,0,1-1.051-.409l-2.664-2.444h-12.862a1.557,1.557,0,0,1-1.555-1.555v-1.779a1.557,1.557,0,0,1,1.555-1.555h13.813a2.439,2.439,0,0,1,1.653.643l3.365,3.087a1.557,1.557,0,0,1,.095,2.2l-1.2,1.311A1.559,1.559,0,0,1-193.508-72.851Zm-16.464-4.52H-196.9a.834.834,0,0,1,.564.219l2.82,2.587,1.051-1.146-3.282-3.011a.775.775,0,0,0-.526-.2h-13.7Z" transform="translate(211.639 80.593)"/>
          </g>
          <g id="g3372" transform="translate(1.363 15.335)">
            <path id="path3374" d="M5.089-162.769H-7.058A2.945,2.945,0,0,1-10-165.711v-17.67a.834.834,0,0,1,.834-.834.834.834,0,0,1,.834.834v17.67a1.276,1.276,0,0,0,1.274,1.274H5.089a1.276,1.276,0,0,0,1.274-1.274v-35.695a1.276,1.276,0,0,0-1.274-1.274H-7.058a1.276,1.276,0,0,0-1.274,1.274v14.094a.834.834,0,0,1-.834.834.834.834,0,0,1-.834-.834v-14.094a2.945,2.945,0,0,1,2.942-2.942H5.089a2.945,2.945,0,0,1,2.942,2.942v35.695A2.945,2.945,0,0,1,5.089-162.769Z" transform="translate(10 204.348)"/>
          </g>
          <path id="path3376" d="M33.547-371.209H17.184a.834.834,0,0,1-.834-.834v-6.23a.834.834,0,0,1,.834-.834H33.547a.834.834,0,0,1,.834.834v6.23A.834.834,0,0,1,33.547-371.209Zm-15.529-1.667h14.7v-4.562h-14.7Z" transform="translate(-14.988 404.413)"/>
          <g id="g3378" transform="translate(24.798 42.653)">
            <path id="path3380" d="M-263.794-101.653h-20.854a3.141,3.141,0,0,1-3.138-3.138,6.967,6.967,0,0,1,6.944-7.017H-267.6a6.951,6.951,0,0,1,6.944,6.944A3.158,3.158,0,0,1-263.794-101.653Zm-17.049-8.488a5.282,5.282,0,0,0-5.276,5.276,1.49,1.49,0,0,0,1.47,1.544h20.854a1.472,1.472,0,0,0,1.47-1.471,5.3,5.3,0,0,0-5.276-5.35Z" transform="translate(287.786 111.808)"/>
          </g>
          <g id="g3382" transform="translate(21.176 51.141)">
            <path id="path3384" d="M-379.75-10h29.362a2.508,2.508,0,0,1,2.505,2.505v.748a2.508,2.508,0,0,1-2.505,2.505H-379.75a2.508,2.508,0,0,1-2.505-2.505v-.748A2.508,2.508,0,0,1-379.75-10Zm29.362,4.091a.839.839,0,0,0,.838-.838v-.748a.839.839,0,0,0-.838-.838H-379.75a.839.839,0,0,0-.838.838v.748a.839.839,0,0,0,.838.838Z" transform="translate(382.255 10)"/>
          </g>
          <g id="g3386" transform="translate(21.176 21.222)">
            <path id="path3388" d="M-9.166-355.668A.834.834,0,0,1-10-356.5v-29.482a2.945,2.945,0,0,1,2.942-2.942H5.088a2.945,2.945,0,0,1,2.942,2.942v15.658a.834.834,0,0,1-.834.834.834.834,0,0,1-.834-.834v-15.658a1.276,1.276,0,0,0-1.274-1.274H-7.058a1.276,1.276,0,0,0-1.274,1.274V-356.5A.834.834,0,0,1-9.166-355.668Z" transform="translate(10 388.926)"/>
          </g>
          <g id="g3390" transform="translate(23.284 17.068)">
            <path id="path3392" d="M-142.719-54.005h-12.147a.834.834,0,0,1-.834-.834v-2.646a2.345,2.345,0,0,1,2.342-2.342h9.13a2.345,2.345,0,0,1,2.342,2.342v2.646A.834.834,0,0,1-142.719-54.005Zm-11.313-1.667h10.479v-1.812a.675.675,0,0,0-.675-.675h-9.13a.675.675,0,0,0-.675.675Z" transform="translate(155.7 59.826)"/>
          </g>
          <g id="g3394" transform="translate(28.631 30.811)">
            <path id="path3396" d="M-9.166-24.293a.831.831,0,0,1-.59-.244.834.834,0,0,1,0-1.179L-8.3-27.168a.834.834,0,0,1,1.179,0,.834.834,0,0,1,0,1.179l-1.452,1.452A.831.831,0,0,1-9.166-24.293Z" transform="translate(10 27.412)"/>
          </g>
          <g id="g3398" transform="translate(24.475 26.655)">
            <path id="path3400" d="M-121.414-68.565a5.723,5.723,0,0,1,5.716,5.716,5.723,5.723,0,0,1-5.716,5.716,5.723,5.723,0,0,1-5.716-5.716A5.723,5.723,0,0,1-121.414-68.565Zm0,9.765a4.053,4.053,0,0,0,4.049-4.049,4.053,4.053,0,0,0-4.049-4.049,4.053,4.053,0,0,0-4.049,4.049A4.053,4.053,0,0,0-121.414-58.8Z" transform="translate(127.13 68.565)"/>
          </g>
          <g id="g3402" transform="translate(51.347 0)">
            <path id="path3404" d="M-9.166-4.854A.834.834,0,0,1-10-5.688V-9.166A.834.834,0,0,1-9.166-10a.834.834,0,0,1,.834.834v3.478A.834.834,0,0,1-9.166-4.854Z" transform="translate(10 10)"/>
          </g>
          <g id="g3406" transform="translate(49.608 1.739)">
            <path id="path3408" d="M-47.411-8.333h-3.478a.834.834,0,0,1-.834-.834A.834.834,0,0,1-50.889-10h3.478a.834.834,0,0,1,.834.834A.834.834,0,0,1-47.411-8.333Z" transform="translate(51.723 10)"/>
          </g>
          <g id="g3410" transform="translate(35.637 4.332)">
            <path id="path3412" d="M-104.357-50.908a2.363,2.363,0,0,1,2.36,2.36v1.05h1.05a2.363,2.363,0,0,1,2.36,2.36,2.363,2.363,0,0,1-2.36,2.36H-102v1.05a2.363,2.363,0,0,1-2.36,2.36,2.363,2.363,0,0,1-2.36-2.36v-1.05h-1.05a2.363,2.363,0,0,1-2.36-2.36,2.363,2.363,0,0,1,2.36-2.36h1.05v-1.05A2.363,2.363,0,0,1-104.357-50.908Zm3.41,6.464a.694.694,0,0,0,.693-.693.694.694,0,0,0-.693-.693h-1.884a.834.834,0,0,1-.834-.834v-1.884a.694.694,0,0,0-.693-.693.694.694,0,0,0-.693.693v1.884a.834.834,0,0,1-.834.834h-1.884a.694.694,0,0,0-.693.693.694.694,0,0,0,.693.693h1.884a.834.834,0,0,1,.834.834v1.884a.694.694,0,0,0,.693.693.694.694,0,0,0,.693-.693V-43.61a.834.834,0,0,1,.834-.834Z" transform="translate(110.128 50.908)"/>
          </g>
        </g>
      </g>
    </g>
  </g>
</svg>
