<svg xmlns="http://www.w3.org/2000/svg" xmlns:xlink="http://www.w3.org/1999/xlink" width="118" height="118" viewBox="0 0 118 118">
  <defs>
    <filter id="Rectangle_411831" x="0" y="0" width="118" height="118" filterUnits="userSpaceOnUse">
      <feOffset dy="3" input="SourceAlpha"/>
      <feGaussianBlur stdDeviation="3" result="blur"/>
      <feFlood flood-opacity="0.161"/>
      <feComposite operator="in" in2="blur"/>
      <feComposite in="SourceGraphic"/>
    </filter>
  </defs>
  <g id="Group_1204331" data-name="Group 1204331" transform="translate(6465.096 9300.951)">
    <g id="Group_1203741" data-name="Group 1203741" transform="translate(-6791.877 -13152.951)">
      <g transform="matrix(1, 0, 0, 1, 326.78, 3852)" filter="url(#Rectangle_411831)">
        <g id="Rectangle_411831-2" data-name="Rectangle 411831" transform="translate(9 6)" fill="#ffc94a" stroke="#fff" stroke-width="2">
          <path d="M5,0H68a32,32,0,0,1,32,32V95a5,5,0,0,1-5,5H32A32,32,0,0,1,0,68V5A5,5,0,0,1,5,0Z" stroke="none"/>
          <path d="M5,1H68A31,31,0,0,1,99,32V95a4,4,0,0,1-4,4H32A31,31,0,0,1,1,68V5A4,4,0,0,1,5,1Z" fill="none"/>
        </g>
      </g>
    </g>
    <g id="Layer_x0020_1" transform="translate(-6453.608 -9289.109)">
      <path id="Path_1469344" data-name="Path 1469344" d="M39.309,69.356c-4.27-5.35-5.145-9.965-2.6-13.715,2.03-2.994,6.453-3.527,13.146-1.585a83.9,83.9,0,0,1,13.13,5.434l.308.153c2.024.965,3.1,2.408,2.887,3.861-.233,1.579-1.908,2.793-4.65,3.41a2.074,2.074,0,0,1,.077,2.228c-.806,1.239-3.1,1.4-6.49.478-1.585,1.7-4.24,2.887-8.353.209a3.961,3.961,0,0,1-2.819,1.607c-.147.014-.3.022-.443.022A5.509,5.509,0,0,1,39.309,69.356ZM62.064,45.416a7.589,7.589,0,0,1-.055,5.636.742.742,0,1,1-1.379-.546,6.088,6.088,0,0,0,.007-4.668l-.007-.017a.742.742,0,1,1,1.379-.547q.028.071.055.142Zm4.138-2A7.586,7.586,0,0,1,66.125,49a.742.742,0,0,1-1.379-.547,6.087,6.087,0,0,0,.012-4.656l-.012-.03a.742.742,0,1,1,1.379-.546Q66.165,43.317,66.2,43.417Zm3.061-1.2a7.575,7.575,0,0,1-.13,5.43.742.742,0,1,1-1.379-.547,6.082,6.082,0,0,0,.015-4.647l-.015-.037a.742.742,0,0,1,1.379-.547Q69.2,42.044,69.262,42.218Zm8.028,4.824a4.27,4.27,0,0,0-3.546.529.726.726,0,0,1-.388.111.743.743,0,0,1-.391-1.375,5.75,5.75,0,0,1,4.779-.681q.2.056.394.126a.743.743,0,0,1-.493,1.4q-.178-.063-.354-.112Zm-.464,4.321a6.6,6.6,0,0,0-7.28,3.262.742.742,0,1,1-1.248-.8,8.041,8.041,0,0,1,8.782-3.92q.268.048.541.11a.742.742,0,0,1-.328,1.447q-.236-.053-.467-.095Zm-3.21,5.856c-2.606.638-4.007,2.382-4.272,5.3a.743.743,0,0,1-.737.676.492.492,0,0,1-.068,0,.741.741,0,0,1-.673-.806c.358-3.932,2.594-6.284,6.471-6.812l.144-.019a.742.742,0,1,1,.181,1.472,9.074,9.074,0,0,0-1.046.189ZM56.483,78.2l.008,0q.944-.3,1.845-.673.206-.085.416-.177a.743.743,0,0,1,.069-.03l.043-.015a.741.741,0,0,1,.929.489l.194.624c5.4-2.567,8.951-6.869,10.069-12.239,2.483-1.6,4.223-4.757,5.176-9.4,2.4-1.407,3.482-3.532,3.014-5.907a5.344,5.344,0,0,0,.5-4.133l2.42-1.885a.745.745,0,0,0,.074-.065,3.114,3.114,0,0,0,.742-3.764,3.057,3.057,0,0,0-2.514-1.412,3.131,3.131,0,0,0,.39-2.613,2.824,2.824,0,0,0-2.432-1.8c-3.187-.416-6.117,1.319-8.728,5.159a1.337,1.337,0,0,0-1.143-.707H67.52c-.971,0-1.859,1.1-2.38,2.281a2.356,2.356,0,0,0-1.5-.264,3.6,3.6,0,0,0-2.788,2.329,2.357,2.357,0,0,0-.885-.162h-.015a4.828,4.828,0,0,0-4.126,3.215c-3.929,1.522-7.464,1.563-10.24.116A8.773,8.773,0,0,1,42.394,44.3a.75.75,0,0,1,.049.094.74.74,0,0,1-.382.977,1.8,1.8,0,0,1-.627.142,6.363,6.363,0,0,1-1.99-.37,4.668,4.668,0,0,0-1.6-.3,4.642,4.642,0,0,0-.181,1.614c-.015,1.1-.031,2.233-.781,2.788s-1.84.24-2.895-.068a4.721,4.721,0,0,0-1.6-.3,4.7,4.7,0,0,0-.181,1.616c-.015,1.1-.031,2.233-.781,2.788s-1.84.238-2.895-.068a4.715,4.715,0,0,0-1.6-.3,4.734,4.734,0,0,0-.181,1.614c-.015,1.1-.031,2.235-.781,2.79a1.689,1.689,0,0,1-1.036.3,7.085,7.085,0,0,1-1.859-.371c-.146-.042-.293-.085-.437-.125.4,7.656,4.047,13.314,12.037,18.774a17.072,17.072,0,0,0,2.533,1.418.739.739,0,0,1,.1.044A28.311,28.311,0,0,0,56.483,78.2Z" transform="translate(-3.483 -13.881)" fill="#ffcc80" fill-rule="evenodd"/>
      <g id="_301715728" transform="translate(16.38 10.16)">
        <path id="_301717000" d="M44.645,73.127q-1.132,0-2.266-.083a24.438,24.438,0,0,1-11.825-3.761c-4.5-3.077-7.69-6.269-9.739-9.755a22.227,22.227,0,0,1-2.978-11.149,51.641,51.641,0,0,1,1.6-12.388.743.743,0,0,1,1.447.332,50.29,50.29,0,0,0-1.563,12.028c.149,8.134,3.759,14.027,12.069,19.707,5.931,4.051,16.1,4.749,23.652,1.622,4-1.655,9.031-5.071,10.327-11.95a.743.743,0,0,1,.357-.5c2.314-1.344,3.936-4.344,4.823-8.918a.746.746,0,0,1,.379-.513c2.136-1.146,3.006-2.779,2.514-4.723a.746.746,0,0,1,.1-.586,3.972,3.972,0,0,0,.351-3.649.743.743,0,0,1,.25-.813l2.774-2.16a1.673,1.673,0,0,0,.487-1.941c-.388-.665-1.424-.866-2.7-.523a.743.743,0,0,1-.717-1.243c.964-.962,1.39-1.885,1.171-2.53a1.388,1.388,0,0,0-1.218-.8c-2.909-.379-5.649,1.59-8.146,5.851a.743.743,0,0,1-1.379-.3,2.819,2.819,0,0,0-.249-1.052,4.215,4.215,0,0,0-1.287,2.434.742.742,0,0,1-1.451.079.708.708,0,0,0-.881-.546A2.283,2.283,0,0,0,58.768,37.7a.742.742,0,0,1-1.457.2c-.06-.215-.182-.433-.642-.433a3.433,3.433,0,0,0-2.814,2.482.744.744,0,0,1-.438.5c-4.474,1.815-8.558,1.879-11.808.184-2.892-1.506-4.876-4.3-5.74-8.088-1.194-5.233-4.914-9.73-8.293-10.025-2.256-.2-3.547,1.7-4.232,3.331a.746.746,0,0,1-.764.45,4.086,4.086,0,0,0-3.747,1.26l3.347.046a.742.742,0,0,1-.011,1.485h-.011l-4.7-.066a.743.743,0,0,1-.651-1.079,5.456,5.456,0,0,1,5.392-3.161c1.675-3.515,4.149-3.864,5.511-3.744,4.039.353,8.262,5.259,9.611,11.172.764,3.348,2.485,5.8,4.979,7.1,2.776,1.447,6.311,1.406,10.24-.116a4.828,4.828,0,0,1,4.126-3.215h.015a2.357,2.357,0,0,1,.885.162A3.6,3.6,0,0,1,60.35,33.82a2.356,2.356,0,0,1,1.5.264c.521-1.185,1.409-2.281,2.38-2.281h.031a1.337,1.337,0,0,1,1.143.707c2.61-3.84,5.541-5.575,8.728-5.159a2.825,2.825,0,0,1,2.432,1.8,3.131,3.131,0,0,1-.39,2.613,3.057,3.057,0,0,1,2.514,1.412,3.114,3.114,0,0,1-.742,3.764.745.745,0,0,1-.074.065l-2.42,1.885a5.344,5.344,0,0,1-.5,4.133c.469,2.375-.615,4.5-3.014,5.907-.952,4.647-2.692,7.806-5.176,9.4-1.19,5.722-5.14,10.231-11.154,12.72a29.05,29.05,0,0,1-10.965,2.075Z" transform="translate(-16.57 -16.198)" fill-rule="evenodd"/>
        <path id="_301716784" d="M28.021,43.384a2.263,2.263,0,0,0,2.61-.8,2.177,2.177,0,0,0-.02-2.731,10.084,10.084,0,0,0-3.577-2.282c-.781,1.928-.97,3.411-.56,4.418a2.54,2.54,0,0,0,1.546,1.395Zm.776,1.633a3.6,3.6,0,0,1-1.318-.251,3.994,3.994,0,0,1-2.38-2.217c-.624-1.532-.34-3.581.869-6.261a.744.744,0,0,1,.968-.377c2.668,1.137,4.123,2.052,4.868,3.062a3.638,3.638,0,0,1,0,4.515A3.809,3.809,0,0,1,28.8,45.017Z" transform="translate(-21.048 -24.439)" fill-rule="evenodd"/>
        <path id="_301716640" d="M21.339,20.737a.745.745,0,0,1-.622-.334,5.327,5.327,0,0,1,.7-6.623,3.324,3.324,0,0,1,3.206-.982,2.552,2.552,0,0,1,.951-1.641,3.738,3.738,0,0,1,3.179-.226,2.454,2.454,0,0,1,1.475-.747,3.27,3.27,0,0,1,2.666.934,5.267,5.267,0,0,1,.691,6.614.743.743,0,1,1-1.242-.815,3.78,3.78,0,0,0-.493-4.744,1.8,1.8,0,0,0-1.424-.517.971.971,0,0,0-.747.5.742.742,0,0,1-.861.339c-1.2-.371-1.992-.419-2.364-.144s-.444.993-.444,1.551a.743.743,0,0,1-1.161.612,1.789,1.789,0,0,0-2.392.323,3.869,3.869,0,0,0-.5,4.749.741.741,0,0,1-.62,1.149Z" transform="translate(-18.319 -10.16)" fill-rule="evenodd"/>
        <path id="_301716592" d="M20.24,45.152a3.991,3.991,0,0,1-.841-.09,3.638,3.638,0,0,1-2.612-2.1,4,4,0,0,1-.114-3.25c.644-1.526,2.293-2.773,5.043-3.813a.742.742,0,1,1,.526,1.389c-2.316.877-3.73,1.887-4.2,3a2.54,2.54,0,0,0,.107,2.08,2.17,2.17,0,0,0,1.562,1.245,2.362,2.362,0,0,0,2.058-.51.742.742,0,0,1,.994,1.1,3.758,3.758,0,0,1-2.522.948Z" transform="translate(-16.38 -24.438)" fill-rule="evenodd"/>
        <path id="_301716832" d="M37.8,29.3a1.059,1.059,0,1,0,1.059,1.059A1.061,1.061,0,0,0,37.8,29.3Zm0,3.6a2.544,2.544,0,1,1,2.544-2.544A2.547,2.547,0,0,1,37.8,32.9Z" transform="translate(-26.874 -19.972)" fill-rule="evenodd"/>
        <path id="_301716880" d="M58.828,76.629c-2.432,0-4.131.7-5.075,2.091-2.165,3.193-1.336,7.1,2.533,11.957A3.967,3.967,0,0,0,59.607,92.2,2.585,2.585,0,0,0,61.7,90.687a.744.744,0,0,1,1.1-.266c4.183,3.029,6.175,1.526,7.31.133a.745.745,0,0,1,.786-.243c3.34.98,5.016.685,5.287.268.124-.192-.032-.717-.66-1.46a.741.741,0,0,1,.455-1.214c3.17-.476,4.43-1.539,4.556-2.374.113-.762-.677-1.647-2.063-2.306l-.009,0-.314-.156a82.584,82.584,0,0,0-12.886-5.338,23.762,23.762,0,0,0-6.426-1.1ZM59.315,93.7a5.509,5.509,0,0,1-4.189-2.1c-4.27-5.35-5.145-9.965-2.6-13.715,2.03-2.994,6.453-3.527,13.146-1.585A83.894,83.894,0,0,1,78.8,81.735l.308.153c2.024.965,3.1,2.408,2.887,3.861-.233,1.579-1.908,2.793-4.65,3.41a2.074,2.074,0,0,1,.077,2.228c-.806,1.239-3.1,1.4-6.49.478-1.585,1.7-4.24,2.887-8.353.209a3.961,3.961,0,0,1-2.819,1.607C59.612,93.695,59.463,93.7,59.315,93.7Z" transform="translate(-35.68 -46.286)" fill-rule="evenodd"/>
        <path id="_301716616" d="M46.849,144.765a2.125,2.125,0,0,1-.678-.114l-6.488-2.163-6.489,2.163a2.009,2.009,0,0,1-1.27-3.812l6.147-2.049,2.576-8.265a.742.742,0,1,1,1.416.441l-2.689,8.63a.745.745,0,0,1-.473.482l-6.509,2.17a.524.524,0,0,0,.332.994L39.448,141a.74.74,0,0,1,.47,0l6.724,2.241a.524.524,0,0,0,.331-.994l-5.946-1.982a.741.741,0,0,1-.473-.925l2.463-7.9a.742.742,0,1,1,1.416.441l-2.247,7.211,5.256,1.751a1.962,1.962,0,0,1,1.26,2.538,1.983,1.983,0,0,1-1.854,1.389Z" transform="translate(-24.261 -76.77)" fill-rule="evenodd"/>
        <path id="_301716736" d="M89.867,144.756a1.984,1.984,0,0,1-1.856-1.389,1.964,1.964,0,0,1,1.26-2.538l5.256-1.751-2.255-7.234a.743.743,0,0,1,1.418-.442l2.471,7.928a.743.743,0,0,1-.475.925l-5.946,1.982a.524.524,0,0,0,.332.994l6.722-2.241a.741.741,0,0,1,.47,0l6.724,2.241a.449.449,0,0,0,.479-.067.653.653,0,0,0,.195-.586.449.449,0,0,0-.343-.342l-6.509-2.17a.744.744,0,0,1-.473-.482l-2.691-8.637a.742.742,0,1,1,1.416-.441l2.578,8.272,6.148,2.049a1.925,1.925,0,0,1,1.327,1.452,2.134,2.134,0,0,1-.665,1.995,1.919,1.919,0,0,1-1.933.365l-6.488-2.163-6.489,2.163a2.122,2.122,0,0,1-.676.114Z" transform="translate(-56.134 -76.761)" fill-rule="evenodd"/>
        <path id="_301716568" d="M23.045,67.9a7.086,7.086,0,0,1-1.859-.371,7.99,7.99,0,0,0-1.285-.3.743.743,0,0,1,.145-1.478A9.206,9.206,0,0,1,21.6,66.1a4.67,4.67,0,0,0,1.6.3,4.642,4.642,0,0,0,.181-1.614c.016-1.1.031-2.233.781-2.788s1.84-.24,2.895.066a4.648,4.648,0,0,0,1.6.3,4.641,4.641,0,0,0,.181-1.614c.016-1.1.031-2.233.781-2.788s1.84-.238,2.895.066a4.686,4.686,0,0,0,1.6.3,4.719,4.719,0,0,0,.181-1.614c.016-1.1.031-2.234.781-2.79s1.84-.238,2.895.068a4.426,4.426,0,0,0,1.607.294.742.742,0,1,1,.6,1.359,4.057,4.057,0,0,1-2.616-.227,4.668,4.668,0,0,0-1.6-.3,4.642,4.642,0,0,0-.181,1.614c-.015,1.1-.031,2.233-.781,2.788s-1.84.24-2.895-.068a4.721,4.721,0,0,0-1.6-.3,4.7,4.7,0,0,0-.181,1.616c-.015,1.1-.031,2.233-.781,2.788s-1.84.238-2.895-.068a4.715,4.715,0,0,0-1.6-.3,4.734,4.734,0,0,0-.181,1.614c-.015,1.1-.031,2.235-.781,2.79a1.689,1.689,0,0,1-1.036.3Z" transform="translate(-17.964 -34.313)" fill-rule="evenodd"/>
        <path id="_301716280" d="M125.895,73.228a.742.742,0,0,1-.623-1.144,8.107,8.107,0,0,1,9.323-3.81.742.742,0,0,1-.328,1.447,6.666,6.666,0,0,0-7.747,3.167.741.741,0,0,1-.625.34Z" transform="translate(-76.838 -42.305)" fill-rule="evenodd"/>
        <path id="_301715584" d="M135.877,60.506a.743.743,0,0,1-.391-1.375,5.781,5.781,0,0,1,5.173-.555.743.743,0,0,1-.493,1.4,4.3,4.3,0,0,0-3.9.417A.726.726,0,0,1,135.877,60.506Z" transform="translate(-82.385 -36.866)" fill-rule="evenodd"/>
        <path id="_301715560" d="M125.185,88.743a.492.492,0,0,1-.068,0,.741.741,0,0,1-.673-.806c.362-3.98,2.649-6.342,6.615-6.83a.742.742,0,1,1,.181,1.472c-3.28.405-5.019,2.2-5.318,5.493a.743.743,0,0,1-.737.676Z" transform="translate(-76.442 -49.587)" fill-rule="evenodd"/>
        <path id="_301716064" d="M124.818,55.959a.743.743,0,0,1-.69-1.017,6.087,6.087,0,0,0,0-4.684.742.742,0,0,1,1.379-.547,7.6,7.6,0,0,1,0,5.779A.742.742,0,0,1,124.818,55.959Z" transform="translate(-76.238 -31.882)" fill-rule="evenodd"/>
        <path id="_301715824" d="M118.046,58.987a.743.743,0,0,1-.69-1.016,6.09,6.09,0,0,0,0-4.685.742.742,0,1,1,1.379-.546,7.6,7.6,0,0,1,0,5.779A.743.743,0,0,1,118.046,58.987Z" transform="translate(-72.474 -33.565)" fill-rule="evenodd"/>
        <path id="_301716136" d="M108.779,63.621a.743.743,0,0,1-.69-1.016,6.09,6.09,0,0,0,0-4.685.742.742,0,1,1,1.379-.547,7.6,7.6,0,0,1,0,5.779.74.74,0,0,1-.69.47Z" transform="translate(-67.324 -36.141)" fill-rule="evenodd"/>
      </g>
      <g id="Group_1204330" data-name="Group 1204330" transform="translate(18.643 16.469)">
        <path id="Path_1469345" data-name="Path 1469345" d="M79.988,84.906A82.586,82.586,0,0,0,67.1,79.568a23.762,23.762,0,0,0-6.426-1.1c-2.432,0-4.131.7-5.075,2.091-2.165,3.193-1.336,7.1,2.533,11.957a3.967,3.967,0,0,0,3.322,1.528,2.585,2.585,0,0,0,2.089-1.517.744.744,0,0,1,1.1-.266c4.183,3.029,6.175,1.526,7.31.133a.745.745,0,0,1,.786-.243c3.34.98,5.016.685,5.287.268.124-.192-.032-.717-.66-1.46a.741.741,0,0,1,.455-1.214c3.17-.476,4.43-1.539,4.556-2.374.113-.762-.677-1.647-2.063-2.306l-.009,0Z" transform="translate(-39.79 -54.436)" fill="#e2be86" fill-rule="evenodd"/>
        <path id="Path_1469346" data-name="Path 1469346" d="M30.078,44.486c.016-1.1.031-2.233.781-2.788s1.84-.238,2.895.066a4.686,4.686,0,0,0,1.6.3,4.719,4.719,0,0,0,.181-1.614c.016-1.1.031-2.234.781-2.79s1.84-.238,2.895.068c.16.046.354.1.552.155A14.659,14.659,0,0,1,38.51,34.4a15.817,15.817,0,0,0-4.976-8.514.733.733,0,0,1-.25-.2,6.088,6.088,0,0,0-3.068-1.316c-2.256-.2-3.547,1.7-4.232,3.331a.746.746,0,0,1-.764.45,4.086,4.086,0,0,0-3.747,1.26l3.347.046a.74.74,0,0,1,.317.076c2.644,1.129,4.089,2.041,4.831,3.046a3.638,3.638,0,0,1,0,4.515,3.809,3.809,0,0,1-3.012,1.529,3.6,3.6,0,0,1-1.318-.251,5.391,5.391,0,0,1-.492-.221,3.783,3.783,0,0,1-1.755.594A50.868,50.868,0,0,0,21.957,49.6c.294.068.595.155.889.241a4.67,4.67,0,0,0,1.6.3,4.642,4.642,0,0,0,.181-1.614c.016-1.1.031-2.233.781-2.788s1.84-.24,2.895.066a4.648,4.648,0,0,0,1.6.3,4.641,4.641,0,0,0,.181-1.614Zm.065-13.5a2.544,2.544,0,1,1,2.544-2.544A2.547,2.547,0,0,1,30.142,30.983Z" transform="translate(-21.473 -24.363)" fill="#e2be86" fill-rule="evenodd"/>
        <path id="Path_1469347" data-name="Path 1469347" d="M43.67,133.941l-2.444,7.844a.745.745,0,0,1-.473.482l-6.509,2.17a.524.524,0,0,0,.332.994L41.3,143.19a.74.74,0,0,1,.47,0l6.724,2.241a.524.524,0,0,0,.331-.994l-5.946-1.982a.741.741,0,0,1-.473-.925l2.248-7.213q-.5-.178-.983-.375Z" transform="translate(-28.374 -85.268)" fill="#e2be86" fill-rule="evenodd"/>
        <path id="Path_1469348" data-name="Path 1469348" d="M95.757,134.28l2.255,7.233a.743.743,0,0,1-.475.925l-5.946,1.982a.524.524,0,0,0,.332.994l6.722-2.241a.741.741,0,0,1,.47,0l6.724,2.241a.449.449,0,0,0,.479-.067.653.653,0,0,0,.195-.586.449.449,0,0,0-.343-.342l-6.509-2.17a.744.744,0,0,1-.473-.482l-2.448-7.857q-.484.193-.984.368Z" transform="translate(-60.246 -85.251)" fill="#e2be86" fill-rule="evenodd"/>
      </g>
      <path id="Path_1469349" data-name="Path 1469349" d="M39.663,33.274A1.059,1.059,0,1,0,38.6,32.215,1.061,1.061,0,0,0,39.663,33.274Z" transform="translate(-12.351 -11.67)" fill="#cfd8dc" fill-rule="evenodd"/>
      <path id="Path_1469350" data-name="Path 1469350" d="M32.469,42.006a10.084,10.084,0,0,0-3.577-2.282c-.781,1.928-.97,3.411-.56,4.418a2.274,2.274,0,0,0,.856,1.038l.028.019a3.5,3.5,0,0,0,.663.338,2.263,2.263,0,0,0,2.61-.8,2.177,2.177,0,0,0-.02-2.731Z" transform="translate(-6.526 -16.432)" fill="#e05858" fill-rule="evenodd"/>
      <path id="Path_1469351" data-name="Path 1469351" d="M22.291,45.227a6.578,6.578,0,0,1,.2-4.557,5.2,5.2,0,0,0-2.587,2.3,2.54,2.54,0,0,0,.107,2.08,2.17,2.17,0,0,0,1.562,1.245,2.456,2.456,0,0,0,.3.046l.034,0a2.45,2.45,0,0,0,.978-.126A3.687,3.687,0,0,1,22.291,45.227Z" transform="translate(-1.859 -16.958)" fill="#e05858" fill-rule="evenodd"/>
      <path id="Path_1469352" data-name="Path 1469352" d="M25.812,20.607c1.675-3.515,4.149-3.864,5.511-3.744a7.158,7.158,0,0,1,3.25,1.211,3.781,3.781,0,0,0-.855-4.042,1.8,1.8,0,0,0-1.424-.517.971.971,0,0,0-.747.5.742.742,0,0,1-.861.339c-1.2-.371-1.992-.419-2.364-.144s-.444.993-.444,1.551a.743.743,0,0,1-1.161.612,1.789,1.789,0,0,0-2.392.323,3.9,3.9,0,0,0-.785,4.218A6.193,6.193,0,0,1,25.812,20.607Z" transform="translate(-3.808 -1.858)" fill="#e05858" fill-rule="evenodd"/>
    </g>
  </g>
</svg>
